<svg xmlns="http://www.w3.org/2000/svg" viewBox="0 0 450.24 125.94"><defs><style>.a66765c2-9d23-405e-b75b-0d771cc84466{fill:#fff;}</style></defs><title>Asset 2</title><g id="103ac697-ee80-4063-ac70-76cc0471141f" data-name="Layer 2"><g id="dad9daf4-ec83-4ef7-b2ac-d695f4044740" data-name="Layer 1"><rect class="a66765c2-9d23-405e-b75b-0d771cc84466" x="227.12" y="53.84" width="2.89" height="14.51"/><path class="a66765c2-9d23-405e-b75b-0d771cc84466" d="M227.12,111.68l5.09,8a28,28,0,0,1-5.09,3Z"/><path class="a66765c2-9d23-405e-b75b-0d771cc84466" d="M312.09,12.47h26V79a52,52,0,0,1-3.35,19,42.49,42.49,0,0,1-9.59,14.86A43.26,43.26,0,0,1,310,122.47a60.18,60.18,0,0,1-40.28,0,43.26,43.26,0,0,1-15.18-9.71A42,42,0,0,1,245,97.9a52.42,52.42,0,0,1-3.31-19V12.47h26v66.4a34.46,34.46,0,0,0,1.5,10.59,22.49,22.49,0,0,0,4.36,7.94,18.66,18.66,0,0,0,7,5,26,26,0,0,0,18.72,0,19,19,0,0,0,7-5,22,22,0,0,0,4.35-7.9A34.55,34.55,0,0,0,312.09,79Z"/><path class="a66765c2-9d23-405e-b75b-0d771cc84466" d="M450.24,40.74a47.46,47.46,0,0,1-3,17.12,34.39,34.39,0,0,1-9.16,13.35,43.08,43.08,0,0,1-15.62,8.69A71.63,71.63,0,0,1,400.09,83H385V124.7H356.1V0h44q13.19,0,22.64,3.13a43.49,43.49,0,0,1,15.58,8.6,33.62,33.62,0,0,1,9,12.92A43.85,43.85,0,0,1,450.24,40.74Z"/><path class="a66765c2-9d23-405e-b75b-0d771cc84466" d="M33.7,105.66a10.15,10.15,0,0,0-2.34-3.27,13.86,13.86,0,0,0-3.29-2.27,34.73,34.73,0,0,0-3.77-1.61c-1.28-.45-2.54-.87-3.76-1.24a32.75,32.75,0,0,1-3.3-1.17,8.16,8.16,0,0,1-2.33-1.44,2.65,2.65,0,0,1-.88-2,3.12,3.12,0,0,1,1.35-2.68,6.62,6.62,0,0,1,3.87-1,11.1,11.1,0,0,1,3.13.41,23.2,23.2,0,0,1,2.46.87l2,.88a4.76,4.76,0,0,0,1.88.41,3,3,0,0,0,1.48-.34A3.51,3.51,0,0,0,31.32,90l3-4.66a17.49,17.49,0,0,0-2.87-2.29,19.56,19.56,0,0,0-3.6-1.82,24.27,24.27,0,0,0-4.21-1.2A25.26,25.26,0,0,0,19,79.64a23.62,23.62,0,0,0-7.71,1.14,15.85,15.85,0,0,0-5.47,3.06,12.4,12.4,0,0,0-3.28,4.47,14.5,14.5,0,0,0-.19,10.55,11.34,11.34,0,0,0,2.35,3.61A12.89,12.89,0,0,0,8,104.91a30.82,30.82,0,0,0,3.79,1.65c1.28.46,2.54.86,3.78,1.22a27.62,27.62,0,0,1,3.32,1.16,7.94,7.94,0,0,1,2.36,1.47,2.91,2.91,0,0,1,.89,2.18,3.48,3.48,0,0,1-1.24,2.66,4.58,4.58,0,0,1-1.71.87,8.94,8.94,0,0,1-2.61.32,11,11,0,0,1-3.62-.51,16.36,16.36,0,0,1-2.5-1.11l-2-1.11a4.09,4.09,0,0,0-2.08-.52,3.79,3.79,0,0,0-2,.49A4.48,4.48,0,0,0,3.08,115L0,119.91a16.7,16.7,0,0,0,3.08,2.16A23.23,23.23,0,0,0,7,123.8,31.79,31.79,0,0,0,11.38,125a24.84,24.84,0,0,0,4.54.43,26.48,26.48,0,0,0,8-1.11,17.06,17.06,0,0,0,5.86-3.13,12.86,12.86,0,0,0,3.57-4.79,15.2,15.2,0,0,0,1.2-6.08A11.17,11.17,0,0,0,33.7,105.66Z"/><path class="a66765c2-9d23-405e-b75b-0d771cc84466" d="M68.72,114.3a3.75,3.75,0,0,0-.82-1,1.67,1.67,0,0,0-1.06-.31,2.12,2.12,0,0,0-.83.16l-.75.38a5.56,5.56,0,0,1-.94.38,4.68,4.68,0,0,1-1.34.16A2.8,2.8,0,0,1,60.6,113a4.56,4.56,0,0,1-.82-2.8V86H71.64V76H59.78V61.72H52.15A2.9,2.9,0,0,0,49,64L46.08,75.89,38.31,77.4v5.69A2.63,2.63,0,0,0,41,86h4.15v25.23a17.37,17.37,0,0,0,.94,5.89,11.84,11.84,0,0,0,7.22,7.36,17.11,17.11,0,0,0,6.14,1,25.42,25.42,0,0,0,7.3-1.06,20.42,20.42,0,0,0,6.36-3.18Z"/><path class="a66765c2-9d23-405e-b75b-0d771cc84466" d="M123.15,83a18.5,18.5,0,0,0-10.7-11,23.18,23.18,0,0,0-8.71-1.57A37.74,37.74,0,0,0,91.13,72.5a32.47,32.47,0,0,0-10.7,6.35l2.88,5a5.8,5.8,0,0,0,1.82,2,4.74,4.74,0,0,0,2.8.8A7.4,7.4,0,0,0,91.11,86c.89-.41,1.81-.87,2.75-1.38a20,20,0,0,1,3.21-1.39,14.52,14.52,0,0,1,4.62-.61,7,7,0,0,1,5.47,2.1c1.28,1.39,1.92,3.67,1.92,6.81v2.28a58.42,58.42,0,0,0-15.15,1.65,31.81,31.81,0,0,0-9.55,4.09,14.46,14.46,0,0,0-5,5.44A13.35,13.35,0,0,0,78,110.79a16.68,16.68,0,0,0,1.13,6.36,12.42,12.42,0,0,0,3.21,4.61,13.69,13.69,0,0,0,5.06,2.81,21.51,21.51,0,0,0,6.62,1,26,26,0,0,0,5-.44,18.82,18.82,0,0,0,4.21-1.34,23.66,23.66,0,0,0,3.83-2.18q1.85-1.29,3.85-3l1.13,2.93a4.69,4.69,0,0,0,1.92,2.57,7.49,7.49,0,0,0,3.42.61h7.29V91.43A23.82,23.82,0,0,0,123.15,83Zm-14.07,27.42a16.35,16.35,0,0,1-4.67,3.49A12.62,12.62,0,0,1,99,115a7.17,7.17,0,0,1-4.37-1.12c-1-.74-1.49-2-1.49-3.86a5,5,0,0,1,.7-2.58,5.85,5.85,0,0,1,2.49-2.13,18.84,18.84,0,0,1,4.88-1.55,40.37,40.37,0,0,1,7.85-.62Z"/><path class="a66765c2-9d23-405e-b75b-0d771cc84466" d="M171.3,61.38a15.6,15.6,0,0,0-9.28,3,30.56,30.56,0,0,0-7.67,8.33l-1-5.81a12.18,12.18,0,0,0-.57-2,3.17,3.17,0,0,0-1-1.34,4.05,4.05,0,0,0-1.56-.75,9.33,9.33,0,0,0-2.3-.24h-11V124.7h18.57V86.6q4.18-7.79,11.5-7.79a18.49,18.49,0,0,1,3.47.27,12.73,12.73,0,0,0,2.4.27,3.26,3.26,0,0,0,1.92-.51,2.67,2.67,0,0,0,1-1.77l2.39-13.65A10.67,10.67,0,0,0,171.3,61.38Z"/><path class="a66765c2-9d23-405e-b75b-0d771cc84466" d="M227.12,111.68l-1.35-2.11a5.47,5.47,0,0,0-1.2-1.4,2.45,2.45,0,0,0-1.54-.45,2.79,2.79,0,0,0-1.2.24c-.34.16-.71.34-1.09.55a7.65,7.65,0,0,1-1.37.55,6.85,6.85,0,0,1-2,.24,4.05,4.05,0,0,1-3.45-1.61,6.62,6.62,0,0,1-1.2-4.07V68.35H230V53.84H212.76V33.09H201.67q-3.84,0-4.66,3.29L192.84,53.7l-11.3,2.19v8.29a3.82,3.82,0,0,0,4,4.17h6V105a25.37,25.37,0,0,0,1.37,8.56,17.28,17.28,0,0,0,10.51,10.72,25.09,25.09,0,0,0,8.94,1.47A36.6,36.6,0,0,0,223,124.26a30.06,30.06,0,0,0,4.16-1.59,28,28,0,0,0,5.09-3Z"/><path class="a66765c2-9d23-405e-b75b-0d771cc84466" d="M312.09,12.47V79a34.55,34.55,0,0,1-1.5,10.59,22,22,0,0,1-4.35,7.9,19,19,0,0,1-7,5,26,26,0,0,1-18.72,0,18.66,18.66,0,0,1-7-5,22.49,22.49,0,0,1-4.36-7.94,34.46,34.46,0,0,1-1.5-10.59V12.47h-26V79a52.42,52.42,0,0,0,3.31,19,42,42,0,0,0,9.55,14.86,43.26,43.26,0,0,0,15.18,9.71,60.18,60.18,0,0,0,40.28,0,43.26,43.26,0,0,0,15.18-9.71,42.49,42.49,0,0,0,9.59-14.86,52,52,0,0,0,3.35-19V12.47Z"/><path class="a66765c2-9d23-405e-b75b-0d771cc84466" d="M447.33,24.65a33.62,33.62,0,0,0-9-12.92,43.49,43.49,0,0,0-15.58-8.6Q413.26,0,400.09,0h-44V124.7H385V83h15.06a71.63,71.63,0,0,0,22.38-3.12,43.08,43.08,0,0,0,15.62-8.69,34.39,34.39,0,0,0,9.16-13.35,47.46,47.46,0,0,0,3-17.12A43.85,43.85,0,0,0,447.33,24.65Zm-31,31.16q-5,5.39-16.26,5.39H385V21.66h15.06A29.28,29.28,0,0,1,409.55,23a17.53,17.53,0,0,1,6.59,3.89A15.77,15.77,0,0,1,420,33a22.39,22.39,0,0,1,1.29,7.78Q421.32,50.42,416.35,55.81Z"/></g></g></svg>