<svg xmlns="http://www.w3.org/2000/svg" viewBox="0 0 450.74 126.94"><defs><style>.\31 86f74ba-a600-442c-9ce3-25fc86a2fe6d{fill:none;stroke:#000;}.\31 86f74ba-a600-442c-9ce3-25fc86a2fe6d,.\34 eb6b4d7-a5aa-47a3-8417-e80f7203ceb8{stroke-miterlimit:10;}.\35 6ddf48e-abbd-401f-a620-f64b550866a0{fill:#f5d6d6;}.\37 4a7433f-337c-44e0-b63c-165554f1fee2{fill:#ebadad;}.\33 0d39c11-e482-40b6-bf63-01cc396b9c26{fill:#e08585;}.\33 32959c3-c234-4192-8341-d1909450f470{fill:#d65c5c;}.\37 4ea929e-701e-4277-b1fe-9a9ff5463197{fill:#c33;}.\34 eb6b4d7-a5aa-47a3-8417-e80f7203ceb8{fill:#992626;stroke:#c33;}.e91f3284-dd87-4469-aa07-e472779fdc0c{fill:#661a1a;}</style></defs><title>Asset 1</title><g id="e0c88f52-48c8-4887-a3a8-053e333545cd" data-name="Layer 2"><g id="2bd1a4e5-0602-4ced-a307-494e6e378ec3" data-name="Layer 1"><rect x="227.12" y="54.34" width="2.89" height="14.51"/><path d="M227.12,112.18l5.09,8a28,28,0,0,1-5.09,3Z"/><path class="186f74ba-a600-442c-9ce3-25fc86a2fe6d" d="M312.09,13h26V79.45a52,52,0,0,1-3.35,19,42.49,42.49,0,0,1-9.59,14.86A43.26,43.26,0,0,1,310,123a60.18,60.18,0,0,1-40.28,0,43.26,43.26,0,0,1-15.18-9.71A42,42,0,0,1,245,98.4a52.42,52.42,0,0,1-3.31-19V13h26v66.4A34.46,34.46,0,0,0,269.22,90a22.49,22.49,0,0,0,4.36,7.94,18.66,18.66,0,0,0,7,5,26,26,0,0,0,18.72,0,19,19,0,0,0,7-5,22,22,0,0,0,4.35-7.9,34.55,34.55,0,0,0,1.5-10.59Z"/><path class="186f74ba-a600-442c-9ce3-25fc86a2fe6d" d="M450.24,41.24a47.46,47.46,0,0,1-3,17.12,34.39,34.39,0,0,1-9.16,13.35,43.08,43.08,0,0,1-15.62,8.69,71.63,71.63,0,0,1-22.38,3.12H385V125.2H356.1V.5h44q13.19,0,22.64,3.13a43.49,43.49,0,0,1,15.58,8.6,33.62,33.62,0,0,1,9,12.92A43.85,43.85,0,0,1,450.24,41.24Z"/><path class="56ddf48e-abbd-401f-a620-f64b550866a0" d="M33.7,106.16a10.15,10.15,0,0,0-2.34-3.27,13.86,13.86,0,0,0-3.29-2.27A34.73,34.73,0,0,0,24.3,99c-1.28-.45-2.54-.87-3.76-1.24a32.75,32.75,0,0,1-3.3-1.17,8.16,8.16,0,0,1-2.33-1.44,2.65,2.65,0,0,1-.88-2,3.12,3.12,0,0,1,1.35-2.68,6.62,6.62,0,0,1,3.87-1,11.1,11.1,0,0,1,3.13.41,23.2,23.2,0,0,1,2.46.87l2,.88a4.76,4.76,0,0,0,1.88.41,3,3,0,0,0,1.48-.34,3.51,3.51,0,0,0,1.09-1.16l3-4.66a17.49,17.49,0,0,0-2.87-2.29,19.56,19.56,0,0,0-3.6-1.82,24.27,24.27,0,0,0-4.21-1.2A25.26,25.26,0,0,0,19,80.14a23.62,23.62,0,0,0-7.71,1.14,15.85,15.85,0,0,0-5.47,3.06,12.4,12.4,0,0,0-3.28,4.47,14.5,14.5,0,0,0-.19,10.55A11.34,11.34,0,0,0,4.7,103,12.89,12.89,0,0,0,8,105.41a30.82,30.82,0,0,0,3.79,1.65c1.28.46,2.54.86,3.78,1.22a27.62,27.62,0,0,1,3.32,1.16,7.94,7.94,0,0,1,2.36,1.47,2.91,2.91,0,0,1,.89,2.18,3.48,3.48,0,0,1-1.24,2.66,4.58,4.58,0,0,1-1.71.87,8.94,8.94,0,0,1-2.61.32,11,11,0,0,1-3.62-.51,16.36,16.36,0,0,1-2.5-1.11l-2-1.11a4.09,4.09,0,0,0-2.08-.52,3.79,3.79,0,0,0-2,.49,4.48,4.48,0,0,0-1.32,1.35L0,120.41a16.7,16.7,0,0,0,3.08,2.16A23.23,23.23,0,0,0,7,124.3a31.79,31.79,0,0,0,4.39,1.16,24.84,24.84,0,0,0,4.54.43,26.48,26.48,0,0,0,8-1.11,17.06,17.06,0,0,0,5.86-3.13,12.86,12.86,0,0,0,3.57-4.79,15.2,15.2,0,0,0,1.2-6.08A11.17,11.17,0,0,0,33.7,106.16Z"/><path class="74a7433f-337c-44e0-b63c-165554f1fee2" d="M68.72,114.8a3.75,3.75,0,0,0-.82-1,1.67,1.67,0,0,0-1.06-.31,2.12,2.12,0,0,0-.83.16l-.75.38a5.56,5.56,0,0,1-.94.38,4.68,4.68,0,0,1-1.34.16,2.8,2.8,0,0,1-2.38-1.1,4.56,4.56,0,0,1-.82-2.8V86.46H71.64v-10H59.78V62.22H52.15A2.9,2.9,0,0,0,49,64.48L46.08,76.39,38.31,77.9v5.69A2.63,2.63,0,0,0,41,86.46h4.15v25.23a17.37,17.37,0,0,0,.94,5.89,11.84,11.84,0,0,0,7.22,7.36,17.11,17.11,0,0,0,6.14,1,25.42,25.42,0,0,0,7.3-1.06,20.42,20.42,0,0,0,6.36-3.18Z"/><path class="30d39c11-e482-40b6-bf63-01cc396b9c26" d="M123.15,83.51a18.5,18.5,0,0,0-10.7-11,23.18,23.18,0,0,0-8.71-1.57A37.74,37.74,0,0,0,91.13,73a32.47,32.47,0,0,0-10.7,6.35l2.88,5a5.8,5.8,0,0,0,1.82,2,4.74,4.74,0,0,0,2.8.8,7.4,7.4,0,0,0,3.18-.62c.89-.41,1.81-.87,2.75-1.38a20,20,0,0,1,3.21-1.39,14.52,14.52,0,0,1,4.62-.61,7,7,0,0,1,5.47,2.1c1.28,1.39,1.92,3.67,1.92,6.81v2.28a58.42,58.42,0,0,0-15.15,1.65A31.81,31.81,0,0,0,84.38,100a14.46,14.46,0,0,0-5,5.44A13.35,13.35,0,0,0,78,111.29a16.68,16.68,0,0,0,1.13,6.36,12.42,12.42,0,0,0,3.21,4.61,13.69,13.69,0,0,0,5.06,2.81A21.51,21.51,0,0,0,94,126a26,26,0,0,0,5-.44,18.82,18.82,0,0,0,4.21-1.34,23.66,23.66,0,0,0,3.83-2.18q1.85-1.29,3.85-3L112,122a4.69,4.69,0,0,0,1.92,2.57,7.49,7.49,0,0,0,3.42.61h7.29V91.93A23.82,23.82,0,0,0,123.15,83.51Zm-14.07,27.42a16.35,16.35,0,0,1-4.67,3.49A12.62,12.62,0,0,1,99,115.5a7.17,7.17,0,0,1-4.37-1.12c-1-.74-1.49-2-1.49-3.86a5,5,0,0,1,.7-2.58,5.85,5.85,0,0,1,2.49-2.13,18.84,18.84,0,0,1,4.88-1.55,40.37,40.37,0,0,1,7.85-.62Z"/><path class="332959c3-c234-4192-8341-d1909450f470" d="M171.3,61.88a15.6,15.6,0,0,0-9.28,3,30.56,30.56,0,0,0-7.67,8.33l-1-5.81a12.18,12.18,0,0,0-.57-2,3.17,3.17,0,0,0-1-1.34,4.05,4.05,0,0,0-1.56-.75,9.33,9.33,0,0,0-2.3-.24h-11V125.2h18.57V87.1q4.18-7.79,11.5-7.79a18.49,18.49,0,0,1,3.47.27,12.73,12.73,0,0,0,2.4.27,3.26,3.26,0,0,0,1.92-.51,2.67,2.67,0,0,0,1-1.77l2.39-13.65A10.67,10.67,0,0,0,171.3,61.88Z"/><path class="74ea929e-701e-4277-b1fe-9a9ff5463197" d="M227.12,112.18l-1.35-2.11a5.47,5.47,0,0,0-1.2-1.4,2.45,2.45,0,0,0-1.54-.45,2.79,2.79,0,0,0-1.2.24c-.34.16-.71.34-1.09.55a7.65,7.65,0,0,1-1.37.55,6.85,6.85,0,0,1-2,.24,4.05,4.05,0,0,1-3.45-1.61,6.62,6.62,0,0,1-1.2-4.07V68.85H230V54.34H212.76V33.59H201.67q-3.84,0-4.66,3.29L192.84,54.2l-11.3,2.19v8.29a3.82,3.82,0,0,0,4,4.17h6v36.7a25.37,25.37,0,0,0,1.37,8.56,17.28,17.28,0,0,0,10.51,10.72,25.09,25.09,0,0,0,8.94,1.47A36.6,36.6,0,0,0,223,124.76a30.06,30.06,0,0,0,4.16-1.59,28,28,0,0,0,5.09-3Z"/><path class="4eb6b4d7-a5aa-47a3-8417-e80f7203ceb8" d="M312.09,13V79.45A34.55,34.55,0,0,1,310.59,90a22,22,0,0,1-4.35,7.9,19,19,0,0,1-7,5,26,26,0,0,1-18.72,0,18.66,18.66,0,0,1-7-5A22.49,22.49,0,0,1,269.22,90a34.46,34.46,0,0,1-1.5-10.59V13h-26V79.45a52.42,52.42,0,0,0,3.31,19,42,42,0,0,0,9.55,14.86A43.26,43.26,0,0,0,269.73,123,60.18,60.18,0,0,0,310,123a43.26,43.26,0,0,0,15.18-9.71,42.49,42.49,0,0,0,9.59-14.86,52,52,0,0,0,3.35-19V13Z"/><path class="e91f3284-dd87-4469-aa07-e472779fdc0c" d="M447.33,25.15a33.62,33.62,0,0,0-9-12.92,43.49,43.49,0,0,0-15.58-8.6Q413.26.51,400.09.5h-44V125.2H385V83.52h15.06a71.63,71.63,0,0,0,22.38-3.12,43.08,43.08,0,0,0,15.62-8.69,34.39,34.39,0,0,0,9.16-13.35,47.46,47.46,0,0,0,3-17.12A43.85,43.85,0,0,0,447.33,25.15Zm-31,31.16q-5,5.39-16.26,5.39H385V22.16h15.06a29.28,29.28,0,0,1,9.46,1.37,17.53,17.53,0,0,1,6.59,3.89,15.77,15.77,0,0,1,3.89,6,22.39,22.39,0,0,1,1.29,7.78Q421.32,50.92,416.35,56.31Z"/></g></g></svg>