<svg xmlns="http://www.w3.org/2000/svg" viewBox="0 0 359.16 132.92"><defs><style>.\38 0c788d1-0546-40d1-8f52-6442781591d8{fill:#fff;}</style></defs><title>Asset 2</title><g id="565e268d-653d-4124-9912-b7c988729947" data-name="Layer 2"><g id="8504e7e2-709b-4ce0-bc04-e21819b2598a" data-name="Layer 2"><path class="80c788d1-0546-40d1-8f52-6442781591d8" d="M13,123.06a11,11,0,0,1,1.54-5.51A12.44,12.44,0,0,1,19.28,113a3.12,3.12,0,0,1-.53.1,5.51,5.51,0,0,1-.72,0,4.25,4.25,0,0,1-2.54-.73,4.54,4.54,0,0,1-1.55-2,7,7,0,0,1-.52-2.75,10,10,0,0,1,1.07-4.32,12,12,0,0,1,3.3-4.08,14.26,14.26,0,0,1,4.48-2.43A18.93,18.93,0,0,1,28.46,96a14.31,14.31,0,0,1,8.3,2.21,11.29,11.29,0,0,1,4.42,6.09,16.88,16.88,0,0,1,.73,5.1,25.05,25.05,0,0,1-.29,3.71,13.05,13.05,0,0,1,6,4.81,17.71,17.71,0,0,0-6.25-3.59,22.65,22.65,0,0,1-7.71,12.87,18.58,18.58,0,0,1-11.89,4.15,9.48,9.48,0,0,1-6.27-2.05,7,7,0,0,1-1.87-2.59A9.09,9.09,0,0,1,13,123.06Zm15.58-10.84q-.61,2-1.34,4-1.08,2.86-2,5.22-.56,1.44-1,2.47a3.57,3.57,0,0,1-2.91,2.47l-.37,0a4.12,4.12,0,0,1-3.12-1.61q.17-.46.71-1.76.68-1.68,1.66-4.2t1.9-5.3a12.25,12.25,0,0,0-3.25,2.15,10.77,10.77,0,0,0-2.47,3.41,8.49,8.49,0,0,0-.81,3.43,5.93,5.93,0,0,0,1.88,4.83,6.48,6.48,0,0,0,4.35,1.39,11,11,0,0,0,4.63-1.12A14.47,14.47,0,0,0,31,124.2,17.31,17.31,0,0,0,34,119.34,21.37,21.37,0,0,0,35.61,113,31.17,31.17,0,0,0,28.56,112.22Zm-5.79-.66q.54-1.71.93-3.3a16.63,16.63,0,0,0,.59-3.88v-.12q0-1.59-1.12-1.59a5.77,5.77,0,0,1,2.93-.85,3.37,3.37,0,0,1,2.32.72,3.64,3.64,0,0,1,1.1,1.72,6.64,6.64,0,0,1,.29,1.86A17.4,17.4,0,0,1,29,110.6l0,.15h.24a31.62,31.62,0,0,1,6.45.71l0-.81a23.36,23.36,0,0,0-.32-3.88,12.9,12.9,0,0,0-1.29-4.07,7.51,7.51,0,0,0-2.66-2.9A8.06,8.06,0,0,0,27,98.71a8.44,8.44,0,0,0-3.38.66A9,9,0,0,0,21,101.13a8.63,8.63,0,0,0-2.69,6.15,6.58,6.58,0,0,0,.48,2.65,7.05,7.05,0,0,0,1,1.7,4.26,4.26,0,0,0,.71.73.07.07,0,0,0,0,0A13.4,13.4,0,0,1,22.77,111.56Z"/><path class="80c788d1-0546-40d1-8f52-6442781591d8" d="M49.75,130.43a7.3,7.3,0,0,1-2.93.73h-.07A3.55,3.55,0,0,1,44,130.08a4.55,4.55,0,0,1-1-3.21,37.23,37.23,0,0,1,.9-6.85,48.27,48.27,0,0,1,2.54-8.51,3.82,3.82,0,0,1,2.91-1.44,7.81,7.81,0,0,1,.85,0,4.48,4.48,0,0,1,2.56.71,20.14,20.14,0,0,0-1.62,4.13q-.94,3-1.7,6.32A24.31,24.31,0,0,0,48.7,126v.15c0,.52.08.78.24.78q.24-.88.56-2.15.39-1.63.94-3.61t1.27-4a26.31,26.31,0,0,1,1.71-3.76,9.67,9.67,0,0,1,2.21-2.79,4.2,4.2,0,0,1,2.76-1,3.12,3.12,0,0,1,1.89.6,2.36,2.36,0,0,1,.82,2,6.23,6.23,0,0,1-.29,1.65q-.29,1-.63,2t-.63,2a6.4,6.4,0,0,0-.27,1.7q0,1.05.42,1t1.16-.77a14.07,14.07,0,0,0,1.28-1.65,7.92,7.92,0,0,0,.76-1.32,5.11,5.11,0,0,1-.63,2.1,7.89,7.89,0,0,1-1.72,2.31A3.9,3.9,0,0,1,58,122.47h-.1a3.73,3.73,0,0,1-2.22-.66,2.4,2.4,0,0,1-1-2.12,13.34,13.34,0,0,1,.5-3A15.74,15.74,0,0,1,57,112.58q-.9,0-1.79,1.34a18,18,0,0,0-1.66,3.27q-.77,1.93-1.44,4.13t-1.18,4.24q-.51,2-.85,3.48Z"/><path class="80c788d1-0546-40d1-8f52-6442781591d8" d="M75.21,114.73a6.61,6.61,0,0,1-.83,3.13,7.21,7.21,0,0,1-1.86,2.27,4.85,4.85,0,0,1-3.17,1.17,2.58,2.58,0,0,1-1.93-.88,21.69,21.69,0,0,0-.51,3.54,6.18,6.18,0,0,0,.34,2.29,1.81,1.81,0,0,0,1.64,1.25,5,5,0,0,0,2.93-1,11,11,0,0,0,2.44-2.34A21.37,21.37,0,0,0,76,121.44,28.23,28.23,0,0,0,78,117a15.59,15.59,0,0,1-1.42,4.91,26,26,0,0,1-1.78,3.37,16.65,16.65,0,0,1-3.39,4,7.41,7.41,0,0,1-4.64,1.9h-.12a5.64,5.64,0,0,1-4.15-1.78,5.83,5.83,0,0,1-1.16-2,9,9,0,0,1-.43-2.94,25.56,25.56,0,0,1,.85-5.52,24.34,24.34,0,0,1,2-5.1,8,8,0,0,1,1.76-2.25A5.79,5.79,0,0,1,69.62,110a6.94,6.94,0,0,1,3.44.9,4.74,4.74,0,0,1,1.55,1.54A4.18,4.18,0,0,1,75.21,114.73Zm-3.42-1.46v-.1q0-1-.44-1a1.33,1.33,0,0,0-.94.45,5.19,5.19,0,0,0-.87,1.23,17.62,17.62,0,0,0-1.2,3q-.42,1.34-.73,2.69a1.51,1.51,0,0,0,.93.39,2,2,0,0,0,1.59-1.07,7.78,7.78,0,0,0,1.12-2.37A13.57,13.57,0,0,0,71.79,113.27Z"/><path class="80c788d1-0546-40d1-8f52-6442781591d8" d="M91.23,125.84a2.91,2.91,0,0,0,.1.76.46.46,0,0,0,.49.37q.44,0,1.06-.68a14.38,14.38,0,0,0,1.33-1.76,45.06,45.06,0,0,0,2.29-4.16Q97.57,118.15,98,117a13.94,13.94,0,0,1-.85,3.06,39.27,39.27,0,0,1-2.29,5.21,23.7,23.7,0,0,1-1.79,2.92,10.82,10.82,0,0,1-2,2.16,3.42,3.42,0,0,1-2.12.83,3.37,3.37,0,0,1-2.32-.72,3.64,3.64,0,0,1-1.1-1.72,6.63,6.63,0,0,1-.29-1.86,22.12,22.12,0,0,1,.34-3.59,25.45,25.45,0,0,1-1.51,3.32A13,13,0,0,1,81.58,130a3.58,3.58,0,0,1-2.51,1.17,3.7,3.7,0,0,1-1.61-.32,3.19,3.19,0,0,1-1.07-.81,4.2,4.2,0,0,1-.83-1.65,6.52,6.52,0,0,1-.22-1.53,22.88,22.88,0,0,1,.21-2.56q.21-1.68.65-3.74a35,35,0,0,1,1.51-5.18,13.48,13.48,0,0,1,2-3.64,5.43,5.43,0,0,1,1.38-1.27,3,3,0,0,1,1.6-.46,6.33,6.33,0,0,1,3,.77,8.92,8.92,0,0,1,2.51,2c0-.06,0-.17.1-.33s.11-.32.17-.5A2.41,2.41,0,0,1,90,110.43a7.22,7.22,0,0,1,2.51-.42,4.91,4.91,0,0,1,1.44.2,2.08,2.08,0,0,1,1,.59q-.42,1.15-.93,2.76-.66,2-1.32,4.35t-1.1,4.64A18.11,18.11,0,0,0,91.23,125.84Zm-3.44-11.65q-1.15-1.66-2.15-1.66-.83,0-1.54,1.44a19.56,19.56,0,0,0-1.49,4.32q-.46,1.78-.76,3.47a35.94,35.94,0,0,0-.51,4,3.56,3.56,0,0,0,.1.84.45.45,0,0,0,.46.4q.46,0,1.1-1a18.21,18.21,0,0,0,1.32-2.48q1-2.2,1.86-4.59Q87.37,115.59,87.78,114.19Z"/><path class="80c788d1-0546-40d1-8f52-6442781591d8" d="M108.49,114.9a10.17,10.17,0,0,0-2.44,3.78,64.08,64.08,0,0,0-2.31,6.13q-1.06,3.3-1.65,5.62a7.46,7.46,0,0,1-3,.73,3.58,3.58,0,0,1-2.77-1.1,4.56,4.56,0,0,1-1-3.2,37.23,37.23,0,0,1,.9-6.85,49.66,49.66,0,0,1,2.51-8.51q.83-1.44,3.78-1.49a4.37,4.37,0,0,1,2.54.71,23,23,0,0,0-1.56,4q-1,3-1.79,6.3a23.05,23.05,0,0,0-.82,5q0,1,.37,1,.37-1.34,1-3.44t1.58-4.44a33.51,33.51,0,0,1,2.12-4.42,13.67,13.67,0,0,1,2.69-3.41,4.78,4.78,0,0,1,3.25-1.33,3,3,0,0,1,1.93.61,2.2,2.2,0,0,1,.76,1.86,23.08,23.08,0,0,1-1.2,4.69q-2.08,6.79-2.08,8.74,0,1.15.54,1.15.39-1.34,1-3.44.54-1.81,1.29-3.76a38,38,0,0,1,2.4-5.1,14.09,14.09,0,0,1,2.69-3.41,4.74,4.74,0,0,1,3.24-1.33,3.15,3.15,0,0,1,2,.68,2.22,2.22,0,0,1,.68,1.78,14.91,14.91,0,0,1-.83,3.37,37.76,37.76,0,0,0-2,10.08,2.91,2.91,0,0,0,.1.76.46.46,0,0,0,.49.37q.61,0,1.54-1.22a24.84,24.84,0,0,0,1.88-2.93q1-1.71,1.71-3.32t1.1-2.51a9.31,9.31,0,0,1-.5,2.05q-.5,1.59-1.38,3.63a33.15,33.15,0,0,1-2,4,16.46,16.46,0,0,1-2.48,3.23,3.85,3.85,0,0,1-2.69,1.31,3.37,3.37,0,0,1-2.32-.72,3.64,3.64,0,0,1-1.1-1.72,6.63,6.63,0,0,1-.29-1.86,25.64,25.64,0,0,1,.78-6,40.21,40.21,0,0,1,1.9-5.93,10.39,10.39,0,0,0-2.42,3.78q-.56,1.27-1.1,2.61-.64,1.68-1.22,3.52-1.08,3.3-1.66,5.62a7.3,7.3,0,0,1-2.93.73A3.59,3.59,0,0,1,107,130a4.56,4.56,0,0,1-1-3.19,28,28,0,0,1,.74-6A37.6,37.6,0,0,1,108.49,114.9Z"/><path class="80c788d1-0546-40d1-8f52-6442781591d8" d="M138.91,123.06a11,11,0,0,1,1.54-5.51,12.44,12.44,0,0,1,4.76-4.55,3.12,3.12,0,0,1-.53.1,5.51,5.51,0,0,1-.72,0,4.25,4.25,0,0,1-2.54-.73,4.54,4.54,0,0,1-1.55-2,7,7,0,0,1-.52-2.75,10,10,0,0,1,1.07-4.32,12,12,0,0,1,3.3-4.08,14.26,14.26,0,0,1,4.48-2.43,18.93,18.93,0,0,1,6.19-.92,14.31,14.31,0,0,1,8.3,2.21,11.29,11.29,0,0,1,4.42,6.09,16.88,16.88,0,0,1,.73,5.1,25.05,25.05,0,0,1-.29,3.71,13.05,13.05,0,0,1,6,4.81,17.71,17.71,0,0,0-6.25-3.59,22.65,22.65,0,0,1-7.71,12.87,18.58,18.58,0,0,1-11.89,4.15,9.48,9.48,0,0,1-6.27-2.05,7,7,0,0,1-1.87-2.59A9.09,9.09,0,0,1,138.91,123.06Zm15.58-10.84q-.61,2-1.34,4-1.08,2.86-2,5.22-.56,1.44-1,2.47a3.57,3.57,0,0,1-2.91,2.47l-.37,0a4.12,4.12,0,0,1-3.12-1.61q.17-.46.71-1.76.68-1.68,1.66-4.2t1.9-5.3a12.25,12.25,0,0,0-3.25,2.15,10.77,10.77,0,0,0-2.47,3.41,8.49,8.49,0,0,0-.81,3.43,5.93,5.93,0,0,0,1.88,4.83,6.48,6.48,0,0,0,4.35,1.39,11,11,0,0,0,4.63-1.12,14.47,14.47,0,0,0,4.53-3.39,17.31,17.31,0,0,0,3.05-4.86,21.37,21.37,0,0,0,1.56-6.35A31.17,31.17,0,0,0,154.48,112.22Zm-5.79-.66q.54-1.71.93-3.3a16.63,16.63,0,0,0,.59-3.88v-.12q0-1.59-1.12-1.59a5.77,5.77,0,0,1,2.93-.85,3.37,3.37,0,0,1,2.32.72,3.64,3.64,0,0,1,1.1,1.72,6.64,6.64,0,0,1,.29,1.86,17.4,17.4,0,0,1-.76,4.49l0,.15h.24a31.62,31.62,0,0,1,6.45.71l0-.81a23.36,23.36,0,0,0-.32-3.88,12.9,12.9,0,0,0-1.29-4.07,7.51,7.51,0,0,0-2.66-2.9A8.06,8.06,0,0,0,153,98.71a8.44,8.44,0,0,0-3.38.66,9,9,0,0,0-2.67,1.76,8.63,8.63,0,0,0-2.69,6.15,6.58,6.58,0,0,0,.48,2.65,7.05,7.05,0,0,0,1,1.7,4.26,4.26,0,0,0,.71.73.07.07,0,0,0,0,0A13.4,13.4,0,0,1,148.7,111.56Z"/><path class="80c788d1-0546-40d1-8f52-6442781591d8" d="M175.68,130.43a7.3,7.3,0,0,1-2.93.73h-.07a3.55,3.55,0,0,1-2.72-1.09,4.55,4.55,0,0,1-1-3.21,37.23,37.23,0,0,1,.9-6.85,48.27,48.27,0,0,1,2.54-8.51,3.82,3.82,0,0,1,2.91-1.44,7.81,7.81,0,0,1,.85,0,4.48,4.48,0,0,1,2.56.71,20.14,20.14,0,0,0-1.62,4.13q-.94,3-1.7,6.32a24.31,24.31,0,0,0-.76,4.86v.15c0,.52.08.78.24.78q.24-.88.56-2.15.39-1.63.94-3.61t1.27-4a26.31,26.31,0,0,1,1.71-3.76,9.67,9.67,0,0,1,2.21-2.79,4.2,4.2,0,0,1,2.76-1,3.12,3.12,0,0,1,1.89.6,2.36,2.36,0,0,1,.82,2,6.23,6.23,0,0,1-.29,1.65q-.29,1-.63,2t-.63,2a6.4,6.4,0,0,0-.27,1.7q0,1.05.42,1t1.16-.77a14.07,14.07,0,0,0,1.28-1.65,7.92,7.92,0,0,0,.76-1.32,5.11,5.11,0,0,1-.63,2.1,7.89,7.89,0,0,1-1.72,2.31,3.9,3.9,0,0,1-2.53,1.09h-.1a3.73,3.73,0,0,1-2.22-.66,2.4,2.4,0,0,1-1-2.12,13.34,13.34,0,0,1,.5-3,15.74,15.74,0,0,1,1.79-4.15q-.9,0-1.79,1.34a18,18,0,0,0-1.66,3.27q-.77,1.93-1.44,4.13t-1.18,4.24q-.51,2-.85,3.48Z"/><path class="80c788d1-0546-40d1-8f52-6442781591d8" d="M201.14,114.73a6.61,6.61,0,0,1-.83,3.13,7.21,7.21,0,0,1-1.86,2.27,4.85,4.85,0,0,1-3.17,1.17,2.58,2.58,0,0,1-1.93-.88,21.69,21.69,0,0,0-.51,3.54,6.18,6.18,0,0,0,.34,2.29,1.81,1.81,0,0,0,1.64,1.25,5,5,0,0,0,2.93-1,11,11,0,0,0,2.44-2.34,21.37,21.37,0,0,0,1.78-2.73,28.23,28.23,0,0,0,2-4.47,15.59,15.59,0,0,1-1.42,4.91,26,26,0,0,1-1.78,3.37,16.65,16.65,0,0,1-3.39,4,7.41,7.41,0,0,1-4.64,1.9h-.12a5.64,5.64,0,0,1-4.15-1.78,5.83,5.83,0,0,1-1.16-2,9,9,0,0,1-.43-2.94,25.56,25.56,0,0,1,.85-5.52,24.34,24.34,0,0,1,2-5.1,8,8,0,0,1,1.76-2.25,5.79,5.79,0,0,1,4.13-1.51,6.94,6.94,0,0,1,3.44.9,4.74,4.74,0,0,1,1.55,1.54A4.18,4.18,0,0,1,201.14,114.73Zm-3.42-1.46v-.1q0-1-.44-1a1.33,1.33,0,0,0-.94.45,5.19,5.19,0,0,0-.87,1.23,17.62,17.62,0,0,0-1.2,3q-.42,1.34-.73,2.69a1.51,1.51,0,0,0,.93.39,2,2,0,0,0,1.59-1.07,7.78,7.78,0,0,0,1.12-2.37A13.57,13.57,0,0,0,197.72,113.27Z"/><path class="80c788d1-0546-40d1-8f52-6442781591d8" d="M212.08,112.56a3.79,3.79,0,0,1-.43,1.81q-.43.81-1,.81a3.34,3.34,0,0,0,.34-1.51,2.18,2.18,0,0,0-.28-1.09,1,1,0,0,0-1-.5,1.26,1.26,0,0,0-1,.45,2.11,2.11,0,0,0-.42,1.45,12.21,12.21,0,0,0,.34,2.93q.34,1.39.76,2.71a15.23,15.23,0,0,1,7.45-2.64,22.33,22.33,0,0,0-7.15,3.56q.32,1.05.59,2.12a12.13,12.13,0,0,1,.29,2.69,7.8,7.8,0,0,1-1.9,5.51,6,6,0,0,1-4.57,2.06,3,3,0,0,1-3.15-3.2q0-3.32,3.42-6.64c-.08-.29-.17-.59-.27-.88q-.46-1.44-.83-2.94a13,13,0,0,1-.37-3.09,7.22,7.22,0,0,1,.84-3.7,5.37,5.37,0,0,1,2.12-2.1,5.46,5.46,0,0,1,2.55-.67,4.3,4.3,0,0,1,2.51.75A2.42,2.42,0,0,1,212.08,112.56Zm-8.47,18.16q.76,0,1.21-1.12a5.76,5.76,0,0,0,.45-2.15,11.5,11.5,0,0,0-.44-3.12,8.25,8.25,0,0,0-2,4.69Q202.85,130.72,203.61,130.72Z"/><path class="80c788d1-0546-40d1-8f52-6442781591d8" d="M223.58,112.56a3.79,3.79,0,0,1-.43,1.81q-.43.81-1,.81a3.34,3.34,0,0,0,.34-1.51,2.18,2.18,0,0,0-.28-1.09,1,1,0,0,0-1-.5,1.26,1.26,0,0,0-1,.45,2.11,2.11,0,0,0-.42,1.45,12.21,12.21,0,0,0,.34,2.93q.34,1.39.76,2.71a15.23,15.23,0,0,1,7.45-2.64,22.33,22.33,0,0,0-7.15,3.56q.32,1.05.59,2.12a12.13,12.13,0,0,1,.29,2.69,7.8,7.8,0,0,1-1.9,5.51,6,6,0,0,1-4.57,2.06,3,3,0,0,1-3.15-3.2q0-3.32,3.42-6.64c-.08-.29-.17-.59-.27-.88q-.46-1.44-.83-2.94a13,13,0,0,1-.37-3.09,7.22,7.22,0,0,1,.84-3.7,5.37,5.37,0,0,1,2.12-2.1,5.46,5.46,0,0,1,2.55-.67,4.3,4.3,0,0,1,2.51.75A2.42,2.42,0,0,1,223.58,112.56Zm-8.47,18.16q.76,0,1.21-1.12a5.76,5.76,0,0,0,.45-2.15,11.5,11.5,0,0,0-.44-3.12,8.25,8.25,0,0,0-2,4.69Q214.35,130.72,215.1,130.72Z"/><path class="80c788d1-0546-40d1-8f52-6442781591d8" d="M249.28,100.72v0a2.78,2.78,0,0,0,.13-.42,2,2,0,0,0,.06-.49.65.65,0,0,0-.13-.42.61.61,0,0,0-.5-.17,4.92,4.92,0,0,0-3.05,1.16,12.31,12.31,0,0,0-2.67,2.94,18,18,0,0,0-1.9,3.74,10.29,10.29,0,0,0-.72,3.52,7.47,7.47,0,0,0,.61,3,5.38,5.38,0,0,0,2,2.33l-.12,0a8.2,8.2,0,0,1-1,.44,4.31,4.31,0,0,1-1.35.17,3.44,3.44,0,0,1-2.22-.68,4.15,4.15,0,0,1-1.27-1.7,5.18,5.18,0,0,1-.42-2,12.55,12.55,0,0,1,1.51-5.87,20,20,0,0,1,4-5.22,21,21,0,0,1,5.32-3.73,12.76,12.76,0,0,1,5.62-1.4,2.93,2.93,0,0,1,1.89.51,2.14,2.14,0,0,1,.77,1.29,4.78,4.78,0,0,1,.1,1,5.59,5.59,0,0,1,0,.73,11.56,11.56,0,0,1-.42,1.76c-.07.2-.15.42-.24.68q-.86,2.59-2.33,7.34t-2.73,9.57A31.72,31.72,0,0,0,248.8,126v.1q0,.86.37.85.37-1.34,1.2-4t2-6q1.21-3.33,2.75-6.76a55.7,55.7,0,0,1,3.32-6.33,22,22,0,0,1,3.76-4.72,6,6,0,0,1,4.05-1.82,3,3,0,0,1,1.51.29,1.43,1.43,0,0,1,.65.73,2.58,2.58,0,0,1,.16.88,20.63,20.63,0,0,1-.65,4.61q-.65,2.73-1.57,5.81-1.42,5-2.5,9.55a32.9,32.9,0,0,0-1.09,6.62,2.91,2.91,0,0,0,.1.76.46.46,0,0,0,.49.37q.83,0,2.45-2a44.39,44.39,0,0,0,3.08-4.37,24.87,24.87,0,0,0,1.94-3.59,7.83,7.83,0,0,1-.62,2.05,36.66,36.66,0,0,1-1.7,3.63,40.22,40.22,0,0,1-2.41,4,17.66,17.66,0,0,1-2.78,3.24,4.33,4.33,0,0,1-2.82,1.29,3.41,3.41,0,0,1-2.32-.71,3.57,3.57,0,0,1-1.1-1.72,6.75,6.75,0,0,1-.29-1.87,52.53,52.53,0,0,1,1.39-11.11,123.12,123.12,0,0,1,3.27-12q-.76,0-3,4.58T253.91,119a92.34,92.34,0,0,0-3.53,11.25,7,7,0,0,1-1.82.7,7.38,7.38,0,0,1-1.62.23,3.48,3.48,0,0,1-2.71-1.1,4.59,4.59,0,0,1-1-3.2,39.16,39.16,0,0,1,1.07-8.23q1.07-4.86,2.44-9.56t2.39-7.9Z"/><path class="80c788d1-0546-40d1-8f52-6442781591d8" d="M273.28,131.16a5.26,5.26,0,0,1-3.34-1,6,6,0,0,1-1.9-2.58,8.65,8.65,0,0,1-.61-3.17,17.69,17.69,0,0,1,.62-4.58,35.77,35.77,0,0,1,1.5-4.46,3.26,3.26,0,0,1,2.12-1.27,5.64,5.64,0,0,1,2-3.39,5.82,5.82,0,0,1,3.63-1.12,4.25,4.25,0,0,1,3.76,2,10.31,10.31,0,0,1,1.32,5.7,21.05,21.05,0,0,1-.22,3,5.62,5.62,0,0,0,2.5-1,5,5,0,0,0,1.62-2.22,3.25,3.25,0,0,1-1.17,2.64A6.67,6.67,0,0,1,282,121a17.44,17.44,0,0,1-1.64,4.88,11.6,11.6,0,0,1-3,3.83A6.34,6.34,0,0,1,273.28,131.16Zm.66-12a16.88,16.88,0,0,0-.54,4.15,14.36,14.36,0,0,0,.11,1.55,4.89,4.89,0,0,0,.51,1.73,1.33,1.33,0,0,0,1.26.77,2.15,2.15,0,0,0,1.66-.93,8.71,8.71,0,0,0,1.32-2.39,17.78,17.78,0,0,0,.83-3.08A11.52,11.52,0,0,1,273.94,119.2Zm.29-5.25a3.46,3.46,0,0,1,1.64.63,14.76,14.76,0,0,0-1.42,2.88,6.54,6.54,0,0,0,4.74,2.76,24.43,24.43,0,0,0,.22-3.15,7.71,7.71,0,0,0-.61-3.12,2.17,2.17,0,0,0-2.15-1.39,2.87,2.87,0,0,0-1.28.28A3.14,3.14,0,0,0,274.24,113.95Z"/><path class="80c788d1-0546-40d1-8f52-6442781591d8" d="M289.57,125.84a2.91,2.91,0,0,0,.1.76.46.46,0,0,0,.49.37q.83,0,2.11-1.83a32.41,32.41,0,0,0,2.43-4.14,28.53,28.53,0,0,0,1.68-4,10,10,0,0,1-.45,2.1,38.17,38.17,0,0,1-1.26,3.61,28.61,28.61,0,0,1-1.94,4,14.58,14.58,0,0,1-2.5,3.22,4.19,4.19,0,0,1-2.91,1.29,3.41,3.41,0,0,1-2.34-.72,3.64,3.64,0,0,1-1.1-1.72,6.63,6.63,0,0,1-.29-1.86,25.79,25.79,0,0,1,.63-5.15q.63-3,1.46-6t1.51-5a9.51,9.51,0,0,1,3.66-.78,5,5,0,0,1,1.45.2,1.92,1.92,0,0,1,1,.59q-.66,1.83-1.51,4.61t-1.53,5.65A21.73,21.73,0,0,0,289.57,125.84Zm2.56-19a3.11,3.11,0,0,1-2.15-1.34,3.51,3.51,0,0,1-.63-2.08c0-.16,0-.33,0-.51a3.64,3.64,0,0,1,1.29-2.32,3.17,3.17,0,0,1,2.05-.73l.39,0a3.16,3.16,0,0,1,2.15,1.34,3.6,3.6,0,0,1,.63,2.08c0,.16,0,.33,0,.51a3.67,3.67,0,0,1-1.29,2.34,3.07,3.07,0,0,1-2,.71Z"/><path class="80c788d1-0546-40d1-8f52-6442781591d8" d="M308.2,121.35A42,42,0,0,1,301,131a6.15,6.15,0,0,1-3.66-.24,3.32,3.32,0,0,1-1.49-1,8,8,0,0,1-1.2-3.08,21.06,21.06,0,0,1-.37-4,39.07,39.07,0,0,1,.6-6.84,27.41,27.41,0,0,1,1.28-5.08,3.25,3.25,0,0,1,2.81-1,6.46,6.46,0,0,1,3.39.93A50.87,50.87,0,0,0,300,122.52q-.07,1.32-.07,2.42a11.75,11.75,0,0,0,.51,4.2,39.66,39.66,0,0,0,4.3-9.23,5.31,5.31,0,0,1-1.44-3.93,10.77,10.77,0,0,1,1.13-4.75,3.42,3.42,0,0,1,3.16-2.14,3.21,3.21,0,0,1,2.29.74,3.06,3.06,0,0,1,.78,2.31,19.63,19.63,0,0,1-2,8.35,4.69,4.69,0,0,0,2.27-.73,6.2,6.2,0,0,0,2.54-2.78,3.29,3.29,0,0,1-1.07,2.28,7.44,7.44,0,0,1-2.56,1.72A5.23,5.23,0,0,1,308.2,121.35Zm-3.08-2.71q.17-.63.39-1.71t.44-2.34a12.59,12.59,0,0,0,.22-2.05c0-.47-.08-.71-.24-.71s-.5.47-.82,1.4a9.4,9.4,0,0,0-.48,3A4.71,4.71,0,0,0,305.12,118.64Z"/><path class="80c788d1-0546-40d1-8f52-6442781591d8" d="M326.41,125.84a2.91,2.91,0,0,0,.1.76.46.46,0,0,0,.49.37q.44,0,1.06-.68a14.38,14.38,0,0,0,1.33-1.76,45.06,45.06,0,0,0,2.29-4.16q1.07-2.21,1.54-3.38a13.94,13.94,0,0,1-.85,3.06,39.27,39.27,0,0,1-2.29,5.21,23.7,23.7,0,0,1-1.79,2.92,10.82,10.82,0,0,1-2,2.16,3.42,3.42,0,0,1-2.12.83,3.37,3.37,0,0,1-2.32-.72,3.64,3.64,0,0,1-1.1-1.72,6.63,6.63,0,0,1-.29-1.86,22.12,22.12,0,0,1,.34-3.59,25.44,25.44,0,0,1-1.51,3.32,13,13,0,0,1-2.49,3.39,3.58,3.58,0,0,1-2.51,1.17,3.7,3.7,0,0,1-1.61-.32,3.19,3.19,0,0,1-1.07-.81,4.2,4.2,0,0,1-.83-1.65,6.52,6.52,0,0,1-.22-1.53,22.88,22.88,0,0,1,.21-2.56q.21-1.68.65-3.74a35,35,0,0,1,1.51-5.18,13.48,13.48,0,0,1,2-3.64,5.43,5.43,0,0,1,1.38-1.27,3,3,0,0,1,1.6-.46,6.33,6.33,0,0,1,3,.77,8.92,8.92,0,0,1,2.51,2c0-.06,0-.17.1-.33s.11-.32.17-.5a2.41,2.41,0,0,1,1.51-1.51,7.22,7.22,0,0,1,2.51-.42,4.91,4.91,0,0,1,1.44.2,2.08,2.08,0,0,1,1,.59q-.42,1.15-.93,2.76-.66,2-1.32,4.35t-1.1,4.64A18.11,18.11,0,0,0,326.41,125.84ZM323,114.19q-1.15-1.66-2.15-1.66-.83,0-1.54,1.44a19.56,19.56,0,0,0-1.49,4.32q-.46,1.78-.76,3.47a35.94,35.94,0,0,0-.51,4,3.56,3.56,0,0,0,.1.84.45.45,0,0,0,.46.4q.46,0,1.1-1a18.21,18.21,0,0,0,1.32-2.48q1-2.2,1.86-4.59Q322.55,115.59,323,114.19Z"/><path class="80c788d1-0546-40d1-8f52-6442781591d8" d="M341.35,112.56a3.79,3.79,0,0,1-.43,1.81q-.43.81-1,.81a3.34,3.34,0,0,0,.34-1.51,2.18,2.18,0,0,0-.28-1.09,1,1,0,0,0-1-.5,1.26,1.26,0,0,0-1,.45,2.11,2.11,0,0,0-.42,1.45,12.21,12.21,0,0,0,.34,2.93q.34,1.39.76,2.71a15.23,15.23,0,0,1,7.45-2.64,22.33,22.33,0,0,0-7.15,3.56q.32,1.05.59,2.12a12.13,12.13,0,0,1,.29,2.69,7.8,7.8,0,0,1-1.9,5.51,6,6,0,0,1-4.57,2.06,3,3,0,0,1-3.15-3.2q0-3.32,3.42-6.64c-.08-.29-.17-.59-.27-.88q-.46-1.44-.83-2.94a13,13,0,0,1-.37-3.09,7.22,7.22,0,0,1,.84-3.7,5.37,5.37,0,0,1,2.12-2.1,5.46,5.46,0,0,1,2.55-.67,4.3,4.3,0,0,1,2.51.75A2.42,2.42,0,0,1,341.35,112.56Zm-8.47,18.16q.76,0,1.21-1.12a5.76,5.76,0,0,0,.45-2.15,11.5,11.5,0,0,0-.44-3.12,8.25,8.25,0,0,0-2,4.69Q332.12,130.72,332.88,130.72Z"/><g id="05ed60df-1ce0-470d-a15f-f207d240fcac" data-name="&lt;Group&gt;"><path id="6ac483b0-9241-497b-900a-ec540a00ed05" data-name="&lt;Path&gt;" class="80c788d1-0546-40d1-8f52-6442781591d8" d="M69.64,51.78a1.12,1.12,0,0,0,.92.27c.45,0,1.09-.14,2-.27a11.6,11.6,0,0,1,3.47,0A12.48,12.48,0,0,1,81.19,54a12,12,0,0,1,2.68,2.61,8.48,8.48,0,0,1,1.62,3.66,11.44,11.44,0,0,1-.29,5,15.8,15.8,0,0,1-2.84,5.55,19.84,19.84,0,0,1-5.59,4.92,22.58,22.58,0,0,1-8.16,2.69,21.66,21.66,0,0,1-2.37.19c-.81,0-1.63,0-2.47,0a27.39,27.39,0,0,1-5.1-.9,26,26,0,0,1-5.09-2,25.28,25.28,0,0,1-2.41-1.48c-.38-.28-.81-.52-1.16-.84l-1.11-.93a21.22,21.22,0,0,1-6.23-9.94,25.69,25.69,0,0,1-.4-12.73,26.45,26.45,0,0,1,2.24-6.17,23.42,23.42,0,0,1,3.88-5.24,23.85,23.85,0,0,1,2.56-2.17l.68-.5a4.94,4.94,0,0,1,.7-.48l1.47-.87a27.79,27.79,0,0,1,6.47-2.54A39.08,39.08,0,0,1,74.68,31a51.11,51.11,0,0,1,14.17,3.85,86.24,86.24,0,0,1,12.9,7.25c4.07,2.75,7.93,5.7,11.66,8.63,7.45,5.87,14.46,11.63,21.4,16a76.46,76.46,0,0,0,19.4,9.1l1.07.32,1.06.26,2,.48,1.94.34.92.16.9.1c1.18.13,2.27.27,3.28.28s1.93.1,2.75,0,1.55,0,2.18-.08l1.58-.17,1.3-.14-1.31,0-1.58,0c-.63,0-1.35-.06-2.17-.1s-1.72-.15-2.7-.27-2.05-.31-3.19-.54l-.87-.17-.89-.23-1.86-.48L156.73,75l-1-.33-1-.39a75.72,75.72,0,0,1-18.1-10.23c-6.4-4.69-12.85-10.78-20-17.19-3.57-3.2-7.33-6.48-11.42-9.62A90.08,90.08,0,0,0,91.8,28.63a57.3,57.3,0,0,0-16-5.28,46.38,46.38,0,0,0-17.47.25,36,36,0,0,0-8.58,3l-2,1.1a8.54,8.54,0,0,0-1,.61l-1,.65a30.43,30.43,0,0,0-9.44,10.17,35.26,35.26,0,0,0-3.38,8.48,34.74,34.74,0,0,0,.2,17.68,30.72,30.72,0,0,0,3.52,8.07l1.2,1.84,1.37,1.7a16.44,16.44,0,0,0,1.45,1.59c.51.5,1,1,1.53,1.49l1.61,1.35c.53.45,1.12.81,1.68,1.21a34.6,34.6,0,0,0,3.44,2.08,35.15,35.15,0,0,0,7.14,2.73,36.31,36.31,0,0,0,7.1,1.14c1.17,0,2.32.07,3.45,0A30.57,30.57,0,0,0,70,88.09a31.14,31.14,0,0,0,11.75-4.31,28,28,0,0,0,8-7.68,23.53,23.53,0,0,0,3.84-9,8.82,8.82,0,0,0,.18-1.15l.12-1.14c0-.76,0-1.51,0-2.24s-.11-1.45-.23-2.15-.26-1.35-.45-2a15.37,15.37,0,0,0-3.88-6.56,17.19,17.19,0,0,0-4.9-3.48,15,15,0,0,0-8.51-1.44,9.7,9.7,0,0,0-4.79,2,4.59,4.59,0,0,0-1.52,2C69.4,51.31,69.48,51.6,69.64,51.78Z"/></g><g id="de1d4f09-e635-4587-b97b-1cb026d9ef60" data-name="&lt;Group&gt;"><path id="447b1a37-c34e-4295-a0c7-5ca0220c7712" data-name="&lt;Path&gt;" class="80c788d1-0546-40d1-8f52-6442781591d8" d="M34.73,18.65c.26.43.86.75,2.11.71.63,0,1.39-.17,2.43-.29.51-.07,1.08-.17,1.7-.3s1.34-.17,2.1-.3A54.44,54.44,0,0,1,48.65,18a48.07,48.07,0,0,1,7.76.43,55.27,55.27,0,0,1,10.14,2.42,59.62,59.62,0,0,1,12.21,5.73,117.28,117.28,0,0,1,13.39,9.65C96.66,39.9,101.22,44,105.91,48c2.34,2,4.73,4.07,7.15,6s4.83,3.86,7.3,5.69a106.45,106.45,0,0,0,15,9.53A77.12,77.12,0,0,0,150,75.07c2.31.57,4.47,1.14,6.53,1.44,1,.16,2,.38,3,.47l2.73.28,1.26.13,1.2,0,2.19.07a34.62,34.62,0,0,0,3.48,0l2.93-.12L170.34,77c-.94-.1-2.09-.19-3.41-.46l-2.13-.37L163.64,76l-1.21-.29-2.6-.63c-.9-.21-1.82-.55-2.78-.83-1.93-.54-3.93-1.37-6-2.18A78,78,0,0,1,137.93,65a111.64,111.64,0,0,1-13.21-10.51c-2.17-2-4.38-4.06-6.54-6.16s-4.32-4.26-6.48-6.45C107.37,37.5,103,33,98.39,28.92A97.39,97.39,0,0,0,84,18a60,60,0,0,0-14.48-6.47,51.36,51.36,0,0,0-12.32-2.1,39.64,39.64,0,0,0-9.48.71,30.56,30.56,0,0,0-6.51,2.11c-.85.42-1.6.79-2.25,1.17s-1.19.81-1.67,1.17a8.85,8.85,0,0,0-2,1.93C34.46,17.6,34.47,18.23,34.73,18.65Z"/></g><g id="acb44110-1a47-495d-b67f-a8b526d4ae9c" data-name="&lt;Group&gt;"><path id="dfc9071a-fab1-4198-b5d5-809fa2a12a4f" data-name="&lt;Path&gt;" class="80c788d1-0546-40d1-8f52-6442781591d8" d="M129.3,24.57a1.24,1.24,0,0,0-1-.66,5.05,5.05,0,0,0-3,.74,13.47,13.47,0,0,0-4.85,4.62,20,20,0,0,0-3.06,11.31A22.63,22.63,0,0,0,119,48.11a27.93,27.93,0,0,0,3.94,6.81,34.31,34.31,0,0,0,5.34,5.45,44.56,44.56,0,0,0,5.78,4,79,79,0,0,0,9.75,4.7c2.48,1,4,1.59,4,1.59l-3.48-2.5c-2.16-1.57-5.19-3.75-8.31-6.5a40.82,40.82,0,0,1-8.43-9.9A27.43,27.43,0,0,1,125,46a21.84,21.84,0,0,1-1-5.58,19.65,19.65,0,0,1,1.63-8.19A28.46,28.46,0,0,1,128.08,28a11.41,11.41,0,0,0,1.24-2.18A1.52,1.52,0,0,0,129.3,24.57Z"/></g><g id="d9ccda95-ee52-4274-af26-a0b965e12cb3" data-name="&lt;Group&gt;"><path id="7f5db111-426b-48e7-90ac-451b9e7f78a0" data-name="&lt;Path&gt;" class="80c788d1-0546-40d1-8f52-6442781591d8" d="M138.3,11.83c.31-.13.58-.44.59-1.28a4.39,4.39,0,0,0-.05-.74,9.62,9.62,0,0,0-.26-.93l-.2-.56c-.08-.19-.19-.38-.29-.59a8.81,8.81,0,0,0-.82-1.34A10.92,10.92,0,0,0,136,4.93a14,14,0,0,0-1.74-1.53A17.53,17.53,0,0,0,129,.79a19,19,0,0,0-7.88-.64c-.38.05-.76.14-1.15.21a9,9,0,0,0-1.18.28l-1.2.36-1.17.47a20.65,20.65,0,0,0-4.61,2.76,23.8,23.8,0,0,0-6.94,9.23,26,26,0,0,0-1.7,5.76,26.84,26.84,0,0,0-.33,6,32.47,32.47,0,0,0,2.74,11.21A41.5,41.5,0,0,0,111,45.53,69.49,69.49,0,0,0,122.68,56.9c1.58,1.25,2.87,2.22,3.76,2.87l1.38,1-1.19-1.23c-.77-.8-1.88-2-3.24-3.42a75.78,75.78,0,0,1-9.62-12.49,40.59,40.59,0,0,1-3.93-8.78,29.54,29.54,0,0,1-1.39-9.7,21.84,21.84,0,0,1,2.22-9,19.63,19.63,0,0,1,5.27-6.64,15.5,15.5,0,0,1,3.14-1.92l.78-.34.76-.25a4.68,4.68,0,0,1,.75-.21c.25-.05.49-.13.74-.17a15.46,15.46,0,0,1,5.41,0,17.16,17.16,0,0,1,4,1.27,15.65,15.65,0,0,1,1.46.78,12.82,12.82,0,0,1,1.18.75c.37.22.65.48.94.69l.41.3.34.29c.22.18.43.34.63.47s.34.27.49.36A1.45,1.45,0,0,0,138.3,11.83Z"/></g><g id="1ee1de6d-6205-4b6a-9a56-6362781edc70" data-name="&lt;Group&gt;"><path id="684b12ad-40d1-49a2-811e-d46dbf3d7bbe" data-name="&lt;Path&gt;" class="80c788d1-0546-40d1-8f52-6442781591d8" d="M112.26,80.14c.39.56,1.21,1,3.16.54s5.09-1.78,10.87-3.48a71.45,71.45,0,0,1,9.66-2,53.64,53.64,0,0,1,10.1-.36A50.09,50.09,0,0,1,154,76c1,.24,1.77.49,2.32.63l.85.23-.72-.49c-.48-.31-1.15-.8-2-1.33a40.21,40.21,0,0,0-7.67-3.49,41.14,41.14,0,0,0-11-2,37.16,37.16,0,0,0-11.23,1.2q-1.26.39-2.37.76c-.75.23-1.41.56-2.05.82A23.81,23.81,0,0,0,116.84,74a16,16,0,0,0-2.25,1.6A9.49,9.49,0,0,0,113.14,77C111.71,78.71,111.89,79.6,112.26,80.14Z"/></g><g id="6450148a-f0ce-4828-9b43-670781ebc55e" data-name="&lt;Group&gt;"><path id="889d3c54-a73e-4d7d-8b80-4b231c247033" data-name="&lt;Path&gt;" class="80c788d1-0546-40d1-8f52-6442781591d8" d="M59.14,69.29l-.31-.38c-.2-.25-.52-.57-.86-1.05a21,21,0,0,1-2.43-4A21.43,21.43,0,0,1,54,50.3a21.43,21.43,0,0,1,7.36-11.43,21,21,0,0,1,4-2.55c.52-.28.95-.42,1.24-.56l.45-.2-.48-.09a11.14,11.14,0,0,0-1.4-.18,15.12,15.12,0,0,0-5.27.59,17.87,17.87,0,0,0-3.5,1.43,18.69,18.69,0,0,0-3.6,2.57A17.19,17.19,0,0,0,48.28,59.1,18.69,18.69,0,0,0,50.37,63a17.87,17.87,0,0,0,2.51,2.83,15.12,15.12,0,0,0,4.47,2.86,11.13,11.13,0,0,0,1.33.46Z"/></g><g id="3146c6be-5a34-42ac-a4e6-97baea5ee99d" data-name="&lt;Group&gt;"><path id="a9dbf00d-1b83-4931-a9af-522d327ebe0a" data-name="&lt;Path&gt;" class="80c788d1-0546-40d1-8f52-6442781591d8" d="M76.76,67.8l-.33-.09c-.21-.06-.52-.12-.91-.25a17.4,17.4,0,0,1-3-1.19,18.89,18.89,0,0,1-10-13.55,17.4,17.4,0,0,1-.26-3.18c0-.41,0-.72,0-.94v-.34l-.27.21a7.58,7.58,0,0,0-.73.66,10.33,10.33,0,0,0-2.08,3.05,12.21,12.21,0,0,0-1.07,5.59,12.26,12.26,0,0,0,8.22,11.17,12.21,12.21,0,0,0,5.65.64,10.33,10.33,0,0,0,3.53-1.08,7.58,7.58,0,0,0,.84-.51Z"/></g><g id="d31ddb5d-60f7-4022-94a1-f5257e7acf0f" data-name="&lt;Group&gt;"><path id="a5f7ac8e-4600-4fac-bf34-0e445b7ac792" data-name="&lt;Path&gt;" class="80c788d1-0546-40d1-8f52-6442781591d8" d="M99.74,48.63s.26.62.8,1.73l.46.92c.18.33.39.67.61,1.05a28.09,28.09,0,0,0,1.63,2.49l1,1.39c.37.48.79.94,1.22,1.44a36.15,36.15,0,0,0,2.93,3,35.62,35.62,0,0,0,16.91,8.53,36.15,36.15,0,0,0,4.13.59c.65,0,1.27.12,1.88.13h1.74a28.1,28.1,0,0,0,3-.17c.44,0,.84-.08,1.21-.13l1-.18c1.21-.22,1.87-.38,1.87-.38s-.64-.26-1.78-.66l-.94-.33-1.11-.42c-.79-.31-1.68-.6-2.65-1l-1.51-.6c-.52-.2-1.06-.46-1.61-.69-1.12-.44-2.27-1-3.49-1.52-2.42-1.12-5-2.36-7.73-3.71s-5.24-2.73-7.58-4c-1.15-.67-2.28-1.27-3.3-1.9-.51-.31-1-.59-1.51-.89l-1.38-.86c-.91-.53-1.68-1.07-2.39-1.53l-1-.64-.82-.56C100.33,49,99.74,48.63,99.74,48.63Z"/></g><g id="2133f661-f35d-43c1-9c53-078138fed9de" data-name="&lt;Group&gt;"><path id="d5d13c5d-b8f9-45fc-abb7-82d20460e9d6" data-name="&lt;Path&gt;" class="80c788d1-0546-40d1-8f52-6442781591d8" d="M135.85,38.3s.62.68,1.74,1.77l4.6,4.47,3.06,2.93c1.1,1,2.23,2.13,3.44,3.21,2.39,2.24,5,4.56,7.85,6.85s5.62,4.42,8.29,6.31c1.31,1,2.63,1.85,3.83,2.73L172.15,69l5.31,3.61c1.3.88,2.09,1.34,2.09,1.34s-.07-.89-.33-2.47L179,70.15c-.1-.48-.23-1-.37-1.53A34.51,34.51,0,0,0,177.49,65q-.37-1-.8-2.07c-.29-.72-.65-1.43-1-2.18a40.16,40.16,0,0,0-26.09-21.28c-.81-.2-1.57-.41-2.33-.55s-1.49-.26-2.19-.37a34.51,34.51,0,0,0-3.81-.36c-.56,0-1.08-.05-1.57-.05l-1.34,0C136.74,38.19,135.85,38.3,135.85,38.3Z"/></g><g id="6ecc6771-db1d-46c3-a6f2-0661a4d1a038" data-name="&lt;Group&gt;"><path id="246170c5-821c-4909-bfbb-479a17a4122a" data-name="&lt;Path&gt;" class="80c788d1-0546-40d1-8f52-6442781591d8" d="M153,16.7a57.57,57.57,0,0,0,8.78,21.67,57.57,57.57,0,0,0,17,16A57.57,57.57,0,0,0,170,32.7,57.57,57.57,0,0,0,153,16.7Z"/></g><g id="88fbc0c0-74ba-49c4-9ed4-9b4abcdd5b56" data-name="&lt;Group&gt;"><path id="0dbd9966-d561-42f6-8bfb-4d652ba94167" data-name="&lt;Path&gt;" class="80c788d1-0546-40d1-8f52-6442781591d8" d="M157.49,36.62h.22a1.67,1.67,0,0,1,0,3.35h-.22a1.67,1.67,0,0,1,0-3.35Z"/></g><g id="9aaf7ea4-2add-4207-899f-e3531255797e" data-name="&lt;Group&gt;"><path id="5e33bd06-6750-42ca-a339-207ab344ab70" data-name="&lt;Path&gt;" class="80c788d1-0546-40d1-8f52-6442781591d8" d="M152.8,37.29a1.67,1.67,0,0,1,0-3.35,1.67,1.67,0,0,1,0,3.35Z"/></g><g id="756af6a6-5c11-4e96-84a8-8ac02572f8a4" data-name="&lt;Group&gt;"><path id="c54dc34d-e392-4317-8d4f-1c9c35fd8dfd" data-name="&lt;Path&gt;" class="80c788d1-0546-40d1-8f52-6442781591d8" d="M146.78,35.73a1.67,1.67,0,0,1,0-3.35,1.67,1.67,0,0,1,0,3.35Z"/></g><g id="fdb89dd2-5cf3-481f-b594-e09ef564f212" data-name="&lt;Group&gt;"><path id="509de14d-8057-4883-b71c-9d5f0e5aab16" data-name="&lt;Path&gt;" class="80c788d1-0546-40d1-8f52-6442781591d8" d="M141,36.18a1.67,1.67,0,0,1,0-3.35,1.67,1.67,0,0,1,0,3.35Z"/></g><g id="0156d0be-03a5-4426-a42d-c1d4955155ac" data-name="&lt;Group&gt;"><path id="12071657-ae29-47b7-8c65-49ade2ed9ee0" data-name="&lt;Path&gt;" class="80c788d1-0546-40d1-8f52-6442781591d8" d="M130.26,12.3H130A1.67,1.67,0,0,1,130,9h.22a1.67,1.67,0,1,1,0,3.35Z"/></g><g id="9b70c333-0fd0-4548-b9a0-7347df53dd12" data-name="&lt;Group&gt;"><path id="36de9294-5cd8-48af-b954-0544f76735a4" data-name="&lt;Path&gt;" class="80c788d1-0546-40d1-8f52-6442781591d8" d="M125.13,11.41a1.67,1.67,0,0,1,0-3.35,1.67,1.67,0,0,1,0,3.35Z"/></g><g id="15db4c27-1e7f-46e8-a795-6b2456274f3b" data-name="&lt;Group&gt;"><path id="27510596-f335-45fd-9d18-7949c60e5d8a" data-name="&lt;Path&gt;" class="80c788d1-0546-40d1-8f52-6442781591d8" d="M119.77,13a1.67,1.67,0,0,1,0-3.35,1.67,1.67,0,0,1,0,3.35Z"/></g><g id="c87f5f5a-2da8-456c-a8dd-9f4411f43bbf" data-name="&lt;Group&gt;"><path id="f4980e80-c975-4d63-92e1-720baa098bb3" data-name="&lt;Path&gt;" class="80c788d1-0546-40d1-8f52-6442781591d8" d="M115.76,18.55a1.67,1.67,0,0,1,0-3.35,1.67,1.67,0,0,1,0,3.35Z"/></g><g id="07a810ac-57b7-4433-9d21-2fc3f50f48da" data-name="&lt;Group&gt;"><path id="087116a6-9d25-4fdd-875c-2b7facbb5481" data-name="&lt;Path&gt;" class="80c788d1-0546-40d1-8f52-6442781591d8" d="M43.8,14.82l.49-.25c.33-.15.78-.44,1.41-.69a27,27,0,0,1,5.5-1.81,33.08,33.08,0,0,1,8.68-.68,41.34,41.34,0,0,1,10.64,2,68.14,68.14,0,0,1,18.24,9.77c2.23,1.62,4,3,5.24,4l1.91,1.53s-.58-.65-1.67-1.79-2.69-2.75-4.77-4.61a62.83,62.83,0,0,0-7.71-5.92,46.2,46.2,0,0,0-10.53-5.12A35.43,35.43,0,0,0,59.92,9.49a29.22,29.22,0,0,0-9,1.5,23.36,23.36,0,0,0-5.37,2.58c-.6.35-1,.72-1.3.92Z"/><path id="902b3506-ab1b-4229-b0a6-b01077a671bb" data-name="&lt;Path&gt;" class="80c788d1-0546-40d1-8f52-6442781591d8" d="M44.56,8.83l.55-.2c.36-.12.89-.32,1.57-.54a38,38,0,0,1,5.92-1.3A44.68,44.68,0,0,1,72,8.78a73.26,73.26,0,0,1,17.59,8.9c2.12,1.42,3.79,2.65,4.95,3.49l1.79,1.33L94.8,20.9c-1-1-2.52-2.46-4.5-4.13a61,61,0,0,0-7.37-5.35A48.37,48.37,0,0,0,72.74,6.63,39.23,39.23,0,0,0,61.57,4.72a34.94,34.94,0,0,0-9.19,1,31.6,31.6,0,0,0-5.84,2.08c-.65.32-1.15.61-1.48.78Z"/><path id="6fac52b9-9921-458c-88fb-d0506ee54e74" data-name="&lt;Path&gt;" class="80c788d1-0546-40d1-8f52-6442781591d8" d="M50.46,2.3l.48-.08c.32-.06.78-.12,1.38-.18s1.33-.16,2.19-.2l1.36-.08,1.52,0a49.25,49.25,0,0,1,7.38.54,54.25,54.25,0,0,1,8.71,2.07A73.64,73.64,0,0,1,87.94,11c1.75,1,3.11,1.91,4.06,2.52.48.3.84.54,1.08.71l.38.25-.34-.3c-.22-.2-.55-.49-1-.85-.86-.73-2.13-1.77-3.79-3A52.84,52.84,0,0,0,74,2.93a42.86,42.86,0,0,0-9-1.89,40.37,40.37,0,0,0-7.57,0l-1.53.16-1.36.22c-.85.12-1.58.31-2.17.44s-1.05.25-1.36.34Z"/></g><g id="b0028808-6218-4f53-b8b2-805e35f6cd50" data-name="&lt;Group&gt;"><path id="de8a8145-21a7-4740-81aa-57c7695283fe" data-name="&lt;Path&gt;" class="80c788d1-0546-40d1-8f52-6442781591d8" d="M141.79,57.41a43.3,43.3,0,0,0,13,10.3,43.3,43.3,0,0,0,16,4.33,41.28,41.28,0,0,0-29.06-14.63Z"/></g><g id="3af84c72-77aa-476d-8d14-8a48bddcf842" data-name="&lt;Group&gt;"><path id="1a8d5c42-4a26-43d0-8e3e-8cc310749a5e" data-name="&lt;Path&gt;" class="80c788d1-0546-40d1-8f52-6442781591d8" d="M7.13,32.45a2.44,2.44,0,0,0-1.73,0,5.1,5.1,0,0,0-2.31,2A16.2,16.2,0,0,0,.73,40.12,30.26,30.26,0,0,0,.27,50.91,34.26,34.26,0,0,0,5.32,64.69,36.93,36.93,0,0,0,15.24,75a36.14,36.14,0,0,0,9.51,4.77c1.25.39,2.25.67,3,.81l1.07.23-.9-.63c-.58-.39-1.4-1-2.38-1.79A41.45,41.45,0,0,1,12.85,60.83a50.38,50.38,0,0,1-2.63-11.19,80,80,0,0,1-.53-8.44,44.41,44.41,0,0,0-.31-5,6.31,6.31,0,0,0-.9-2.65A2.74,2.74,0,0,0,7.13,32.45Z"/></g><g id="1d32775e-46bc-45c6-9473-719a2504bead" data-name="&lt;Group&gt;"><path id="8cd3c540-864d-4aa9-839c-b1734b23974e" data-name="&lt;Path&gt;" class="80c788d1-0546-40d1-8f52-6442781591d8" d="M289.52,51.78a1.12,1.12,0,0,1-.92.27c-.45,0-1.09-.14-2-.27a11.6,11.6,0,0,0-3.47,0A12.48,12.48,0,0,0,278,54a12,12,0,0,0-2.68,2.61,8.48,8.48,0,0,0-1.62,3.66,11.44,11.44,0,0,0,.29,5,15.8,15.8,0,0,0,2.84,5.55,19.84,19.84,0,0,0,5.59,4.92,22.58,22.58,0,0,0,8.16,2.69,21.66,21.66,0,0,0,2.37.19c.81,0,1.63,0,2.47,0a27.39,27.39,0,0,0,5.1-.9,26,26,0,0,0,5.09-2A25.28,25.28,0,0,0,308,74.23c.38-.28.81-.52,1.16-.84l1.11-.93a21.22,21.22,0,0,0,6.23-9.94,25.69,25.69,0,0,0,.4-12.73,26.45,26.45,0,0,0-2.24-6.17,23.42,23.42,0,0,0-3.88-5.24,23.85,23.85,0,0,0-2.56-2.17l-.68-.5a4.94,4.94,0,0,0-.7-.48l-1.47-.87a27.79,27.79,0,0,0-6.47-2.54A39.08,39.08,0,0,0,284.48,31a51.11,51.11,0,0,0-14.17,3.85,86.24,86.24,0,0,0-12.9,7.25c-4.07,2.75-7.93,5.7-11.66,8.63-7.45,5.87-14.46,11.63-21.4,16a76.46,76.46,0,0,1-19.4,9.1l-1.07.32-1.06.26-2,.48-1.94.34-.92.16-.9.1c-1.18.13-2.27.27-3.28.28s-1.93.1-2.75,0-1.55,0-2.18-.08l-1.58-.17-1.3-.14,1.31,0,1.58,0c.63,0,1.35-.06,2.17-.1s1.72-.15,2.7-.27,2.05-.31,3.19-.54l.87-.17.89-.23,1.86-.48,1.94-.62,1-.33,1-.39a75.72,75.72,0,0,0,18.1-10.23c6.4-4.69,12.85-10.78,20-17.19,3.57-3.2,7.33-6.48,11.42-9.62a90.08,90.08,0,0,1,13.42-8.61,57.3,57.3,0,0,1,16-5.28,46.38,46.38,0,0,1,17.47.25,36,36,0,0,1,8.58,3l2,1.1a8.54,8.54,0,0,1,1,.61l1,.65a30.43,30.43,0,0,1,9.44,10.17,35.26,35.26,0,0,1,3.38,8.48,34.74,34.74,0,0,1-.2,17.68,30.72,30.72,0,0,1-3.52,8.07l-1.2,1.84-1.37,1.7a16.44,16.44,0,0,1-1.45,1.59c-.51.5-1,1-1.53,1.49l-1.61,1.35c-.53.45-1.12.81-1.68,1.21a34.6,34.6,0,0,1-3.44,2.08,35.15,35.15,0,0,1-7.14,2.73,36.31,36.31,0,0,1-7.1,1.14c-1.17,0-2.32.07-3.45,0a30.57,30.57,0,0,1-3.34-.34,31.14,31.14,0,0,1-11.75-4.31,28,28,0,0,1-8-7.68,23.53,23.53,0,0,1-3.84-9,8.82,8.82,0,0,1-.18-1.15l-.12-1.14c0-.76,0-1.51,0-2.24s.11-1.45.23-2.15.26-1.35.45-2a15.37,15.37,0,0,1,3.88-6.56,17.19,17.19,0,0,1,4.9-3.48,15,15,0,0,1,8.51-1.44,9.7,9.7,0,0,1,4.79,2,4.59,4.59,0,0,1,1.52,2C289.76,51.31,289.68,51.6,289.52,51.78Z"/></g><g id="9e7a1f53-b753-4c70-b3b2-06baceae8999" data-name="&lt;Group&gt;"><path id="9c445238-2015-436e-8114-c99fafb73d14" data-name="&lt;Path&gt;" class="80c788d1-0546-40d1-8f52-6442781591d8" d="M324.43,18.65c-.26.43-.86.75-2.11.71-.63,0-1.39-.17-2.43-.29-.51-.07-1.08-.17-1.7-.3s-1.34-.17-2.1-.3a54.44,54.44,0,0,0-5.57-.49,48.07,48.07,0,0,0-7.76.43,55.27,55.27,0,0,0-10.14,2.42,59.62,59.62,0,0,0-12.21,5.73A117.28,117.28,0,0,0,267,36.21C262.5,39.9,257.94,44,253.25,48c-2.34,2-4.73,4.07-7.15,6s-4.83,3.86-7.3,5.69a106.45,106.45,0,0,1-15,9.53,77.12,77.12,0,0,1-14.58,5.76c-2.31.57-4.47,1.14-6.53,1.44-1,.16-2,.38-3,.47l-2.73.28-1.26.13-1.2,0-2.19.07a34.62,34.62,0,0,1-3.48,0l-2.93-.12,2.91-.31c.94-.1,2.09-.19,3.41-.46l2.13-.37,1.16-.21,1.21-.29,2.6-.63c.9-.21,1.82-.55,2.78-.83,1.93-.54,3.93-1.37,6-2.18A78,78,0,0,0,221.23,65a111.64,111.64,0,0,0,13.21-10.51c2.17-2,4.38-4.06,6.54-6.16s4.32-4.26,6.48-6.45c4.33-4.37,8.71-8.82,13.31-12.94A97.39,97.39,0,0,1,275.2,18a60,60,0,0,1,14.48-6.47A51.36,51.36,0,0,1,302,9.42a39.64,39.64,0,0,1,9.48.71A30.56,30.56,0,0,1,318,12.25c.85.42,1.6.79,2.25,1.17s1.19.81,1.67,1.17a8.85,8.85,0,0,1,2,1.93C324.7,17.6,324.69,18.23,324.43,18.65Z"/></g><g id="86ca4247-fda1-4fd0-bdde-29d41cefde3d" data-name="&lt;Group&gt;"><path id="5eda76e9-db3e-435c-a7ea-6f2258f94f8d" data-name="&lt;Path&gt;" class="80c788d1-0546-40d1-8f52-6442781591d8" d="M229.87,24.57a1.24,1.24,0,0,1,1-.66,5.05,5.05,0,0,1,3,.74,13.47,13.47,0,0,1,4.85,4.62,20,20,0,0,1,3.06,11.31,22.63,22.63,0,0,1-1.61,7.53,27.93,27.93,0,0,1-3.94,6.81,34.31,34.31,0,0,1-5.34,5.45,44.56,44.56,0,0,1-5.78,4,79,79,0,0,1-9.75,4.7c-2.48,1-4,1.59-4,1.59l3.48-2.5c2.16-1.57,5.19-3.75,8.31-6.5a40.82,40.82,0,0,0,8.43-9.9A27.43,27.43,0,0,0,234.14,46a21.84,21.84,0,0,0,1-5.58,19.65,19.65,0,0,0-1.63-8.19A28.46,28.46,0,0,0,231.08,28a11.41,11.41,0,0,1-1.24-2.18A1.52,1.52,0,0,1,229.87,24.57Z"/></g><g id="9303e7cc-4044-4c7c-a85d-58dbefa94119" data-name="&lt;Group&gt;"><path id="ef0d358b-cc14-4b0e-a3ac-2b199b071791" data-name="&lt;Path&gt;" class="80c788d1-0546-40d1-8f52-6442781591d8" d="M220.86,11.83c-.31-.13-.58-.44-.59-1.28a4.39,4.39,0,0,1,.05-.74,9.62,9.62,0,0,1,.26-.93l.2-.56c.08-.19.19-.38.29-.59a8.81,8.81,0,0,1,.82-1.34,10.92,10.92,0,0,1,1.24-1.47,14,14,0,0,1,1.74-1.53A17.53,17.53,0,0,1,230.17.79,19,19,0,0,1,238,.16c.38.05.76.14,1.15.21a9,9,0,0,1,1.18.28l1.2.36,1.17.47a20.65,20.65,0,0,1,4.61,2.76,23.8,23.8,0,0,1,6.94,9.23,26,26,0,0,1,1.7,5.76,26.84,26.84,0,0,1,.33,6,32.47,32.47,0,0,1-2.74,11.21,41.5,41.5,0,0,1-5.45,9.08A69.49,69.49,0,0,1,236.48,56.9c-1.58,1.25-2.87,2.22-3.76,2.87l-1.38,1,1.19-1.23c.77-.8,1.88-2,3.24-3.42a75.78,75.78,0,0,0,9.62-12.49,40.59,40.59,0,0,0,3.93-8.78,29.54,29.54,0,0,0,1.39-9.7,21.84,21.84,0,0,0-2.22-9,19.63,19.63,0,0,0-5.27-6.64,15.5,15.5,0,0,0-3.14-1.92l-.78-.34L238.54,7a4.68,4.68,0,0,0-.75-.21c-.25-.05-.49-.13-.74-.17a15.46,15.46,0,0,0-5.41,0,17.16,17.16,0,0,0-4,1.27,15.65,15.65,0,0,0-1.46.78,12.82,12.82,0,0,0-1.18.75c-.37.22-.65.48-.94.69l-.41.3-.34.29c-.22.18-.43.34-.63.47s-.34.27-.49.36A1.45,1.45,0,0,1,220.86,11.83Z"/></g><g id="cfac3bb8-ebc6-4b8b-9f7e-00bb474a6e2e" data-name="&lt;Group&gt;"><path id="c8c74df8-5bf1-4b58-96ad-2139792224bd" data-name="&lt;Path&gt;" class="80c788d1-0546-40d1-8f52-6442781591d8" d="M246.9,80.14c-.39.56-1.21,1-3.16.54s-5.09-1.78-10.87-3.48a71.45,71.45,0,0,0-9.66-2,53.64,53.64,0,0,0-10.1-.36A50.09,50.09,0,0,0,205.18,76c-1,.24-1.77.49-2.32.63l-.85.23.72-.49c.48-.31,1.15-.8,2-1.33a40.21,40.21,0,0,1,7.67-3.49,41.14,41.14,0,0,1,11-2,37.16,37.16,0,0,1,11.23,1.2q1.26.39,2.37.76c.75.23,1.41.56,2.05.82A23.81,23.81,0,0,1,242.32,74a16,16,0,0,1,2.25,1.6A9.49,9.49,0,0,1,246,77C247.45,78.71,247.27,79.6,246.9,80.14Z"/></g><g id="a2f26027-e5cd-4246-ab89-3ac1ee436d1f" data-name="&lt;Group&gt;"><path id="70ca5cf6-8ab0-4d59-9011-08042ecbe914" data-name="&lt;Path&gt;" class="80c788d1-0546-40d1-8f52-6442781591d8" d="M300,69.29l.31-.38c.2-.25.52-.57.86-1.05a21,21,0,0,0,2.43-4,21.43,21.43,0,0,0,1.53-13.51,21.43,21.43,0,0,0-7.36-11.43,21,21,0,0,0-4-2.55c-.52-.28-.95-.42-1.24-.56l-.45-.2.48-.09a11.14,11.14,0,0,1,1.4-.18,15.12,15.12,0,0,1,5.27.59,17.87,17.87,0,0,1,3.5,1.43,18.69,18.69,0,0,1,3.6,2.57,17.19,17.19,0,0,1,4.49,19.22A18.69,18.69,0,0,1,308.8,63a17.87,17.87,0,0,1-2.51,2.83,15.12,15.12,0,0,1-4.47,2.86,11.13,11.13,0,0,1-1.33.46Z"/></g><g id="ce9c68de-2337-46e4-bf0a-b09d8ddd6909" data-name="&lt;Group&gt;"><path id="4292f6a1-81da-4ded-a0f9-c5f0c05686f8" data-name="&lt;Path&gt;" class="80c788d1-0546-40d1-8f52-6442781591d8" d="M282.41,67.8l.33-.09c.21-.06.52-.12.91-.25a17.4,17.4,0,0,0,3-1.19,18.89,18.89,0,0,0,10-13.55,17.4,17.4,0,0,0,.26-3.18c0-.41,0-.72,0-.94v-.34l.27.21a7.58,7.58,0,0,1,.73.66,10.33,10.33,0,0,1,2.08,3.05,12.21,12.21,0,0,1,1.07,5.59,12.26,12.26,0,0,1-8.22,11.17,12.21,12.21,0,0,1-5.65.64,10.33,10.33,0,0,1-3.53-1.08,7.58,7.58,0,0,1-.84-.51Z"/></g><g id="279a9480-e6a8-4c1f-8b6f-842670bbfebe" data-name="&lt;Group&gt;"><path id="4aae5141-0cac-4e50-8aec-1056610923b5" data-name="&lt;Path&gt;" class="80c788d1-0546-40d1-8f52-6442781591d8" d="M259.42,48.63s-.26.62-.8,1.73l-.46.92c-.18.33-.39.67-.61,1.05a28.09,28.09,0,0,1-1.63,2.49l-1,1.39c-.37.48-.79.94-1.22,1.44a36.15,36.15,0,0,1-2.93,3,35.62,35.62,0,0,1-16.91,8.53,36.15,36.15,0,0,1-4.13.59c-.65,0-1.27.12-1.88.13h-1.74a28.1,28.1,0,0,1-3-.17c-.44,0-.84-.08-1.21-.13l-1-.18C219.68,69.17,219,69,219,69s.64-.26,1.78-.66l.94-.33,1.11-.42c.79-.31,1.68-.6,2.65-1L227,66c.52-.2,1.06-.46,1.61-.69,1.12-.44,2.27-1,3.49-1.52,2.42-1.12,5-2.36,7.73-3.71s5.24-2.73,7.58-4c1.15-.67,2.28-1.27,3.3-1.9.51-.31,1-.59,1.51-.89l1.38-.86c.91-.53,1.68-1.07,2.39-1.53l1-.64.82-.56C258.83,49,259.42,48.63,259.42,48.63Z"/></g><g id="f342d8b2-e4b9-4efa-9dd0-6f307dc92a40" data-name="&lt;Group&gt;"><path id="38a0783f-f087-401c-a70a-b6fa1a636359" data-name="&lt;Path&gt;" class="80c788d1-0546-40d1-8f52-6442781591d8" d="M223.31,38.3s-.62.68-1.74,1.77L217,44.55l-3.06,2.93c-1.1,1-2.23,2.13-3.44,3.21-2.39,2.24-5,4.56-7.85,6.85S197,62,194.33,63.85c-1.31,1-2.63,1.85-3.83,2.73L187,69l-5.31,3.61c-1.3.88-2.09,1.34-2.09,1.34s.07-.89.33-2.47l.23-1.31c.1-.48.23-1,.37-1.53A34.51,34.51,0,0,1,181.67,65q.37-1,.8-2.07c.29-.72.65-1.43,1-2.18a40.16,40.16,0,0,1,26.09-21.28c.81-.2,1.57-.41,2.33-.55s1.49-.26,2.19-.37a34.51,34.51,0,0,1,3.81-.36c.56,0,1.08-.05,1.57-.05l1.34,0C222.42,38.19,223.31,38.3,223.31,38.3Z"/></g><g id="dfbbed3c-6d82-4580-aad4-947629863da1" data-name="&lt;Group&gt;"><path id="fdb95e90-6059-47c5-8c48-bf14199d8bde" data-name="&lt;Path&gt;" class="80c788d1-0546-40d1-8f52-6442781591d8" d="M206.21,16.7a57.57,57.57,0,0,1-8.78,21.67,57.57,57.57,0,0,1-17,16,57.57,57.57,0,0,1,8.78-21.67A57.57,57.57,0,0,1,206.21,16.7Z"/></g><path id="276cbd81-2f8a-4dc3-bb95-742f51d8ae03" data-name="&lt;Path&gt;" class="80c788d1-0546-40d1-8f52-6442781591d8" d="M179.58,5.1C184.31,12,183,16.7,183,16.7s1.25-3,6.26-3,7.3,6.51,7.3,6.51c-12.31,3.67-17,15.28-17,15.28s-4.66-11.61-17-15.28c0,0,2.29-6.51,7.3-6.51s6.26,3,6.26,3S174.85,12,179.58,5.1Z"/><g id="b1bf5879-0467-483c-8e46-cb1a536bbf04" data-name="&lt;Group&gt;"><path id="632b1e20-5fc5-4f3c-8192-764038360b7a" data-name="&lt;Path&gt;" class="80c788d1-0546-40d1-8f52-6442781591d8" d="M201.67,36.62h-.22a1.67,1.67,0,0,0,0,3.35h.22a1.67,1.67,0,0,0,0-3.35Z"/></g><g id="b6609f9b-f40d-4515-bc4c-02a6ce2fbc19" data-name="&lt;Group&gt;"><path id="ebb94309-222e-4e26-a099-2e6c93552468" data-name="&lt;Path&gt;" class="80c788d1-0546-40d1-8f52-6442781591d8" d="M206.36,37.29a1.67,1.67,0,0,0,0-3.35,1.67,1.67,0,0,0,0,3.35Z"/></g><g id="9c08f329-1647-45ac-89e9-3e00f5f19ee1" data-name="&lt;Group&gt;"><path id="d0f9e979-2d5e-463c-bbe7-509bbd32a387" data-name="&lt;Path&gt;" class="80c788d1-0546-40d1-8f52-6442781591d8" d="M212.39,35.73a1.67,1.67,0,0,0,0-3.35,1.67,1.67,0,0,0,0,3.35Z"/></g><g id="876a1b38-fa01-4f64-b3e8-3576d705c261" data-name="&lt;Group&gt;"><path id="16b2fb3f-d14f-4c22-8670-b741d0ab5bb7" data-name="&lt;Path&gt;" class="80c788d1-0546-40d1-8f52-6442781591d8" d="M218.19,36.18a1.67,1.67,0,0,0,0-3.35,1.67,1.67,0,0,0,0,3.35Z"/></g><g id="bb3ab1c2-d7c8-4ae0-b689-6ab741ef8a7a" data-name="&lt;Group&gt;"><path id="a6aaaa48-dbcf-465a-bbe3-1638d7a50b19" data-name="&lt;Path&gt;" class="80c788d1-0546-40d1-8f52-6442781591d8" d="M228.9,12.3h.22a1.67,1.67,0,1,0,0-3.35h-.22a1.67,1.67,0,1,0,0,3.35Z"/></g><g id="a790fda2-d03f-4981-89e0-8fad30ecd1fe" data-name="&lt;Group&gt;"><path id="5cc57aaf-c6b5-4880-92eb-42e0bef1a003" data-name="&lt;Path&gt;" class="80c788d1-0546-40d1-8f52-6442781591d8" d="M234,11.41a1.67,1.67,0,0,0,0-3.35,1.67,1.67,0,0,0,0,3.35Z"/></g><g id="4b067788-b74e-4006-9da3-5b0cf88593c4" data-name="&lt;Group&gt;"><path id="12281f31-8aff-4f5e-bf26-533f3d58673c" data-name="&lt;Path&gt;" class="80c788d1-0546-40d1-8f52-6442781591d8" d="M239.39,13a1.67,1.67,0,0,0,0-3.35,1.67,1.67,0,0,0,0,3.35Z"/></g><g id="2ad74dff-b41f-4e3d-9697-356d4911151a" data-name="&lt;Group&gt;"><path id="f69dfb1d-bb3d-4f6e-be77-43e6723f9b2b" data-name="&lt;Path&gt;" class="80c788d1-0546-40d1-8f52-6442781591d8" d="M243.4,18.55a1.67,1.67,0,0,0,0-3.35,1.67,1.67,0,0,0,0,3.35Z"/></g><g id="9e6199fb-faf7-4788-9888-f9e77b6eed73" data-name="&lt;Group&gt;"><path id="73b56014-241e-4879-9f70-9e7fb92d36cd" data-name="&lt;Path&gt;" class="80c788d1-0546-40d1-8f52-6442781591d8" d="M315.36,14.82l-.49-.25c-.33-.15-.78-.44-1.41-.69a27,27,0,0,0-5.5-1.81,33.08,33.08,0,0,0-8.68-.68,41.34,41.34,0,0,0-10.64,2,68.14,68.14,0,0,0-18.24,9.77c-2.23,1.62-4,3-5.24,4l-1.91,1.53s.58-.65,1.67-1.79,2.69-2.75,4.77-4.61a62.83,62.83,0,0,1,7.71-5.92,46.2,46.2,0,0,1,10.53-5.12,35.43,35.43,0,0,1,11.32-1.74,29.22,29.22,0,0,1,9,1.5,23.36,23.36,0,0,1,5.37,2.58c.6.35,1,.72,1.3.92Z"/><path id="330856af-dd8f-4616-8210-ff1b5a1919b4" data-name="&lt;Path&gt;" class="80c788d1-0546-40d1-8f52-6442781591d8" d="M314.61,8.83l-.55-.2c-.36-.12-.89-.32-1.57-.54a38,38,0,0,0-5.92-1.3,44.68,44.68,0,0,0-19.44,2,73.26,73.26,0,0,0-17.59,8.9c-2.12,1.42-3.79,2.65-4.95,3.49L262.8,22.5l1.56-1.6c1-1,2.52-2.46,4.5-4.13a61,61,0,0,1,7.37-5.35,48.37,48.37,0,0,1,10.19-4.79,39.23,39.23,0,0,1,11.17-1.92,34.94,34.94,0,0,1,9.19,1,31.6,31.6,0,0,1,5.84,2.08c.65.32,1.15.61,1.48.78Z"/><path id="0cede3b7-1c48-4235-b5b7-7ec24aa7b0e6" data-name="&lt;Path&gt;" class="80c788d1-0546-40d1-8f52-6442781591d8" d="M308.7,2.3l-.48-.08c-.32-.06-.78-.12-1.38-.18s-1.33-.16-2.19-.2l-1.36-.08-1.52,0a49.25,49.25,0,0,0-7.38.54,54.25,54.25,0,0,0-8.71,2.07A73.64,73.64,0,0,0,271.22,11c-1.75,1-3.11,1.91-4.06,2.52-.48.3-.84.54-1.08.71l-.38.25.34-.3c.22-.2.55-.49,1-.85.86-.73,2.13-1.77,3.79-3a52.84,52.84,0,0,1,14.4-7.48,42.86,42.86,0,0,1,9-1.89,40.37,40.37,0,0,1,7.57,0l1.53.16,1.36.22c.85.12,1.58.31,2.17.44s1.05.25,1.36.34Z"/></g><g id="af951997-3aa7-4ed9-b554-e82d62bb8e76" data-name="&lt;Group&gt;"><path id="e0cf3118-9dcc-4c6a-9e15-60e5cfbfb714" data-name="&lt;Path&gt;" class="80c788d1-0546-40d1-8f52-6442781591d8" d="M217.37,57.41a43.3,43.3,0,0,1-13,10.3,43.3,43.3,0,0,1-16,4.33,41.28,41.28,0,0,1,29.06-14.63Z"/></g><g id="32cc2ce3-657b-48c5-95ac-14c252d7563b" data-name="&lt;Group&gt;"><path id="01a0bf0f-210e-4909-a2b5-8f8d34e1bbc4" data-name="&lt;Path&gt;" class="80c788d1-0546-40d1-8f52-6442781591d8" d="M352,32.45a2.44,2.44,0,0,1,1.73,0,5.1,5.1,0,0,1,2.31,2,16.2,16.2,0,0,1,2.36,5.66,30.26,30.26,0,0,1,.46,10.79,34.26,34.26,0,0,1-5.05,13.78A36.93,36.93,0,0,1,343.92,75a36.14,36.14,0,0,1-9.51,4.77c-1.25.39-2.25.67-3,.81l-1.07.23.9-.63c.58-.39,1.4-1,2.38-1.79a41.45,41.45,0,0,0,12.65-17.58,50.38,50.38,0,0,0,2.63-11.19,80,80,0,0,0,.53-8.44,44.41,44.41,0,0,1,.31-5,6.31,6.31,0,0,1,.9-2.65A2.74,2.74,0,0,1,352,32.45Z"/></g></g></g></svg>