<svg xmlns="http://www.w3.org/2000/svg" viewBox="0 0 359.16 154.75"><defs><style>.\32 57862a5-1fa9-4db2-adf4-cee453cf9860,.e651a7e9-f6db-4af7-a977-e09c4d180083{fill:#fff;}.e651a7e9-f6db-4af7-a977-e09c4d180083{stroke:#fff;stroke-miterlimit:10;stroke-width:2px;}</style></defs><title>Asset 3</title><g id="abee2f4f-6fef-4edf-b7d3-c251d256103e" data-name="Layer 2"><g id="1155bcda-2769-460a-8545-e4e881ed1f8e" data-name="Layer 3"><g id="51f0994e-9b0b-4b2b-a1b2-04b4329f1506" data-name="&lt;Group&gt;"><path id="ef9c6e1a-515f-4a11-a909-8281d8432309" data-name="&lt;Path&gt;" class="257862a5-1fa9-4db2-adf4-cee453cf9860" d="M69.64,51.78a1.12,1.12,0,0,0,.92.27c.45,0,1.09-.14,2-.27a11.6,11.6,0,0,1,3.47,0A12.48,12.48,0,0,1,81.19,54a12,12,0,0,1,2.68,2.61,8.48,8.48,0,0,1,1.62,3.66,11.44,11.44,0,0,1-.29,5,15.8,15.8,0,0,1-2.84,5.55,19.84,19.84,0,0,1-5.59,4.92,22.58,22.58,0,0,1-8.16,2.69,21.66,21.66,0,0,1-2.37.19c-.81,0-1.63,0-2.47,0a27.39,27.39,0,0,1-5.1-.9,26,26,0,0,1-5.09-2,25.28,25.28,0,0,1-2.41-1.48c-.38-.28-.81-.52-1.16-.84l-1.11-.93a21.22,21.22,0,0,1-6.23-9.94,25.69,25.69,0,0,1-.4-12.73,26.45,26.45,0,0,1,2.24-6.17,23.42,23.42,0,0,1,3.88-5.24,23.85,23.85,0,0,1,2.56-2.17l.68-.5a4.94,4.94,0,0,1,.7-.48l1.47-.87a27.79,27.79,0,0,1,6.47-2.54A39.08,39.08,0,0,1,74.68,31a51.11,51.11,0,0,1,14.17,3.85,86.24,86.24,0,0,1,12.9,7.25c4.07,2.75,7.93,5.7,11.66,8.63,7.45,5.87,14.46,11.63,21.4,16a76.46,76.46,0,0,0,19.4,9.1l1.07.32,1.06.26,2,.48,1.94.34.92.16.9.1c1.18.13,2.27.27,3.28.28s1.93.1,2.75,0,1.55,0,2.18-.08l1.58-.17,1.3-.14-1.31,0-1.58,0c-.63,0-1.35-.06-2.17-.1s-1.72-.15-2.7-.27-2.05-.31-3.19-.54l-.87-.17-.89-.23-1.86-.48L156.73,75l-1-.33-1-.39a75.72,75.72,0,0,1-18.1-10.23c-6.4-4.69-12.85-10.78-20-17.19-3.57-3.2-7.33-6.48-11.42-9.62A90.08,90.08,0,0,0,91.8,28.63a57.3,57.3,0,0,0-16-5.28,46.38,46.38,0,0,0-17.47.25,36,36,0,0,0-8.58,3l-2,1.1a8.54,8.54,0,0,0-1,.61l-1,.65a30.43,30.43,0,0,0-9.44,10.17,35.26,35.26,0,0,0-3.38,8.48,34.74,34.74,0,0,0,.2,17.68,30.72,30.72,0,0,0,3.52,8.07l1.2,1.84,1.37,1.7a16.44,16.44,0,0,0,1.45,1.59c.51.5,1,1,1.53,1.49l1.61,1.35c.53.45,1.12.81,1.68,1.21a34.6,34.6,0,0,0,3.44,2.08,35.15,35.15,0,0,0,7.14,2.73,36.31,36.31,0,0,0,7.1,1.14c1.17,0,2.32.07,3.45,0A30.57,30.57,0,0,0,70,88.09a31.14,31.14,0,0,0,11.75-4.31,28,28,0,0,0,8-7.68,23.53,23.53,0,0,0,3.84-9,8.82,8.82,0,0,0,.18-1.15l.12-1.14c0-.76,0-1.51,0-2.24s-.11-1.45-.23-2.15-.26-1.35-.45-2a15.37,15.37,0,0,0-3.88-6.56,17.19,17.19,0,0,0-4.9-3.48,15,15,0,0,0-8.51-1.44,9.7,9.7,0,0,0-4.79,2,4.59,4.59,0,0,0-1.52,2C69.4,51.31,69.48,51.6,69.64,51.78Z"/></g><g id="0a6c51a9-23fd-4d1f-b27e-1c8b90e9ef7d" data-name="&lt;Group&gt;"><path id="812800d7-8fec-4daa-a472-0bf17bc28bfb" data-name="&lt;Path&gt;" class="257862a5-1fa9-4db2-adf4-cee453cf9860" d="M34.73,18.65c.26.43.86.75,2.11.71.63,0,1.39-.17,2.43-.29.51-.07,1.08-.17,1.7-.3s1.34-.17,2.1-.3A54.44,54.44,0,0,1,48.65,18a48.07,48.07,0,0,1,7.76.43,55.27,55.27,0,0,1,10.14,2.42,59.62,59.62,0,0,1,12.21,5.73,117.28,117.28,0,0,1,13.39,9.65C96.66,39.9,101.22,44,105.91,48c2.34,2,4.73,4.07,7.15,6s4.83,3.86,7.3,5.69a106.45,106.45,0,0,0,15,9.53A77.12,77.12,0,0,0,150,75.07c2.31.57,4.47,1.14,6.53,1.44,1,.16,2,.38,3,.47l2.73.28,1.26.13,1.2,0,2.19.07a34.62,34.62,0,0,0,3.48,0l2.93-.12L170.34,77c-.94-.1-2.09-.19-3.41-.46l-2.13-.37L163.64,76l-1.21-.29-2.6-.63c-.9-.21-1.82-.55-2.78-.83-1.93-.54-3.93-1.37-6-2.18A78,78,0,0,1,137.93,65a111.64,111.64,0,0,1-13.21-10.51c-2.17-2-4.38-4.06-6.54-6.16s-4.32-4.26-6.48-6.45C107.37,37.5,103,33,98.39,28.92A97.39,97.39,0,0,0,84,18a60,60,0,0,0-14.48-6.47,51.36,51.36,0,0,0-12.32-2.1,39.64,39.64,0,0,0-9.48.71,30.56,30.56,0,0,0-6.51,2.11c-.85.42-1.6.79-2.25,1.17s-1.19.81-1.67,1.17a8.85,8.85,0,0,0-2,1.93C34.46,17.6,34.47,18.23,34.73,18.65Z"/></g><g id="5dd07c09-91b6-416a-86b4-f585fab7d869" data-name="&lt;Group&gt;"><path id="17ef2a80-c634-47cc-b536-87d31a4c64fd" data-name="&lt;Path&gt;" class="257862a5-1fa9-4db2-adf4-cee453cf9860" d="M129.3,24.57a1.24,1.24,0,0,0-1-.66,5.05,5.05,0,0,0-3,.74,13.47,13.47,0,0,0-4.85,4.62,20,20,0,0,0-3.06,11.31A22.63,22.63,0,0,0,119,48.11a27.93,27.93,0,0,0,3.94,6.81,34.31,34.31,0,0,0,5.34,5.45,44.56,44.56,0,0,0,5.78,4,79,79,0,0,0,9.75,4.7c2.48,1,4,1.59,4,1.59l-3.48-2.5c-2.16-1.57-5.19-3.75-8.31-6.5a40.82,40.82,0,0,1-8.43-9.9A27.43,27.43,0,0,1,125,46a21.84,21.84,0,0,1-1-5.58,19.65,19.65,0,0,1,1.63-8.19A28.46,28.46,0,0,1,128.08,28a11.41,11.41,0,0,0,1.24-2.18A1.52,1.52,0,0,0,129.3,24.57Z"/></g><g id="57a8f2b4-6387-4b3e-8d83-f2f69e1818f5" data-name="&lt;Group&gt;"><path id="8e49d1ce-5a7c-4a97-81be-a2c9d0b2249b" data-name="&lt;Path&gt;" class="257862a5-1fa9-4db2-adf4-cee453cf9860" d="M138.3,11.83c.31-.13.58-.44.59-1.28a4.39,4.39,0,0,0-.05-.74,9.62,9.62,0,0,0-.26-.93l-.2-.56c-.08-.19-.19-.38-.29-.59a8.81,8.81,0,0,0-.82-1.34A10.92,10.92,0,0,0,136,4.93a14,14,0,0,0-1.74-1.53A17.53,17.53,0,0,0,129,.79a19,19,0,0,0-7.88-.64c-.38.05-.76.14-1.15.21a9,9,0,0,0-1.18.28l-1.2.36-1.17.47a20.65,20.65,0,0,0-4.61,2.76,23.8,23.8,0,0,0-6.94,9.23,26,26,0,0,0-1.7,5.76,26.84,26.84,0,0,0-.33,6,32.47,32.47,0,0,0,2.74,11.21A41.5,41.5,0,0,0,111,45.53,69.49,69.49,0,0,0,122.68,56.9c1.58,1.25,2.87,2.22,3.76,2.87l1.38,1-1.19-1.23c-.77-.8-1.88-2-3.24-3.42a75.78,75.78,0,0,1-9.62-12.49,40.59,40.59,0,0,1-3.93-8.78,29.54,29.54,0,0,1-1.39-9.7,21.84,21.84,0,0,1,2.22-9,19.63,19.63,0,0,1,5.27-6.64,15.5,15.5,0,0,1,3.14-1.92l.78-.34.76-.25a4.68,4.68,0,0,1,.75-.21c.25-.05.49-.13.74-.17a15.46,15.46,0,0,1,5.41,0,17.16,17.16,0,0,1,4,1.27,15.65,15.65,0,0,1,1.46.78,12.82,12.82,0,0,1,1.18.75c.37.22.65.48.94.69l.41.3.34.29c.22.18.43.34.63.47s.34.27.49.36A1.45,1.45,0,0,0,138.3,11.83Z"/></g><g id="aa2746f8-e99d-41cd-b042-3690f560eda0" data-name="&lt;Group&gt;"><path id="01bb3ec2-104e-4bc9-b0f8-0518a79939a2" data-name="&lt;Path&gt;" class="257862a5-1fa9-4db2-adf4-cee453cf9860" d="M112.26,80.14c.39.56,1.21,1,3.16.54s5.09-1.78,10.87-3.48a71.45,71.45,0,0,1,9.66-2,53.64,53.64,0,0,1,10.1-.36A50.09,50.09,0,0,1,154,76c1,.24,1.77.49,2.32.63l.85.23-.72-.49c-.48-.31-1.15-.8-2-1.33a40.21,40.21,0,0,0-7.67-3.49,41.14,41.14,0,0,0-11-2,37.16,37.16,0,0,0-11.23,1.2q-1.26.39-2.37.76c-.75.23-1.41.56-2.05.82A23.81,23.81,0,0,0,116.84,74a16,16,0,0,0-2.25,1.6A9.49,9.49,0,0,0,113.14,77C111.71,78.71,111.89,79.6,112.26,80.14Z"/></g><g id="00b8c0e6-fc7c-4be9-9945-885c48fa8539" data-name="&lt;Group&gt;"><path id="4d54d58f-ecac-49bf-bfb7-a72f9e4888cd" data-name="&lt;Path&gt;" class="257862a5-1fa9-4db2-adf4-cee453cf9860" d="M59.14,69.29l-.31-.38c-.2-.25-.52-.57-.86-1.05a21,21,0,0,1-2.43-4A21.43,21.43,0,0,1,54,50.3a21.43,21.43,0,0,1,7.36-11.43,21,21,0,0,1,4-2.55c.52-.28.95-.42,1.24-.56l.45-.2-.48-.09a11.14,11.14,0,0,0-1.4-.18,15.12,15.12,0,0,0-5.27.59,17.87,17.87,0,0,0-3.5,1.43,18.69,18.69,0,0,0-3.6,2.57A17.19,17.19,0,0,0,48.28,59.1,18.69,18.69,0,0,0,50.37,63a17.87,17.87,0,0,0,2.51,2.83,15.12,15.12,0,0,0,4.47,2.86,11.13,11.13,0,0,0,1.33.46Z"/></g><g id="899c7888-d176-42c3-b9c8-3ab9975a5e0a" data-name="&lt;Group&gt;"><path id="7056d54e-e350-406e-bb75-be13154fe498" data-name="&lt;Path&gt;" class="257862a5-1fa9-4db2-adf4-cee453cf9860" d="M76.76,67.8l-.33-.09c-.21-.06-.52-.12-.91-.25a17.4,17.4,0,0,1-3-1.19,18.89,18.89,0,0,1-10-13.55,17.4,17.4,0,0,1-.26-3.18c0-.41,0-.72,0-.94v-.34l-.27.21a7.58,7.58,0,0,0-.73.66,10.33,10.33,0,0,0-2.08,3.05,12.21,12.21,0,0,0-1.07,5.59,12.26,12.26,0,0,0,8.22,11.17,12.21,12.21,0,0,0,5.65.64,10.33,10.33,0,0,0,3.53-1.08,7.58,7.58,0,0,0,.84-.51Z"/></g><g id="61002652-1453-4ee3-9b42-ce7d15d73764" data-name="&lt;Group&gt;"><path id="f188a945-c62d-4b1d-8c42-7419de9e2521" data-name="&lt;Path&gt;" class="257862a5-1fa9-4db2-adf4-cee453cf9860" d="M99.74,48.63s.26.62.8,1.73l.46.92c.18.33.39.67.61,1.05a28.09,28.09,0,0,0,1.63,2.49l1,1.39c.37.48.79.94,1.22,1.44a36.15,36.15,0,0,0,2.93,3,35.62,35.62,0,0,0,16.91,8.53,36.15,36.15,0,0,0,4.13.59c.65,0,1.27.12,1.88.13h1.74a28.1,28.1,0,0,0,3-.17c.44,0,.84-.08,1.21-.13l1-.18c1.21-.22,1.87-.38,1.87-.38s-.64-.26-1.78-.66l-.94-.33-1.11-.42c-.79-.31-1.68-.6-2.65-1l-1.51-.6c-.52-.2-1.06-.46-1.61-.69-1.12-.44-2.27-1-3.49-1.52-2.42-1.12-5-2.36-7.73-3.71s-5.24-2.73-7.58-4c-1.15-.67-2.28-1.27-3.3-1.9-.51-.31-1-.59-1.51-.89l-1.38-.86c-.91-.53-1.68-1.07-2.39-1.53l-1-.64-.82-.56C100.33,49,99.74,48.63,99.74,48.63Z"/></g><g id="74191f50-eb4a-4125-871f-9400993c78c8" data-name="&lt;Group&gt;"><path id="f95c99ab-45b0-4539-a581-7fbd5d55ecd0" data-name="&lt;Path&gt;" class="257862a5-1fa9-4db2-adf4-cee453cf9860" d="M135.85,38.3s.62.68,1.74,1.77l4.6,4.47,3.06,2.93c1.1,1,2.23,2.13,3.44,3.21,2.39,2.24,5,4.56,7.85,6.85s5.62,4.42,8.29,6.31c1.31,1,2.63,1.85,3.83,2.73L172.15,69l5.31,3.61c1.3.88,2.09,1.34,2.09,1.34s-.07-.89-.33-2.47L179,70.15c-.1-.48-.23-1-.37-1.53A34.51,34.51,0,0,0,177.49,65q-.37-1-.8-2.07c-.29-.72-.65-1.43-1-2.18a40.16,40.16,0,0,0-26.09-21.28c-.81-.2-1.57-.41-2.33-.55s-1.49-.26-2.19-.37a34.51,34.51,0,0,0-3.81-.36c-.56,0-1.08-.05-1.57-.05l-1.34,0C136.74,38.19,135.85,38.3,135.85,38.3Z"/></g><g id="e9887149-8b3f-4548-97f2-e8bf492c5e95" data-name="&lt;Group&gt;"><path id="ba05c3c2-8ff0-4f5c-957d-37d9694edb9d" data-name="&lt;Path&gt;" class="257862a5-1fa9-4db2-adf4-cee453cf9860" d="M153,16.7a57.57,57.57,0,0,0,8.78,21.67,57.57,57.57,0,0,0,17,16A57.57,57.57,0,0,0,170,32.7,57.57,57.57,0,0,0,153,16.7Z"/></g><g id="39fba7ee-becc-4561-bb3e-52c0ed248cef" data-name="&lt;Group&gt;"><path id="14835410-2355-412a-9830-b4c260eefe1d" data-name="&lt;Path&gt;" class="257862a5-1fa9-4db2-adf4-cee453cf9860" d="M157.49,36.62h.22a1.67,1.67,0,0,1,0,3.35h-.22a1.67,1.67,0,0,1,0-3.35Z"/></g><g id="6d5d0dd7-c08a-4046-9f06-5351b66c22e4" data-name="&lt;Group&gt;"><path id="f495f06d-a628-4761-8756-9aac73edb6d3" data-name="&lt;Path&gt;" class="257862a5-1fa9-4db2-adf4-cee453cf9860" d="M152.8,37.29a1.67,1.67,0,0,1,0-3.35,1.67,1.67,0,0,1,0,3.35Z"/></g><g id="5523f4f4-bee7-4db3-a3e8-82d956a5356c" data-name="&lt;Group&gt;"><path id="2890d637-ae31-43ce-ac22-bedfcf60eb7f" data-name="&lt;Path&gt;" class="257862a5-1fa9-4db2-adf4-cee453cf9860" d="M146.78,35.73a1.67,1.67,0,0,1,0-3.35,1.67,1.67,0,0,1,0,3.35Z"/></g><g id="54a196e6-560b-4cba-8942-cde66775e763" data-name="&lt;Group&gt;"><path id="2e273b45-a0b7-4da0-9f81-2d5e0140b0d9" data-name="&lt;Path&gt;" class="257862a5-1fa9-4db2-adf4-cee453cf9860" d="M141,36.18a1.67,1.67,0,0,1,0-3.35,1.67,1.67,0,0,1,0,3.35Z"/></g><g id="99f20794-7323-46f1-9a8f-f63114e12972" data-name="&lt;Group&gt;"><path id="1ced0d27-2495-4b46-9ba8-2abfa38e9b48" data-name="&lt;Path&gt;" class="257862a5-1fa9-4db2-adf4-cee453cf9860" d="M130.26,12.3H130A1.67,1.67,0,0,1,130,9h.22a1.67,1.67,0,1,1,0,3.35Z"/></g><g id="9460dee5-0f60-49e9-bcf7-0c06c6254abf" data-name="&lt;Group&gt;"><path id="b1c9e339-117b-4212-89f1-b1363f633e54" data-name="&lt;Path&gt;" class="257862a5-1fa9-4db2-adf4-cee453cf9860" d="M125.13,11.41a1.67,1.67,0,0,1,0-3.35,1.67,1.67,0,0,1,0,3.35Z"/></g><g id="fe5c00ba-7b90-4518-a01e-095f9136b8dd" data-name="&lt;Group&gt;"><path id="cbc9db83-5619-424f-abc3-11a457bc291b" data-name="&lt;Path&gt;" class="257862a5-1fa9-4db2-adf4-cee453cf9860" d="M119.77,13a1.67,1.67,0,0,1,0-3.35,1.67,1.67,0,0,1,0,3.35Z"/></g><g id="b1cb62be-5834-4902-abcd-67001de5891b" data-name="&lt;Group&gt;"><path id="25e2e3a2-aaa2-4133-aba6-a6ad6c330142" data-name="&lt;Path&gt;" class="257862a5-1fa9-4db2-adf4-cee453cf9860" d="M115.76,18.55a1.67,1.67,0,0,1,0-3.35,1.67,1.67,0,0,1,0,3.35Z"/></g><g id="443c657e-bcd6-47a8-bdd7-25541d54922c" data-name="&lt;Group&gt;"><path id="6cbb7206-c563-46d1-ae2a-32c80a4962b8" data-name="&lt;Path&gt;" class="257862a5-1fa9-4db2-adf4-cee453cf9860" d="M43.8,14.82l.49-.25c.33-.15.78-.44,1.41-.69a27,27,0,0,1,5.5-1.81,33.08,33.08,0,0,1,8.68-.68,41.34,41.34,0,0,1,10.64,2,68.14,68.14,0,0,1,18.24,9.77c2.23,1.62,4,3,5.24,4l1.91,1.53s-.58-.65-1.67-1.79-2.69-2.75-4.77-4.61a62.83,62.83,0,0,0-7.71-5.92,46.2,46.2,0,0,0-10.53-5.12A35.43,35.43,0,0,0,59.92,9.49a29.22,29.22,0,0,0-9,1.5,23.36,23.36,0,0,0-5.37,2.58c-.6.35-1,.72-1.3.92Z"/><path id="5faf8fd9-33eb-4070-9544-b8ae07837978" data-name="&lt;Path&gt;" class="257862a5-1fa9-4db2-adf4-cee453cf9860" d="M44.56,8.83l.55-.2c.36-.12.89-.32,1.57-.54a38,38,0,0,1,5.92-1.3A44.68,44.68,0,0,1,72,8.78a73.26,73.26,0,0,1,17.59,8.9c2.12,1.42,3.79,2.65,4.95,3.49l1.79,1.33L94.8,20.9c-1-1-2.52-2.46-4.5-4.13a61,61,0,0,0-7.37-5.35A48.37,48.37,0,0,0,72.74,6.63,39.23,39.23,0,0,0,61.57,4.72a34.94,34.94,0,0,0-9.19,1,31.6,31.6,0,0,0-5.84,2.08c-.65.32-1.15.61-1.48.78Z"/><path id="040fb4b2-a269-42c9-8e0b-677c8b726354" data-name="&lt;Path&gt;" class="257862a5-1fa9-4db2-adf4-cee453cf9860" d="M50.46,2.3l.48-.08c.32-.06.78-.12,1.38-.18s1.33-.16,2.19-.2l1.36-.08,1.52,0a49.25,49.25,0,0,1,7.38.54,54.25,54.25,0,0,1,8.71,2.07A73.64,73.64,0,0,1,87.94,11c1.75,1,3.11,1.91,4.06,2.52.48.3.84.54,1.08.71l.38.25-.34-.3c-.22-.2-.55-.49-1-.85-.86-.73-2.13-1.77-3.79-3A52.84,52.84,0,0,0,74,2.93a42.86,42.86,0,0,0-9-1.89,40.37,40.37,0,0,0-7.57,0l-1.53.16-1.36.22c-.85.12-1.58.31-2.17.44s-1.05.25-1.36.34Z"/></g><g id="c157ee24-a329-4045-be39-bed39aa29f3e" data-name="&lt;Group&gt;"><path id="658ec7c7-ce9c-4e68-99ea-0fe4fe04ea87" data-name="&lt;Path&gt;" class="257862a5-1fa9-4db2-adf4-cee453cf9860" d="M141.79,57.41a43.3,43.3,0,0,0,13,10.3,43.3,43.3,0,0,0,16,4.33,41.28,41.28,0,0,0-29.06-14.63Z"/></g><g id="b29688c7-7e9d-4b8c-a365-4b3f2044fd7f" data-name="&lt;Group&gt;"><path id="6fa4e7ba-e20a-4df3-8491-1446ad6f762b" data-name="&lt;Path&gt;" class="257862a5-1fa9-4db2-adf4-cee453cf9860" d="M7.13,32.45a2.44,2.44,0,0,0-1.73,0,5.1,5.1,0,0,0-2.31,2A16.2,16.2,0,0,0,.73,40.12,30.26,30.26,0,0,0,.27,50.91,34.26,34.26,0,0,0,5.32,64.69,36.93,36.93,0,0,0,15.24,75a36.14,36.14,0,0,0,9.51,4.77c1.25.39,2.25.67,3,.81l1.07.23-.9-.63c-.58-.39-1.4-1-2.38-1.79A41.45,41.45,0,0,1,12.85,60.83a50.38,50.38,0,0,1-2.63-11.19,80,80,0,0,1-.53-8.44,44.41,44.41,0,0,0-.31-5,6.31,6.31,0,0,0-.9-2.65A2.74,2.74,0,0,0,7.13,32.45Z"/></g><g id="90dadf50-41b1-4ab5-a82f-b3a43b44ccc0" data-name="&lt;Group&gt;"><path id="85870d92-9301-46fb-9eaa-b71fc83a5e07" data-name="&lt;Path&gt;" class="257862a5-1fa9-4db2-adf4-cee453cf9860" d="M289.52,51.78a1.12,1.12,0,0,1-.92.27c-.45,0-1.09-.14-2-.27a11.6,11.6,0,0,0-3.47,0A12.48,12.48,0,0,0,278,54a12,12,0,0,0-2.68,2.61,8.48,8.48,0,0,0-1.62,3.66,11.44,11.44,0,0,0,.29,5,15.8,15.8,0,0,0,2.84,5.55,19.84,19.84,0,0,0,5.59,4.92,22.58,22.58,0,0,0,8.16,2.69,21.66,21.66,0,0,0,2.37.19c.81,0,1.63,0,2.47,0a27.39,27.39,0,0,0,5.1-.9,26,26,0,0,0,5.09-2A25.28,25.28,0,0,0,308,74.23c.38-.28.81-.52,1.16-.84l1.11-.93a21.22,21.22,0,0,0,6.23-9.94,25.69,25.69,0,0,0,.4-12.73,26.45,26.45,0,0,0-2.24-6.17,23.42,23.42,0,0,0-3.88-5.24,23.85,23.85,0,0,0-2.56-2.17l-.68-.5a4.94,4.94,0,0,0-.7-.48l-1.47-.87a27.79,27.79,0,0,0-6.47-2.54A39.08,39.08,0,0,0,284.48,31a51.11,51.11,0,0,0-14.17,3.85,86.24,86.24,0,0,0-12.9,7.25c-4.07,2.75-7.93,5.7-11.66,8.63-7.45,5.87-14.46,11.63-21.4,16a76.46,76.46,0,0,1-19.4,9.1l-1.07.32-1.06.26-2,.48-1.94.34-.92.16-.9.1c-1.18.13-2.27.27-3.28.28s-1.93.1-2.75,0-1.55,0-2.18-.08l-1.58-.17-1.3-.14,1.31,0,1.58,0c.63,0,1.35-.06,2.17-.1s1.72-.15,2.7-.27,2.05-.31,3.19-.54l.87-.17.89-.23,1.86-.48,1.94-.62,1-.33,1-.39a75.72,75.72,0,0,0,18.1-10.23c6.4-4.69,12.85-10.78,20-17.19,3.57-3.2,7.33-6.48,11.42-9.62a90.08,90.08,0,0,1,13.42-8.61,57.3,57.3,0,0,1,16-5.28,46.38,46.38,0,0,1,17.47.25,36,36,0,0,1,8.58,3l2,1.1a8.54,8.54,0,0,1,1,.61l1,.65a30.43,30.43,0,0,1,9.44,10.17,35.26,35.26,0,0,1,3.38,8.48,34.74,34.74,0,0,1-.2,17.68,30.72,30.72,0,0,1-3.52,8.07l-1.2,1.84-1.37,1.7a16.44,16.44,0,0,1-1.45,1.59c-.51.5-1,1-1.53,1.49l-1.61,1.35c-.53.45-1.12.81-1.68,1.21a34.6,34.6,0,0,1-3.44,2.08,35.15,35.15,0,0,1-7.14,2.73,36.31,36.31,0,0,1-7.1,1.14c-1.17,0-2.32.07-3.45,0a30.57,30.57,0,0,1-3.34-.34,31.14,31.14,0,0,1-11.75-4.31,28,28,0,0,1-8-7.68,23.53,23.53,0,0,1-3.84-9,8.82,8.82,0,0,1-.18-1.15l-.12-1.14c0-.76,0-1.51,0-2.24s.11-1.45.23-2.15.26-1.35.45-2a15.37,15.37,0,0,1,3.88-6.56,17.19,17.19,0,0,1,4.9-3.48,15,15,0,0,1,8.51-1.44,9.7,9.7,0,0,1,4.79,2,4.59,4.59,0,0,1,1.52,2C289.76,51.31,289.68,51.6,289.52,51.78Z"/></g><g id="c8f1cc0d-d1e7-484c-806d-0a4cf2176336" data-name="&lt;Group&gt;"><path id="0f25895a-00ab-45f4-80ba-c7c9b35338f5" data-name="&lt;Path&gt;" class="257862a5-1fa9-4db2-adf4-cee453cf9860" d="M324.43,18.65c-.26.43-.86.75-2.11.71-.63,0-1.39-.17-2.43-.29-.51-.07-1.08-.17-1.7-.3s-1.34-.17-2.1-.3a54.44,54.44,0,0,0-5.57-.49,48.07,48.07,0,0,0-7.76.43,55.27,55.27,0,0,0-10.14,2.42,59.62,59.62,0,0,0-12.21,5.73A117.28,117.28,0,0,0,267,36.21C262.5,39.9,257.94,44,253.25,48c-2.34,2-4.73,4.07-7.15,6s-4.83,3.86-7.3,5.69a106.45,106.45,0,0,1-15,9.53,77.12,77.12,0,0,1-14.58,5.76c-2.31.57-4.47,1.14-6.53,1.44-1,.16-2,.38-3,.47l-2.73.28-1.26.13-1.2,0-2.19.07a34.62,34.62,0,0,1-3.48,0l-2.93-.12,2.91-.31c.94-.1,2.09-.19,3.41-.46l2.13-.37,1.16-.21,1.21-.29,2.6-.63c.9-.21,1.82-.55,2.78-.83,1.93-.54,3.93-1.37,6-2.18A78,78,0,0,0,221.23,65a111.64,111.64,0,0,0,13.21-10.51c2.17-2,4.38-4.06,6.54-6.16s4.32-4.26,6.48-6.45c4.33-4.37,8.71-8.82,13.31-12.94A97.39,97.39,0,0,1,275.2,18a60,60,0,0,1,14.48-6.47A51.36,51.36,0,0,1,302,9.42a39.64,39.64,0,0,1,9.48.71A30.56,30.56,0,0,1,318,12.25c.85.42,1.6.79,2.25,1.17s1.19.81,1.67,1.17a8.85,8.85,0,0,1,2,1.93C324.7,17.6,324.69,18.23,324.43,18.65Z"/></g><g id="6fad7432-b65d-4a6f-9348-9f8330d4589f" data-name="&lt;Group&gt;"><path id="07e6205f-6bd8-4bf8-9789-9d49fbfb0d49" data-name="&lt;Path&gt;" class="257862a5-1fa9-4db2-adf4-cee453cf9860" d="M229.87,24.57a1.24,1.24,0,0,1,1-.66,5.05,5.05,0,0,1,3,.74,13.47,13.47,0,0,1,4.85,4.62,20,20,0,0,1,3.06,11.31,22.63,22.63,0,0,1-1.61,7.53,27.93,27.93,0,0,1-3.94,6.81,34.31,34.31,0,0,1-5.34,5.45,44.56,44.56,0,0,1-5.78,4,79,79,0,0,1-9.75,4.7c-2.48,1-4,1.59-4,1.59l3.48-2.5c2.16-1.57,5.19-3.75,8.31-6.5a40.82,40.82,0,0,0,8.43-9.9A27.43,27.43,0,0,0,234.14,46a21.84,21.84,0,0,0,1-5.58,19.65,19.65,0,0,0-1.63-8.19A28.46,28.46,0,0,0,231.08,28a11.41,11.41,0,0,1-1.24-2.18A1.52,1.52,0,0,1,229.87,24.57Z"/></g><g id="f3eb8b6b-e71e-457d-9648-081e744fa9a3" data-name="&lt;Group&gt;"><path id="4e832726-647b-473b-b24e-807385b2fa70" data-name="&lt;Path&gt;" class="257862a5-1fa9-4db2-adf4-cee453cf9860" d="M220.86,11.83c-.31-.13-.58-.44-.59-1.28a4.39,4.39,0,0,1,.05-.74,9.62,9.62,0,0,1,.26-.93l.2-.56c.08-.19.19-.38.29-.59a8.81,8.81,0,0,1,.82-1.34,10.92,10.92,0,0,1,1.24-1.47,14,14,0,0,1,1.74-1.53A17.53,17.53,0,0,1,230.17.79,19,19,0,0,1,238,.16c.38.05.76.14,1.15.21a9,9,0,0,1,1.18.28l1.2.36,1.17.47a20.65,20.65,0,0,1,4.61,2.76,23.8,23.8,0,0,1,6.94,9.23,26,26,0,0,1,1.7,5.76,26.84,26.84,0,0,1,.33,6,32.47,32.47,0,0,1-2.74,11.21,41.5,41.5,0,0,1-5.45,9.08A69.49,69.49,0,0,1,236.48,56.9c-1.58,1.25-2.87,2.22-3.76,2.87l-1.38,1,1.19-1.23c.77-.8,1.88-2,3.24-3.42a75.78,75.78,0,0,0,9.62-12.49,40.59,40.59,0,0,0,3.93-8.78,29.54,29.54,0,0,0,1.39-9.7,21.84,21.84,0,0,0-2.22-9,19.63,19.63,0,0,0-5.27-6.64,15.5,15.5,0,0,0-3.14-1.92l-.78-.34L238.54,7a4.68,4.68,0,0,0-.75-.21c-.25-.05-.49-.13-.74-.17a15.46,15.46,0,0,0-5.41,0,17.16,17.16,0,0,0-4,1.27,15.65,15.65,0,0,0-1.46.78,12.82,12.82,0,0,0-1.18.75c-.37.22-.65.48-.94.69l-.41.3-.34.29c-.22.18-.43.34-.63.47s-.34.27-.49.36A1.45,1.45,0,0,1,220.86,11.83Z"/></g><g id="89b31677-7307-49f8-a9a4-8a1dea9b01ff" data-name="&lt;Group&gt;"><path id="0c5f5b99-a22f-4c0d-8f16-e0989e01b962" data-name="&lt;Path&gt;" class="257862a5-1fa9-4db2-adf4-cee453cf9860" d="M246.9,80.14c-.39.56-1.21,1-3.16.54s-5.09-1.78-10.87-3.48a71.45,71.45,0,0,0-9.66-2,53.64,53.64,0,0,0-10.1-.36A50.09,50.09,0,0,0,205.18,76c-1,.24-1.77.49-2.32.63l-.85.23.72-.49c.48-.31,1.15-.8,2-1.33a40.21,40.21,0,0,1,7.67-3.49,41.14,41.14,0,0,1,11-2,37.16,37.16,0,0,1,11.23,1.2q1.26.39,2.37.76c.75.23,1.41.56,2.05.82A23.81,23.81,0,0,1,242.32,74a16,16,0,0,1,2.25,1.6A9.49,9.49,0,0,1,246,77C247.45,78.71,247.27,79.6,246.9,80.14Z"/></g><g id="63d9a762-3731-4a96-9629-43c5d9927e50" data-name="&lt;Group&gt;"><path id="94bd1161-487c-494b-b67e-bd6834c53680" data-name="&lt;Path&gt;" class="257862a5-1fa9-4db2-adf4-cee453cf9860" d="M300,69.29l.31-.38c.2-.25.52-.57.86-1.05a21,21,0,0,0,2.43-4,21.43,21.43,0,0,0,1.53-13.51,21.43,21.43,0,0,0-7.36-11.43,21,21,0,0,0-4-2.55c-.52-.28-.95-.42-1.24-.56l-.45-.2.48-.09a11.14,11.14,0,0,1,1.4-.18,15.12,15.12,0,0,1,5.27.59,17.87,17.87,0,0,1,3.5,1.43,18.69,18.69,0,0,1,3.6,2.57,17.19,17.19,0,0,1,4.49,19.22A18.69,18.69,0,0,1,308.8,63a17.87,17.87,0,0,1-2.51,2.83,15.12,15.12,0,0,1-4.47,2.86,11.13,11.13,0,0,1-1.33.46Z"/></g><g id="8403c009-343d-4339-89c5-a54020fae6a8" data-name="&lt;Group&gt;"><path id="5a5841b8-02c1-4af7-adfd-90e513d57c1a" data-name="&lt;Path&gt;" class="257862a5-1fa9-4db2-adf4-cee453cf9860" d="M282.41,67.8l.33-.09c.21-.06.52-.12.91-.25a17.4,17.4,0,0,0,3-1.19,18.89,18.89,0,0,0,10-13.55,17.4,17.4,0,0,0,.26-3.18c0-.41,0-.72,0-.94v-.34l.27.21a7.58,7.58,0,0,1,.73.66,10.33,10.33,0,0,1,2.08,3.05,12.21,12.21,0,0,1,1.07,5.59,12.26,12.26,0,0,1-8.22,11.17,12.21,12.21,0,0,1-5.65.64,10.33,10.33,0,0,1-3.53-1.08,7.58,7.58,0,0,1-.84-.51Z"/></g><g id="d22667c4-a1df-4d94-afe7-dd91473c4731" data-name="&lt;Group&gt;"><path id="361f4802-2553-4ec5-acab-fd5bb8523870" data-name="&lt;Path&gt;" class="257862a5-1fa9-4db2-adf4-cee453cf9860" d="M259.42,48.63s-.26.62-.8,1.73l-.46.92c-.18.33-.39.67-.61,1.05a28.09,28.09,0,0,1-1.63,2.49l-1,1.39c-.37.48-.79.94-1.22,1.44a36.15,36.15,0,0,1-2.93,3,35.62,35.62,0,0,1-16.91,8.53,36.15,36.15,0,0,1-4.13.59c-.65,0-1.27.12-1.88.13h-1.74a28.1,28.1,0,0,1-3-.17c-.44,0-.84-.08-1.21-.13l-1-.18C219.68,69.17,219,69,219,69s.64-.26,1.78-.66l.94-.33,1.11-.42c.79-.31,1.68-.6,2.65-1L227,66c.52-.2,1.06-.46,1.61-.69,1.12-.44,2.27-1,3.49-1.52,2.42-1.12,5-2.36,7.73-3.71s5.24-2.73,7.58-4c1.15-.67,2.28-1.27,3.3-1.9.51-.31,1-.59,1.51-.89l1.38-.86c.91-.53,1.68-1.07,2.39-1.53l1-.64.82-.56C258.83,49,259.42,48.63,259.42,48.63Z"/></g><g id="66ff12ad-2c95-42ef-840b-e1a4d9f250ee" data-name="&lt;Group&gt;"><path id="22d03cc5-6003-4ab2-b2f3-cb70a5d0aaee" data-name="&lt;Path&gt;" class="257862a5-1fa9-4db2-adf4-cee453cf9860" d="M223.31,38.3s-.62.68-1.74,1.77L217,44.55l-3.06,2.93c-1.1,1-2.23,2.13-3.44,3.21-2.39,2.24-5,4.56-7.85,6.85S197,62,194.33,63.85c-1.31,1-2.63,1.85-3.83,2.73L187,69l-5.31,3.61c-1.3.88-2.09,1.34-2.09,1.34s.07-.89.33-2.47l.23-1.31c.1-.48.23-1,.37-1.53A34.51,34.51,0,0,1,181.67,65q.37-1,.8-2.07c.29-.72.65-1.43,1-2.18a40.16,40.16,0,0,1,26.09-21.28c.81-.2,1.57-.41,2.33-.55s1.49-.26,2.19-.37a34.51,34.51,0,0,1,3.81-.36c.56,0,1.08-.05,1.57-.05l1.34,0C222.42,38.19,223.31,38.3,223.31,38.3Z"/></g><g id="3fb7b32b-353f-4263-93ab-b892d3fb7ec8" data-name="&lt;Group&gt;"><path id="208a8df6-53a2-4b8b-b3f9-2c0bc32a1fb5" data-name="&lt;Path&gt;" class="257862a5-1fa9-4db2-adf4-cee453cf9860" d="M206.21,16.7a57.57,57.57,0,0,1-8.78,21.67,57.57,57.57,0,0,1-17,16,57.57,57.57,0,0,1,8.78-21.67A57.57,57.57,0,0,1,206.21,16.7Z"/></g><path id="9ec1fefa-d63a-4c23-a3b3-96c7297c57e6" data-name="&lt;Path&gt;" class="257862a5-1fa9-4db2-adf4-cee453cf9860" d="M179.58,5.1C184.31,12,183,16.7,183,16.7s1.25-3,6.26-3,7.3,6.51,7.3,6.51c-12.31,3.67-17,15.28-17,15.28s-4.66-11.61-17-15.28c0,0,2.29-6.51,7.3-6.51s6.26,3,6.26,3S174.85,12,179.58,5.1Z"/><g id="80639501-8ece-4730-84e4-ea8d86b81922" data-name="&lt;Group&gt;"><path id="847bfa78-ac34-408b-a6ed-c5211fd86ee1" data-name="&lt;Path&gt;" class="257862a5-1fa9-4db2-adf4-cee453cf9860" d="M201.67,36.62h-.22a1.67,1.67,0,0,0,0,3.35h.22a1.67,1.67,0,0,0,0-3.35Z"/></g><g id="911b36a8-d23a-4663-b8ad-91cd9dd72c9a" data-name="&lt;Group&gt;"><path id="6997dac1-51d3-4d16-93db-81e753c3c0e9" data-name="&lt;Path&gt;" class="257862a5-1fa9-4db2-adf4-cee453cf9860" d="M206.36,37.29a1.67,1.67,0,0,0,0-3.35,1.67,1.67,0,0,0,0,3.35Z"/></g><g id="2f09428c-cef6-47e3-89d2-3ef27f2c00a2" data-name="&lt;Group&gt;"><path id="8521e6d1-5821-4f76-903e-a9e5c123e410" data-name="&lt;Path&gt;" class="257862a5-1fa9-4db2-adf4-cee453cf9860" d="M212.39,35.73a1.67,1.67,0,0,0,0-3.35,1.67,1.67,0,0,0,0,3.35Z"/></g><g id="12782d78-885f-44ca-aace-e67a5b09d171" data-name="&lt;Group&gt;"><path id="c209ff39-36a1-47dd-8005-d1938597f319" data-name="&lt;Path&gt;" class="257862a5-1fa9-4db2-adf4-cee453cf9860" d="M218.19,36.18a1.67,1.67,0,0,0,0-3.35,1.67,1.67,0,0,0,0,3.35Z"/></g><g id="5c43c30a-37df-44c3-9070-6764dfa77361" data-name="&lt;Group&gt;"><path id="4ae97f3a-4391-465c-be9a-de64a07cf56d" data-name="&lt;Path&gt;" class="257862a5-1fa9-4db2-adf4-cee453cf9860" d="M228.9,12.3h.22a1.67,1.67,0,1,0,0-3.35h-.22a1.67,1.67,0,1,0,0,3.35Z"/></g><g id="9ab55af7-e2f9-4845-841a-31c3931025d2" data-name="&lt;Group&gt;"><path id="774a54a8-174e-4c5d-a9e4-7d3d14479b96" data-name="&lt;Path&gt;" class="257862a5-1fa9-4db2-adf4-cee453cf9860" d="M234,11.41a1.67,1.67,0,0,0,0-3.35,1.67,1.67,0,0,0,0,3.35Z"/></g><g id="36ff9c84-87b9-4d11-8779-39765297778f" data-name="&lt;Group&gt;"><path id="21201e14-1b72-4567-a338-70fb7c67b958" data-name="&lt;Path&gt;" class="257862a5-1fa9-4db2-adf4-cee453cf9860" d="M239.39,13a1.67,1.67,0,0,0,0-3.35,1.67,1.67,0,0,0,0,3.35Z"/></g><g id="b4f1e961-405e-4864-a4cd-4af349143e6b" data-name="&lt;Group&gt;"><path id="5a32ed97-4e52-410b-8d35-8fb8d745bfa8" data-name="&lt;Path&gt;" class="257862a5-1fa9-4db2-adf4-cee453cf9860" d="M243.4,18.55a1.67,1.67,0,0,0,0-3.35,1.67,1.67,0,0,0,0,3.35Z"/></g><g id="6bf02f86-fead-44aa-a157-44633fef90d4" data-name="&lt;Group&gt;"><path id="e95f8384-d0b0-425d-8e2c-9a52bd4208ab" data-name="&lt;Path&gt;" class="257862a5-1fa9-4db2-adf4-cee453cf9860" d="M315.36,14.82l-.49-.25c-.33-.15-.78-.44-1.41-.69a27,27,0,0,0-5.5-1.81,33.08,33.08,0,0,0-8.68-.68,41.34,41.34,0,0,0-10.64,2,68.14,68.14,0,0,0-18.24,9.77c-2.23,1.62-4,3-5.24,4l-1.91,1.53s.58-.65,1.67-1.79,2.69-2.75,4.77-4.61a62.83,62.83,0,0,1,7.71-5.92,46.2,46.2,0,0,1,10.53-5.12,35.43,35.43,0,0,1,11.32-1.74,29.22,29.22,0,0,1,9,1.5,23.36,23.36,0,0,1,5.37,2.58c.6.35,1,.72,1.3.92Z"/><path id="b79dc58f-0c50-4b7b-8ad3-cb042bb04472" data-name="&lt;Path&gt;" class="257862a5-1fa9-4db2-adf4-cee453cf9860" d="M314.61,8.83l-.55-.2c-.36-.12-.89-.32-1.57-.54a38,38,0,0,0-5.92-1.3,44.68,44.68,0,0,0-19.44,2,73.26,73.26,0,0,0-17.59,8.9c-2.12,1.42-3.79,2.65-4.95,3.49L262.8,22.5l1.56-1.6c1-1,2.52-2.46,4.5-4.13a61,61,0,0,1,7.37-5.35,48.37,48.37,0,0,1,10.19-4.79,39.23,39.23,0,0,1,11.17-1.92,34.94,34.94,0,0,1,9.19,1,31.6,31.6,0,0,1,5.84,2.08c.65.32,1.15.61,1.48.78Z"/><path id="7058f5f2-c777-4c77-a6b1-063a7268882a" data-name="&lt;Path&gt;" class="257862a5-1fa9-4db2-adf4-cee453cf9860" d="M308.7,2.3l-.48-.08c-.32-.06-.78-.12-1.38-.18s-1.33-.16-2.19-.2l-1.36-.08-1.52,0a49.25,49.25,0,0,0-7.38.54,54.25,54.25,0,0,0-8.71,2.07A73.64,73.64,0,0,0,271.22,11c-1.75,1-3.11,1.91-4.06,2.52-.48.3-.84.54-1.08.71l-.38.25.34-.3c.22-.2.55-.49,1-.85.86-.73,2.13-1.77,3.79-3a52.84,52.84,0,0,1,14.4-7.48,42.86,42.86,0,0,1,9-1.89,40.37,40.37,0,0,1,7.57,0l1.53.16,1.36.22c.85.12,1.58.31,2.17.44s1.05.25,1.36.34Z"/></g><g id="7c4db6f4-5ce1-4b2f-b36e-b685684ba4b1" data-name="&lt;Group&gt;"><path id="11b541b5-576a-4cdb-a53a-f28dc2787e38" data-name="&lt;Path&gt;" class="257862a5-1fa9-4db2-adf4-cee453cf9860" d="M217.37,57.41a43.3,43.3,0,0,1-13,10.3,43.3,43.3,0,0,1-16,4.33,41.28,41.28,0,0,1,29.06-14.63Z"/></g><g id="57fcc04f-9085-476f-86e0-85cee3362416" data-name="&lt;Group&gt;"><path id="658f7d91-df4b-4664-b2dc-6fdb095bd515" data-name="&lt;Path&gt;" class="257862a5-1fa9-4db2-adf4-cee453cf9860" d="M352,32.45a2.44,2.44,0,0,1,1.73,0,5.1,5.1,0,0,1,2.31,2,16.2,16.2,0,0,1,2.36,5.66,30.26,30.26,0,0,1,.46,10.79,34.26,34.26,0,0,1-5.05,13.78A36.93,36.93,0,0,1,343.92,75a36.14,36.14,0,0,1-9.51,4.77c-1.25.39-2.25.67-3,.81l-1.07.23.9-.63c.58-.39,1.4-1,2.38-1.79a41.45,41.45,0,0,0,12.65-17.58,50.38,50.38,0,0,0,2.63-11.19,80,80,0,0,0,.53-8.44,44.41,44.41,0,0,1,.31-5,6.31,6.31,0,0,1,.9-2.65A2.74,2.74,0,0,1,352,32.45Z"/></g><path class="e651a7e9-f6db-4af7-a977-e09c4d180083" d="M42.92,108.81q-2.07-1.74-6.74-1.74h-4q-11.21,0-11.93,8.29l.1,0c0,.25-.08.5-.1.76l2.71-1.31v-.31a5.09,5.09,0,0,1,1.77-4,6.78,6.78,0,0,1,4.51-1.54l-2.5,12.54a7.79,7.79,0,0,1-1.25,3.33,2.82,2.82,0,0,1-2.3.93h-.31a1.79,1.79,0,0,0-.36,0l-.21,0-2.05,2.07.68,0-.68.69,6.88.31,1.3,0q7.77,0,12.18-3.61a12.22,12.22,0,0,0,4.41-10c0-.14,0-.27,0-.41s0-.2,0-.31Q45,110.55,42.92,108.81Zm-3.58,14.28a7.87,7.87,0,0,1-3,2.89,10.37,10.37,0,0,1-4.49.79,24.24,24.24,0,0,1-4.12-.35l-1.62-.27a9.51,9.51,0,0,0,2.48-2.36,12.3,12.3,0,0,0,1.58-4.42l2.14-10.72h1.75q7.49,0,7.67,6.61A14.61,14.61,0,0,1,39.34,123.09Z"/><path class="e651a7e9-f6db-4af7-a977-e09c4d180083" d="M61.78,112.24q-1.89,0-4.16,2.22a19.72,19.72,0,0,0-3.93,5.72h0l.53-2.65a11.49,11.49,0,0,0,.25-2.26c0-.13,0-.24,0-.36s0-.24,0-.36q0-2.3-2-2.3-2.38,0-5.6,3.48L46.56,117l.19-.21-.19.92q2.75-3.16,4.23-3.16c.48,0,.75.32.81.92a10.07,10.07,0,0,1-.18,1.35l-1.36,6.83-1,4.3h.17l-.17.73,3-.17,1-5.1q4.53-8,7.25-8a2.71,2.71,0,0,1,1.4.54l1.86-2.52a3.22,3.22,0,0,0-.39-.19l.39-.53A3.47,3.47,0,0,0,61.78,112.24Z"/><path class="e651a7e9-f6db-4af7-a977-e09c4d180083" d="M75.49,113.08a2.61,2.61,0,0,0-2-.84q-3.42,0-6.44,3.47a11.12,11.12,0,0,0-3,7.41c0,.1,0,.19,0,.28s0,.29,0,.43a5.21,5.21,0,0,0,1.24,3.6,4.11,4.11,0,0,0,3.22,1.39q3.13,0,7.57-3.1l.21-1.08-.16.11.16-.82q-3.72,2.57-6.3,2.57c-1.94,0-2.92-1.29-3-3.86v-.14a11.08,11.08,0,0,0,6.54-1.93,5.56,5.56,0,0,0,2.74-4.6c0-.12,0-.22,0-.33s0-.25,0-.38A3.1,3.1,0,0,0,75.49,113.08Zm-3.59,6.24a9,9,0,0,1-4.77,1.6,10.42,10.42,0,0,1,1.74-4.32q1.56-2.23,3.24-2.23c.94,0,1.45.59,1.53,1.77A4.25,4.25,0,0,1,71.9,119.32Z"/><path class="e651a7e9-f6db-4af7-a977-e09c4d180083" d="M93,126.6a.71.71,0,0,1-.79-.6c0-.38.14-.92.28-1.66l1.36-6.9,1-4.14h-.17l.17-.71q-2.18-.17-4.18-.17a10.28,10.28,0,0,0-8.19,4,12.4,12.4,0,0,0-3.24,8c0,.12,0,.23,0,.35s0,.25,0,.37q0,3.69,2.95,3.69,1.94,0,4.16-2.22a19,19,0,0,0,3.8-5.72h.11l-.55,2.74a14,14,0,0,0-.34,2.38c0,.11,0,.21,0,.32s0,.29,0,.4q0,2.11,2,2.11,2.44,0,5.5-3.28l.25-1.3-.17.19.17-.9Q94.44,126.6,93,126.6Zm-2.1-8.85a28.48,28.48,0,0,1-4,5.76Q84.73,126,83.53,126c-.78,0-1.21-.62-1.27-1.85A16.79,16.79,0,0,1,84,117.72q1.52-3.21,4.07-3.21a8.46,8.46,0,0,1,3.35.73Z"/><path class="e651a7e9-f6db-4af7-a977-e09c4d180083" d="M122.52,126.6a.71.71,0,0,1-.79-.61c0-.38.14-.93.28-1.66l1.36-6.82a10.39,10.39,0,0,0,.22-1.93c0-.1,0-.18,0-.27s0-.31,0-.45q0-2.63-2.47-2.63-1.76,0-3.87,2.22a19.9,19.9,0,0,0-3.66,5.71h-.05l.53-2.68a9.73,9.73,0,0,0,.24-1.94c0-.12,0-.23,0-.34s0-.26,0-.38a2.74,2.74,0,0,0-.64-1.85,2,2,0,0,0-1.57-.74q-1.79,0-3.91,2.15a22,22,0,0,0-3.91,5.78h-.05l.54-2.74a14.27,14.27,0,0,0,.32-2.36c0-.11,0-.21,0-.31s0-.29,0-.41q0-2.11-2-2.11-2.45,0-5.49,3.3l-.25,1.28.18-.19-.18.9q2.79-3.07,4.16-3.07a.71.71,0,0,1,.79.59c0,.38-.14.93-.28,1.65l-1.37,6.9-1,4.3h.17l-.17.73,2.93-.17,1-4.94a36.85,36.85,0,0,1,4-6q2-2.46,3.1-2.46c.48,0,.74.31.81.88,0,.25-.08.55-.15.93l-2.19,11.09h.14l-.14.72,2.74-.17,1-5.05q4.61-8.39,7-8.39c.49,0,.76.3.83.85,0,.25-.08.56-.16.93l-1.37,6.81a14.24,14.24,0,0,0-.34,2.37c0,.11,0,.22,0,.32s0,.28,0,.39q0,2.11,2,2.11,2.45,0,5.5-3.28l.25-1.3-.17.19.17-.9Q123.9,126.6,122.52,126.6Z"/><path class="e651a7e9-f6db-4af7-a977-e09c4d180083" d="M160.29,108.81q-2.07-1.74-6.74-1.74h-4q-11.21,0-11.93,8.29l.1,0c0,.25-.08.5-.1.76l2.71-1.31v-.31a5.09,5.09,0,0,1,1.77-4,6.78,6.78,0,0,1,4.51-1.54l-2.5,12.54a7.77,7.77,0,0,1-1.25,3.33,2.82,2.82,0,0,1-2.3.93h-.31a1.79,1.79,0,0,0-.36,0l-.21,0-2.05,2.07.68,0-.68.69,6.88.31,1.3,0q7.77,0,12.18-3.61a12.22,12.22,0,0,0,4.41-10c0-.14,0-.27,0-.41s0-.2,0-.31Q162.36,110.55,160.29,108.81Zm-3.58,14.28a7.86,7.86,0,0,1-3,2.89,10.36,10.36,0,0,1-4.49.79,24.25,24.25,0,0,1-4.12-.35l-1.62-.27a9.5,9.5,0,0,0,2.48-2.36,12.29,12.29,0,0,0,1.58-4.42l2.14-10.72h1.75q7.49,0,7.67,6.61A14.6,14.6,0,0,1,156.72,123.09Z"/><path class="e651a7e9-f6db-4af7-a977-e09c4d180083" d="M179.16,112.24q-1.89,0-4.16,2.22a19.73,19.73,0,0,0-3.93,5.72h0l.53-2.65a11.49,11.49,0,0,0,.25-2.26c0-.13,0-.24,0-.36s0-.24,0-.36q0-2.3-2-2.3-2.38,0-5.6,3.48l-.25,1.24.19-.21-.19.92q2.75-3.16,4.23-3.16c.48,0,.75.32.81.92a10.07,10.07,0,0,1-.18,1.35l-1.36,6.83-1,4.3h.17l-.17.73,3-.17,1-5.1q4.53-8,7.25-8a2.7,2.7,0,0,1,1.4.54l1.86-2.52a3.21,3.21,0,0,0-.39-.19l.39-.53A3.47,3.47,0,0,0,179.16,112.24Z"/><path class="e651a7e9-f6db-4af7-a977-e09c4d180083" d="M192.87,113.08a2.6,2.6,0,0,0-2-.84q-3.42,0-6.44,3.47a11.12,11.12,0,0,0-3,7.41c0,.1,0,.19,0,.28s0,.29,0,.43a5.21,5.21,0,0,0,1.24,3.6,4.11,4.11,0,0,0,3.22,1.39q3.13,0,7.57-3.1l.21-1.08-.16.11.16-.82q-3.72,2.57-6.3,2.57c-1.94,0-2.92-1.29-3-3.86v-.14a11.08,11.08,0,0,0,6.54-1.93,5.56,5.56,0,0,0,2.74-4.6c0-.12,0-.22,0-.33s0-.25,0-.38A3.1,3.1,0,0,0,192.87,113.08Zm-3.59,6.24a9,9,0,0,1-4.77,1.6,10.43,10.43,0,0,1,1.74-4.32q1.56-2.23,3.24-2.23c.94,0,1.45.59,1.53,1.77A4.25,4.25,0,0,1,189.28,119.32Z"/><path class="e651a7e9-f6db-4af7-a977-e09c4d180083" d="M204.55,112.24a6.33,6.33,0,0,0-4.12,1.47,4.3,4.3,0,0,0-1.8,3.38,2.23,2.23,0,0,0,0,.3,3.86,3.86,0,0,0,0,.41q0,1.37,1.86,3.41l1.27,1.4a5.94,5.94,0,0,1,1.54,2.38,1.89,1.89,0,0,1-.75,1.12,3.12,3.12,0,0,1-2,.61,6.2,6.2,0,0,1-3.7-1.33l-1.84,1.89.52.18-.52.54a11,11,0,0,0,3.91.82,7.4,7.4,0,0,0,4.51-1.47,4.16,4.16,0,0,0,2-3.34,2.2,2.2,0,0,0,0-.32,3.42,3.42,0,0,0,0-.4q0-1.36-1.87-3.47l-1.15-1.27a6.15,6.15,0,0,1-1.59-2.62c.16-1.18,1-1.78,2.68-1.78,1.44,0,2.23.5,2.39,1.5l0,.21h.05c0,.06,0,.12,0,.18a1.35,1.35,0,0,1,0,.29l0,.24h.89l.61-3.09-.13,0,.13-.68A9,9,0,0,0,204.55,112.24Z"/><path class="e651a7e9-f6db-4af7-a977-e09c4d180083" d="M217.47,112.24a6.33,6.33,0,0,0-4.12,1.47,4.3,4.3,0,0,0-1.8,3.38,2.23,2.23,0,0,0,0,.3,3.86,3.86,0,0,0,0,.41q0,1.37,1.86,3.41l1.27,1.4a5.94,5.94,0,0,1,1.54,2.38,1.89,1.89,0,0,1-.75,1.12,3.12,3.12,0,0,1-2,.61,6.2,6.2,0,0,1-3.7-1.33L208,127.28l.52.18L208,128a11,11,0,0,0,3.91.82,7.4,7.4,0,0,0,4.51-1.47,4.16,4.16,0,0,0,2-3.34,2.2,2.2,0,0,0,0-.32,3.42,3.42,0,0,0,0-.4q0-1.36-1.87-3.47l-1.15-1.27a6.15,6.15,0,0,1-1.59-2.62c.16-1.18,1-1.78,2.68-1.78,1.44,0,2.23.5,2.39,1.5l0,.21h.05c0,.06,0,.12,0,.18a1.35,1.35,0,0,1,0,.29l0,.24h.89l.61-3.09-.13,0,.13-.68A9,9,0,0,0,217.47,112.24Z"/><path class="e651a7e9-f6db-4af7-a977-e09c4d180083" d="M274.58,113.64a4.12,4.12,0,0,0-3.2-1.4q-3.59,0-6.64,3.42a11,11,0,0,0-3,7.44c0,.1,0,.18,0,.28s0,.29,0,.44a5.31,5.31,0,0,0,1.22,3.57,3.85,3.85,0,0,0,3.05,1.43,9.06,9.06,0,0,0,6.82-3.36,11,11,0,0,0,3-7.54c0-.09,0-.18,0-.27s0-.29,0-.45A5.12,5.12,0,0,0,274.58,113.64Zm-3.38,10.59q-1.57,2.66-3.64,2.66c-1.81,0-2.73-1.42-2.8-4.24a12,12,0,0,1,1.59-5.77q1.6-2.75,3.6-2.75c1.82,0,2.75,1.45,2.81,4.33A11.78,11.78,0,0,1,271.21,124.23Z"/><path class="e651a7e9-f6db-4af7-a977-e09c4d180083" d="M283.78,126.6A.71.71,0,0,1,283,126c0-.37.14-.91.28-1.64l1.37-6.9,1.06-4.47-.18.06.18-.78-6.83,2.24-.17.85.15,0-.15.76a9.68,9.68,0,0,1,2.25-.48c.53,0,.81.32.88.92s-.17,1.28-.36,2.29l-1,4.86a13.93,13.93,0,0,0-.32,2.35c0,.11,0,.21,0,.31s0,.29,0,.41q0,2.11,2,2.11,2.43,0,5.49-3.28l.25-1.3-.17.19.17-.9Q285.16,126.6,283.78,126.6Z"/><path class="e651a7e9-f6db-4af7-a977-e09c4d180083" d="M305.93,112.24l-3,.34a3.76,3.76,0,0,1,.47.66l-.47.05a3.4,3.4,0,0,1,.89,1.95c-.18,1.88-1.85,4.74-5.05,8.61l-1.14,1.38v-.77q0-12.23-4.86-12.23-2.18,0-4.72,3.35l-.41,2.07.21-.34-.21,1.05q1.94-3.35,3.69-3.35t2.73,3.19a29,29,0,0,1,1,8.16l-.06,1.73h0l0,.72,1.5-.35,5-5.83a60.87,60.87,0,0,0,4.15-5.18,5,5,0,0,0,1-2.64,2.26,2.26,0,0,0,0-.36,3.21,3.21,0,0,0,0-.36A3.42,3.42,0,0,0,305.93,112.24Z"/><path class="e651a7e9-f6db-4af7-a977-e09c4d180083" d="M339,112.77a9,9,0,0,0-2.85-.53,6.33,6.33,0,0,0-4.12,1.47,4.3,4.3,0,0,0-1.8,3.38,2.23,2.23,0,0,0,0,.3,3.86,3.86,0,0,0,0,.41q0,1.37,1.86,3.41l1.27,1.4a5.94,5.94,0,0,1,1.54,2.38,1.89,1.89,0,0,1-.75,1.12,3.12,3.12,0,0,1-2,.61,6.2,6.2,0,0,1-3.7-1.33l-1.84,1.89.52.18-.52.54a11,11,0,0,0,3.91.82,7.4,7.4,0,0,0,4.51-1.47,4.16,4.16,0,0,0,2-3.34,2.2,2.2,0,0,0,0-.32,3.42,3.42,0,0,0,0-.4q0-1.36-1.87-3.47L334,118.56a6.15,6.15,0,0,1-1.59-2.62c.16-1.18,1-1.78,2.68-1.78,1.44,0,2.23.5,2.39,1.5l0,.21h.05c0,.06,0,.12,0,.18a1.35,1.35,0,0,1,0,.29l0,.24h.89l.61-3.09-.13,0Z"/><path class="e651a7e9-f6db-4af7-a977-e09c4d180083" d="M264.77,109.54l1-1.89-.32-.11.32-.6a5.48,5.48,0,0,0-2-.39,6.44,6.44,0,0,0-5,2.28,13.36,13.36,0,0,0-2.88,6.46l-1.61,8.08a56,56,0,0,0-2.73-5.27l-1.77-3.16a62.79,62.79,0,0,1-3.79-7.87h-1.34a10.62,10.62,0,0,0-7,2.26,8.2,8.2,0,0,0-3,6l.09,0c0,.25-.07.5-.09.76l2.71-1.33a5.75,5.75,0,0,1,1.54-4.09,5,5,0,0,1,3.83-1.64,6.76,6.76,0,0,1,.87.09l-2.5,12.57a7.55,7.55,0,0,1-1.73,3.71,3.87,3.87,0,0,1-2.93,1.39,4.39,4.39,0,0,1-3.91-2.32l-2,2,.4.3-.4.41a6.77,6.77,0,0,0,4.36,1.58A7.42,7.42,0,0,0,240.7,126a16.8,16.8,0,0,0,3.4-7.84l1.06-5.38q.89,1.91,2.26,4.35l3.42,6.07a40.21,40.21,0,0,1,2.93,5.9l1.79-.61.66-4.14,2.1-10.52q1-5.25,4.05-5.25A3.92,3.92,0,0,1,264.77,109.54Z"/><polygon class="e651a7e9-f6db-4af7-a977-e09c4d180083" points="286.49 108.63 287.69 106.06 287.21 106.37 287.69 105.34 283.75 107.91 282.82 109.81 283.29 109.57 282.82 110.53 286.49 108.63"/><path class="e651a7e9-f6db-4af7-a977-e09c4d180083" d="M327,124.24l-.17.19.17-.9q-2.77,3.07-4.16,3.07a.71.71,0,0,1-.79-.6c0-.38.14-.92.28-1.66l1.36-6.9,1-4.14h-.17l.17-.71q-2.18-.17-4.18-.17a10.28,10.28,0,0,0-8.19,4,12.4,12.4,0,0,0-3.24,8c0,.12,0,.23,0,.35s0,.25,0,.37q0,3.69,2.95,3.69,1.94,0,4.16-2.22a19,19,0,0,0,3.8-5.72h.11l-.55,2.74a14.07,14.07,0,0,0-.34,2.38c0,.11,0,.21,0,.32s0,.28,0,.4q0,2.11,2,2.11,2.44,0,5.5-3.28Zm-6.27-6.49a28.48,28.48,0,0,1-4,5.76q-2.26,2.52-3.46,2.52c-.78,0-1.21-.62-1.27-1.85a16.79,16.79,0,0,1,1.77-6.46q1.52-3.21,4.07-3.21a8.46,8.46,0,0,1,3.35.73Z"/><path class="257862a5-1fa9-4db2-adf4-cee453cf9860" d="M149.09,154.37q0,.33-.7.33-2.33,0-4.71-2.54a20.63,20.63,0,0,1-3.88-6.29q-.6.07-1.81.11l-.73,6a1.9,1.9,0,0,0,0,.31.68.68,0,0,0,.31.64,3.93,3.93,0,0,0,1.23.33q.73.13.67.56t-.24.49a2,2,0,0,1-.6,0,43.26,43.26,0,0,0-5.35.11.79.79,0,0,1-.48-.06q-.12-.09-.11-.44t.67-.43a2.14,2.14,0,0,0,1.13-.39,1.88,1.88,0,0,0,.4-1.13l1.67-13.67c0-.1,0-.2,0-.29q0-1.1-1.27-1.38-.76-.17-.71-.5a.64.64,0,0,1,.23-.49,1.17,1.17,0,0,1,.68,0,11.85,11.85,0,0,0,1.7.09l1.92,0q1.53,0,2.83,0a6.49,6.49,0,0,1,4,1.16,3.77,3.77,0,0,1,1.52,3.16q0,3.77-4,5.07-.74.24-1.2.34a24.33,24.33,0,0,0,3,5.69q1.8,2.44,3.4,2.75A.42.42,0,0,1,149.09,154.37Zm-4.3-14.26a3.31,3.31,0,0,0-.9-2.61,4.78,4.78,0,0,0-3.2-.84,1.92,1.92,0,0,0-1.38.36,2.35,2.35,0,0,0-.36,1.2l-.86,6.62a12.19,12.19,0,0,0,4.32-.73A3.94,3.94,0,0,0,144.79,140.11Z"/><path class="257862a5-1fa9-4db2-adf4-cee453cf9860" d="M159.85,145.16a3.05,3.05,0,0,1-1.63,2.58,20.81,20.81,0,0,1-5.35,2.07,4,4,0,0,0,.77,2.48,2,2,0,0,0,1.58.76,4.57,4.57,0,0,0,2.58-.91q.48-.33.76-.2a.59.59,0,0,1,.3.5.54.54,0,0,1-.21.41,6.84,6.84,0,0,1-4.18,1.66q-3.77,0-3.77-4.3a7.57,7.57,0,0,1,1.87-5.28,5.51,5.51,0,0,1,4.24-2Q159.85,143,159.85,145.16Zm-2.28.53a1.55,1.55,0,0,0-.42-1.12,1.45,1.45,0,0,0-1.09-.44,2.55,2.55,0,0,0-2.07,1.26,6.5,6.5,0,0,0-1.08,3.51,15.58,15.58,0,0,0,3.69-1.55A2,2,0,0,0,157.56,145.69Z"/><path class="257862a5-1fa9-4db2-adf4-cee453cf9860" d="M173.35,152.14q-1.68,2.31-3.12,2.31-1.28,0-1.28-1.34a16.07,16.07,0,0,1,.31-2.68c0-.09,0-.15-.07-.16s-.14,0-.19.13q-2.48,4.2-4.94,4.2t-2.48-2.77a8.74,8.74,0,0,1,2.65-6.19q2.44-2.51,4.85-2.51a4.81,4.81,0,0,1,1.57.29q.21.07.5-.26.47-.53.78-.53a.74.74,0,0,1,.36.11.32.32,0,0,1,.19.31,5,5,0,0,1-.24.86,23.24,23.24,0,0,0-1.34,7.62q0,1.36.44,1.36t1.51-1.3h.07a.42.42,0,0,1,.29.18.52.52,0,0,1,.16.32A.11.11,0,0,1,173.35,152.14Zm-3.85-6.08a1.38,1.38,0,0,0-1.58-1.54q-1.36,0-2.75,1.88a7.08,7.08,0,0,0-1.48,4.31q0,2,1.48,2t3-2.71A8.27,8.27,0,0,0,169.49,146.06Z"/><path class="257862a5-1fa9-4db2-adf4-cee453cf9860" d="M180.52,135.18q-1.54,9-2.57,14.37-.56,2.88-.56,3,0,.39.53.39t1.51-1.28a.17.17,0,0,1,.1,0,.41.41,0,0,1,.29.17.51.51,0,0,1,.15.33.11.11,0,0,1,0,.1q-1.88,2.28-3.27,2.28t-1.4-1a31.36,31.36,0,0,1,.61-3.9q1.07-5.55,2.24-12.86.16-1-.23-1a12.56,12.56,0,0,0-2,.41c-.22.06-.33-.12-.33-.54q0-.17.09-.21a13.8,13.8,0,0,1,3.84-1.4q1,0,1,1A1.15,1.15,0,0,1,180.52,135.18Z"/><path class="257862a5-1fa9-4db2-adf4-cee453cf9860" d="M187.63,152.2q-1.84,2.28-3.21,2.28T183,153.37a30.15,30.15,0,0,1,.88-3.82Q185,145.43,185,145t-.51-.41q-.43,0-1.5,1.31a.1.1,0,0,1-.09,0,.44.44,0,0,1-.31-.19.54.54,0,0,1-.16-.34.14.14,0,0,1,0-.1q1.87-2.31,3.22-2.31t1.4,1.17a22.69,22.69,0,0,1-.86,3.81,39.34,39.34,0,0,0-1.07,4.47q0,.41.49.41t1.53-1.28a.08.08,0,0,1,.07,0,.44.44,0,0,1,.29.19.53.53,0,0,1,.16.33A.14.14,0,0,1,187.63,152.2Zm.53-14.37a1.7,1.7,0,0,1-.56,1.22,1.68,1.68,0,0,1-1.19.56,1.59,1.59,0,0,1-1.12-.4,1.35,1.35,0,0,1-.44-1,1.6,1.6,0,0,1,.57-1.17,1.72,1.72,0,0,1,1.18-.54Q188.16,136.46,188.16,137.83Z"/><path class="257862a5-1fa9-4db2-adf4-cee453cf9860" d="M199.93,143.91l-7.19,7.95a1.39,1.39,0,0,0-.27.33s.07,0,.16,0q.64-.06,1.08-.06t1.38.14a13.8,13.8,0,0,0,1.41.14,2.44,2.44,0,0,0,2-1.14.38.38,0,0,1,.54-.11q.37.1.19.43a6.61,6.61,0,0,0-.5,1.14,2.18,2.18,0,0,1-2.17,1.73,16.2,16.2,0,0,1-2.28-.28,16.13,16.13,0,0,0-2.41-.28,3.92,3.92,0,0,0-2,.56.1.1,0,0,1-.07,0,.42.42,0,0,1-.3-.19.54.54,0,0,1-.16-.33.14.14,0,0,1,0-.1q4.75-5.32,7.15-7.92.27-.29.27-.34s-.06,0-.14,0-.59,0-1.14,0a11,11,0,0,1-1.27-.14,10.91,10.91,0,0,0-1.28-.14,2,2,0,0,0-1.08.23,3.12,3.12,0,0,0-.79.91.36.36,0,0,1-.56.11q-.3-.1-.14-.43a10,10,0,0,0,.47-1.14,4,4,0,0,1,.63-1.37,1.93,1.93,0,0,1,1.36-.36,14.93,14.93,0,0,1,2.23.28,15,15,0,0,0,2.36.28,3.32,3.32,0,0,0,1.9-.56l.07,0a.53.53,0,0,1,.35.2.56.56,0,0,1,.19.36A.12.12,0,0,1,199.93,143.91Z"/><path class="257862a5-1fa9-4db2-adf4-cee453cf9860" d="M212.87,152.14q-1.68,2.31-3.12,2.31-1.28,0-1.28-1.34a16.11,16.11,0,0,1,.31-2.68c0-.09,0-.15-.07-.16s-.14,0-.19.13q-2.48,4.2-4.94,4.2t-2.48-2.77a8.74,8.74,0,0,1,2.65-6.19q2.44-2.51,4.85-2.51a4.81,4.81,0,0,1,1.57.29q.21.07.5-.26.47-.53.78-.53a.74.74,0,0,1,.36.11.32.32,0,0,1,.19.31,4.93,4.93,0,0,1-.24.86,23.25,23.25,0,0,0-1.34,7.62q0,1.36.44,1.36t1.51-1.3h.07a.42.42,0,0,1,.29.18.52.52,0,0,1,.16.32A.11.11,0,0,1,212.87,152.14ZM209,146.06a1.38,1.38,0,0,0-1.58-1.54q-1.36,0-2.75,1.88a7.08,7.08,0,0,0-1.48,4.31q0,2,1.48,2t3-2.71A8.26,8.26,0,0,0,209,146.06Z"/><path class="257862a5-1fa9-4db2-adf4-cee453cf9860" d="M226.24,152.2q-1.7,2.28-3.1,2.28t-1.46-1.17a32.33,32.33,0,0,1,.7-3.77,28.51,28.51,0,0,0,.61-3.27q0-1.47-1.34-1.47-1,0-2.27,1.93a14,14,0,0,0-1.86,4.85l-.41,2.11q-.11.63-1.23.7a1,1,0,0,1-.6-.09.36.36,0,0,1-.13-.39q.36-2,.7-3.94a25.14,25.14,0,0,0,.39-4q0-1.37-.44-1.37t-1.51,1.31l-.09,0a.42.42,0,0,1-.3-.19.55.55,0,0,1-.16-.34.2.2,0,0,1,0-.09q1.74-2.31,3.12-2.31t1.31,1.38a12,12,0,0,1-.23,2c0,.08,0,.12.1.14a.15.15,0,0,0,.19-.11q2.15-3.57,4.45-3.57t2.43,2.54a32.39,32.39,0,0,1-.8,4.07,21.16,21.16,0,0,0-.56,3q0,.41.5.41t1.5-1.28l.06,0a.42.42,0,0,1,.29.18.52.52,0,0,1,.16.32A.14.14,0,0,1,226.24,152.2Z"/><path class="257862a5-1fa9-4db2-adf4-cee453cf9860" d="M239.61,152.27q-1.74,2.3-3.12,2.3t-1.28-1.37a13.11,13.11,0,0,1,.2-2c0-.12,0-.19-.06-.2s-.13,0-.2.17a10.4,10.4,0,0,1-1.83,2.31,3.84,3.84,0,0,1-2.51,1.26,2.53,2.53,0,0,1-2.1-1A4.25,4.25,0,0,1,228,151a8.35,8.35,0,0,1,2-5.66q2-2.36,4.09-2.36a7.68,7.68,0,0,1,2.21.33s.11-.22.19-.7l.9-6q.16-1-.26-1a11.77,11.77,0,0,0-2.31.41q-.17,0-.3-.24t0-.37a14.63,14.63,0,0,1,4.05-1.54q1,0,1,1a1.78,1.78,0,0,1,0,.21q-.71,4.24-2.11,13a25.19,25.19,0,0,0-.34,3.48q0,1.37.44,1.37t1.51-1.31l.07,0a.42.42,0,0,1,.29.19.55.55,0,0,1,.16.34A.28.28,0,0,1,239.61,152.27ZM235.76,146q0-1.48-2.31-1.48a2.63,2.63,0,0,0-2.25,1.56,8.64,8.64,0,0,0-1,4.44q0,2.31,1.58,2.31,1.34,0,2.7-2.54A9.22,9.22,0,0,0,235.76,146Z"/><path class="257862a5-1fa9-4db2-adf4-cee453cf9860" d="M251.38,147.48a7.51,7.51,0,0,1-1.77,5.08,5.21,5.21,0,0,1-4,2q-4.12,0-4.12-4.67a7.1,7.1,0,0,1,1.86-5,5.34,5.34,0,0,1,4-1.86,3.81,3.81,0,0,1,3,1.21A4.88,4.88,0,0,1,251.38,147.48Zm-2.3.78q0-4-2.31-4a2.48,2.48,0,0,0-2.18,1.36,7,7,0,0,0-.83,3.68q0,4,2.43,4a2.37,2.37,0,0,0,2.11-1.36A7.25,7.25,0,0,0,249.09,148.26Z"/><path class="257862a5-1fa9-4db2-adf4-cee453cf9860" d="M273.86,139.47a.66.66,0,0,1-.56.61q-.54,0-.64-.36a4.34,4.34,0,0,0-1.36-2.52,4.64,4.64,0,0,0-2.85-.72,3.82,3.82,0,0,0-2.31.68,2.41,2.41,0,0,0-1,2.05,3.25,3.25,0,0,0,.62,2,10.82,10.82,0,0,0,2.48,2.11,19,19,0,0,1,3.84,3.2,4.39,4.39,0,0,1,1,2.83,4.81,4.81,0,0,1-1.93,4,7.19,7.19,0,0,1-4.54,1.38q-4.94,0-5.44-1.61a12.8,12.8,0,0,1-.41-2.4.78.78,0,0,1,.47-.9,1,1,0,0,1,.49-.11c.1,0,.21.17.31.4a5.17,5.17,0,0,0,7.61,2.54,2.79,2.79,0,0,0,1.16-2.4,3.15,3.15,0,0,0-.66-2,14.54,14.54,0,0,0-2.94-2.5,19.14,19.14,0,0,1-3.42-2.83,4.1,4.1,0,0,1-1-2.67,4.49,4.49,0,0,1,1.77-3.71,7.09,7.09,0,0,1,4.54-1.4,11,11,0,0,1,3.6.46,4.53,4.53,0,0,1,.7.33.82.82,0,0,1,.44.59A12.21,12.21,0,0,1,273.86,139.47Z"/><path class="257862a5-1fa9-4db2-adf4-cee453cf9860" d="M286.5,147.48a7.51,7.51,0,0,1-1.77,5.08,5.21,5.21,0,0,1-4,2q-4.12,0-4.12-4.67a7.1,7.1,0,0,1,1.86-5,5.34,5.34,0,0,1,4-1.86,3.81,3.81,0,0,1,3,1.21A4.88,4.88,0,0,1,286.5,147.48Zm-2.3.78q0-4-2.31-4a2.48,2.48,0,0,0-2.18,1.36,7,7,0,0,0-.83,3.68q0,4,2.43,4a2.37,2.37,0,0,0,2.11-1.36A7.25,7.25,0,0,0,284.2,148.26Z"/><path class="257862a5-1fa9-4db2-adf4-cee453cf9860" d="M300.47,152.2q-1.7,2.28-3.1,2.28t-1.46-1.17a32.33,32.33,0,0,1,.7-3.77,28.51,28.51,0,0,0,.61-3.27q0-1.47-1.34-1.47-1,0-2.27,1.93a14,14,0,0,0-1.86,4.85l-.41,2.11q-.11.63-1.23.7a1,1,0,0,1-.6-.09.36.36,0,0,1-.13-.39q.36-2,.7-3.94a25.14,25.14,0,0,0,.39-4q0-1.37-.44-1.37t-1.51,1.31l-.09,0a.42.42,0,0,1-.3-.19.55.55,0,0,1-.16-.34.2.2,0,0,1,0-.09q1.74-2.31,3.12-2.31t1.31,1.38a12,12,0,0,1-.23,2c0,.08,0,.12.1.14a.15.15,0,0,0,.19-.11q2.15-3.57,4.45-3.57t2.43,2.54a32.39,32.39,0,0,1-.8,4.07,21.16,21.16,0,0,0-.56,3q0,.41.5.41t1.5-1.28l.06,0a.42.42,0,0,1,.29.18.52.52,0,0,1,.16.32A.14.14,0,0,1,300.47,152.2Z"/><path class="257862a5-1fa9-4db2-adf4-cee453cf9860" d="M313.9,152.2q-1.73,2.28-3.12,2.28t-1.44-1.17a36.53,36.53,0,0,1,.77-3.77,28.1,28.1,0,0,0,.64-3.27,1.29,1.29,0,0,0-1.44-1.47q-1.11,0-2.33,1.93a12.94,12.94,0,0,0-1.76,4.85l-.36,2.11q-.1.61-1.34.7a1.08,1.08,0,0,1-.61-.09.34.34,0,0,1-.15-.39q1.34-9.53,2.13-17.24.1-1-.29-1a8.58,8.58,0,0,0-2,.39q-.13,0-.24-.16a.8.8,0,0,1-.11-.4c0-.09,0-.15.07-.17a12.58,12.58,0,0,1,3.77-1.4q1.23,0,1.23,1a1.1,1.1,0,0,1,0,.24q-.67,4.12-1.9,11.3a.12.12,0,0,0,.1.14.17.17,0,0,0,.2-.11,10.43,10.43,0,0,1,1.94-2.31,4.26,4.26,0,0,1,2.7-1.26,2.56,2.56,0,0,1,1.8.63,2.47,2.47,0,0,1,.74,1.91,36.31,36.31,0,0,1-.84,4.07q-.64,2.71-.64,3,0,.41.47.41t1.54-1.28l.07,0a.42.42,0,0,1,.29.16.48.48,0,0,1,.15.32A.15.15,0,0,1,313.9,152.2Z"/><path class="257862a5-1fa9-4db2-adf4-cee453cf9860" d="M325.76,147.48a7.51,7.51,0,0,1-1.77,5.08,5.21,5.21,0,0,1-4,2q-4.12,0-4.12-4.67a7.1,7.1,0,0,1,1.86-5,5.34,5.34,0,0,1,4-1.86,3.81,3.81,0,0,1,3,1.21A4.88,4.88,0,0,1,325.76,147.48Zm-2.3.78q0-4-2.31-4a2.48,2.48,0,0,0-2.18,1.36,7,7,0,0,0-.83,3.68q0,4,2.43,4a2.37,2.37,0,0,0,2.11-1.36A7.25,7.25,0,0,0,323.46,148.26Z"/><path class="257862a5-1fa9-4db2-adf4-cee453cf9860" d="M336.49,144.22a7.9,7.9,0,0,1-.29,1.37.45.45,0,0,1-.44.33,1.22,1.22,0,0,1-1-.67,2.4,2.4,0,0,0-2.13-1.2,1.89,1.89,0,0,0-1.27.41,1.18,1.18,0,0,0-.43.9,1.65,1.65,0,0,0,.53,1.2,10.64,10.64,0,0,0,1.08.83,17,17,0,0,1,2.44,1.93,2.46,2.46,0,0,1,.66,1.7,3.1,3.1,0,0,1-1.27,2.57,5.28,5.28,0,0,1-3.32,1q-3.38,0-3.38-1.63t.61-1.67a1.31,1.31,0,0,1,1.11.78,2.53,2.53,0,0,0,2.33,1.41q1.81,0,1.81-1.44a1.79,1.79,0,0,0-.34-1.12,6.55,6.55,0,0,0-1.44-1.19,11.48,11.48,0,0,1-2.2-1.78,2.34,2.34,0,0,1-.57-1.55,3.07,3.07,0,0,1,1.21-2.46,4.57,4.57,0,0,1,3-1Q336.7,142.94,336.49,144.22Z"/></g></g></svg>