<svg xmlns="http://www.w3.org/2000/svg" viewBox="0 0 359.16 154.75"><defs><style>.\34 44778af-62eb-4ef2-9941-27437f25b820,.e740bac2-6b69-4371-9aac-273368053364{fill:#da1a5d;}.\34 44778af-62eb-4ef2-9941-27437f25b820{stroke:#da1a5d;stroke-miterlimit:10;stroke-width:2px;}</style></defs><title>Asset 1</title><g id="f2b2e830-7014-4674-80a9-7cee91baf80e" data-name="Layer 2"><g id="e8323d91-04ef-423e-a220-fdd3af414a9a" data-name="Layer 2"><g id="7016be82-a9a2-45d0-8687-3c23805233d2" data-name="&lt;Group&gt;"><path id="555ed089-f399-4652-9276-ea658e68bc6a" data-name="&lt;Path&gt;" class="e740bac2-6b69-4371-9aac-273368053364" d="M69.64,51.78a1.12,1.12,0,0,0,.92.27c.45,0,1.09-.14,2-.27a11.6,11.6,0,0,1,3.47,0A12.48,12.48,0,0,1,81.19,54a12,12,0,0,1,2.68,2.61,8.48,8.48,0,0,1,1.62,3.66,11.44,11.44,0,0,1-.29,5,15.8,15.8,0,0,1-2.84,5.55,19.84,19.84,0,0,1-5.59,4.92,22.58,22.58,0,0,1-8.16,2.69,21.66,21.66,0,0,1-2.37.19c-.81,0-1.63,0-2.47,0a27.39,27.39,0,0,1-5.1-.9,26,26,0,0,1-5.09-2,25.28,25.28,0,0,1-2.41-1.48c-.38-.28-.81-.52-1.16-.84l-1.11-.93a21.22,21.22,0,0,1-6.23-9.94,25.69,25.69,0,0,1-.4-12.73,26.45,26.45,0,0,1,2.24-6.17,23.42,23.42,0,0,1,3.88-5.24,23.85,23.85,0,0,1,2.56-2.17l.68-.5a4.94,4.94,0,0,1,.7-.48l1.47-.87a27.79,27.79,0,0,1,6.47-2.54A39.08,39.08,0,0,1,74.68,31a51.11,51.11,0,0,1,14.17,3.85,86.24,86.24,0,0,1,12.9,7.25c4.07,2.75,7.93,5.7,11.66,8.63,7.45,5.87,14.46,11.63,21.4,16a76.46,76.46,0,0,0,19.4,9.1l1.07.32,1.06.26,2,.48,1.94.34.92.16.9.1c1.18.13,2.27.27,3.28.28s1.93.1,2.75,0,1.55,0,2.18-.08l1.58-.17,1.3-.14-1.31,0-1.58,0c-.63,0-1.35-.06-2.17-.1s-1.72-.15-2.7-.27-2.05-.31-3.19-.54l-.87-.17-.89-.23-1.86-.48L156.73,75l-1-.33-1-.39a75.72,75.72,0,0,1-18.1-10.23c-6.4-4.69-12.85-10.78-20-17.19-3.57-3.2-7.33-6.48-11.42-9.62A90.08,90.08,0,0,0,91.8,28.63a57.3,57.3,0,0,0-16-5.28,46.38,46.38,0,0,0-17.47.25,36,36,0,0,0-8.58,3l-2,1.1a8.54,8.54,0,0,0-1,.61l-1,.65a30.43,30.43,0,0,0-9.44,10.17,35.26,35.26,0,0,0-3.38,8.48,34.74,34.74,0,0,0,.2,17.68,30.72,30.72,0,0,0,3.52,8.07l1.2,1.84,1.37,1.7a16.44,16.44,0,0,0,1.45,1.59c.51.5,1,1,1.53,1.49l1.61,1.35c.53.45,1.12.81,1.68,1.21a34.6,34.6,0,0,0,3.44,2.08,35.15,35.15,0,0,0,7.14,2.73,36.31,36.31,0,0,0,7.1,1.14c1.17,0,2.32.07,3.45,0A30.57,30.57,0,0,0,70,88.09a31.14,31.14,0,0,0,11.75-4.31,28,28,0,0,0,8-7.68,23.53,23.53,0,0,0,3.84-9,8.82,8.82,0,0,0,.18-1.15l.12-1.14c0-.76,0-1.51,0-2.24s-.11-1.45-.23-2.15-.26-1.35-.45-2a15.37,15.37,0,0,0-3.88-6.56,17.19,17.19,0,0,0-4.9-3.48,15,15,0,0,0-8.51-1.44,9.7,9.7,0,0,0-4.79,2,4.59,4.59,0,0,0-1.52,2C69.4,51.31,69.48,51.6,69.64,51.78Z"/></g><g id="55d502a7-c1ef-4f6f-8e18-163dbcbac21e" data-name="&lt;Group&gt;"><path id="72655e65-d62b-48cf-9037-23fca8d9fa87" data-name="&lt;Path&gt;" class="e740bac2-6b69-4371-9aac-273368053364" d="M34.73,18.65c.26.43.86.75,2.11.71.63,0,1.39-.17,2.43-.29.51-.07,1.08-.17,1.7-.3s1.34-.17,2.1-.3A54.44,54.44,0,0,1,48.65,18a48.07,48.07,0,0,1,7.76.43,55.27,55.27,0,0,1,10.14,2.42,59.62,59.62,0,0,1,12.21,5.73,117.28,117.28,0,0,1,13.39,9.65C96.66,39.9,101.22,44,105.91,48c2.34,2,4.73,4.07,7.15,6s4.83,3.86,7.3,5.69a106.45,106.45,0,0,0,15,9.53A77.12,77.12,0,0,0,150,75.07c2.31.57,4.47,1.14,6.53,1.44,1,.16,2,.38,3,.47l2.73.28,1.26.13,1.2,0,2.19.07a34.62,34.62,0,0,0,3.48,0l2.93-.12L170.34,77c-.94-.1-2.09-.19-3.41-.46l-2.13-.37L163.64,76l-1.21-.29-2.6-.63c-.9-.21-1.82-.55-2.78-.83-1.93-.54-3.93-1.37-6-2.18A78,78,0,0,1,137.93,65a111.64,111.64,0,0,1-13.21-10.51c-2.17-2-4.38-4.06-6.54-6.16s-4.32-4.26-6.48-6.45C107.37,37.5,103,33,98.39,28.92A97.39,97.39,0,0,0,84,18a60,60,0,0,0-14.48-6.47,51.36,51.36,0,0,0-12.32-2.1,39.64,39.64,0,0,0-9.48.71,30.56,30.56,0,0,0-6.51,2.11c-.85.42-1.6.79-2.25,1.17s-1.19.81-1.67,1.17a8.85,8.85,0,0,0-2,1.93C34.46,17.6,34.47,18.23,34.73,18.65Z"/></g><g id="8c9fc4e0-02b4-422d-9540-b4ff9001f2f5" data-name="&lt;Group&gt;"><path id="ef773b3d-771e-4638-b694-b97add5e50a4" data-name="&lt;Path&gt;" class="e740bac2-6b69-4371-9aac-273368053364" d="M129.3,24.57a1.24,1.24,0,0,0-1-.66,5.05,5.05,0,0,0-3,.74,13.47,13.47,0,0,0-4.85,4.62,20,20,0,0,0-3.06,11.31A22.63,22.63,0,0,0,119,48.11a27.93,27.93,0,0,0,3.94,6.81,34.31,34.31,0,0,0,5.34,5.45,44.56,44.56,0,0,0,5.78,4,79,79,0,0,0,9.75,4.7c2.48,1,4,1.59,4,1.59l-3.48-2.5c-2.16-1.57-5.19-3.75-8.31-6.5a40.82,40.82,0,0,1-8.43-9.9A27.43,27.43,0,0,1,125,46a21.84,21.84,0,0,1-1-5.58,19.65,19.65,0,0,1,1.63-8.19A28.46,28.46,0,0,1,128.08,28a11.41,11.41,0,0,0,1.24-2.18A1.52,1.52,0,0,0,129.3,24.57Z"/></g><g id="9b97cd35-f3cb-42c2-8fdf-e6dc2e624879" data-name="&lt;Group&gt;"><path id="29ba6a70-171b-4cac-8ca8-02b6d3a4995f" data-name="&lt;Path&gt;" class="e740bac2-6b69-4371-9aac-273368053364" d="M138.3,11.83c.31-.13.58-.44.59-1.28a4.39,4.39,0,0,0-.05-.74,9.62,9.62,0,0,0-.26-.93l-.2-.56c-.08-.19-.19-.38-.29-.59a8.81,8.81,0,0,0-.82-1.34A10.92,10.92,0,0,0,136,4.93a14,14,0,0,0-1.74-1.53A17.53,17.53,0,0,0,129,.79a19,19,0,0,0-7.88-.64c-.38.05-.76.14-1.15.21a9,9,0,0,0-1.18.28l-1.2.36-1.17.47a20.65,20.65,0,0,0-4.61,2.76,23.8,23.8,0,0,0-6.94,9.23,26,26,0,0,0-1.7,5.76,26.84,26.84,0,0,0-.33,6,32.47,32.47,0,0,0,2.74,11.21A41.5,41.5,0,0,0,111,45.53,69.49,69.49,0,0,0,122.68,56.9c1.58,1.25,2.87,2.22,3.76,2.87l1.38,1-1.19-1.23c-.77-.8-1.88-2-3.24-3.42a75.78,75.78,0,0,1-9.62-12.49,40.59,40.59,0,0,1-3.93-8.78,29.54,29.54,0,0,1-1.39-9.7,21.84,21.84,0,0,1,2.22-9,19.63,19.63,0,0,1,5.27-6.64,15.5,15.5,0,0,1,3.14-1.92l.78-.34.76-.25a4.68,4.68,0,0,1,.75-.21c.25-.05.49-.13.74-.17a15.46,15.46,0,0,1,5.41,0,17.16,17.16,0,0,1,4,1.27,15.65,15.65,0,0,1,1.46.78,12.82,12.82,0,0,1,1.18.75c.37.22.65.48.94.69l.41.3.34.29c.22.18.43.34.63.47s.34.27.49.36A1.45,1.45,0,0,0,138.3,11.83Z"/></g><g id="55884b61-047c-469c-955e-882d9b412d53" data-name="&lt;Group&gt;"><path id="9b2cee5b-588a-4807-994f-a132c8e1dbe0" data-name="&lt;Path&gt;" class="e740bac2-6b69-4371-9aac-273368053364" d="M112.26,80.14c.39.56,1.21,1,3.16.54s5.09-1.78,10.87-3.48a71.45,71.45,0,0,1,9.66-2,53.64,53.64,0,0,1,10.1-.36A50.09,50.09,0,0,1,154,76c1,.24,1.77.49,2.32.63l.85.23-.72-.49c-.48-.31-1.15-.8-2-1.33a40.21,40.21,0,0,0-7.67-3.49,41.14,41.14,0,0,0-11-2,37.16,37.16,0,0,0-11.23,1.2q-1.26.39-2.37.76c-.75.23-1.41.56-2.05.82A23.81,23.81,0,0,0,116.84,74a16,16,0,0,0-2.25,1.6A9.49,9.49,0,0,0,113.14,77C111.71,78.71,111.89,79.6,112.26,80.14Z"/></g><g id="ec5c1477-3ed8-4a08-b711-15c35086c37e" data-name="&lt;Group&gt;"><path id="b0091d65-2feb-4245-94c7-fa48946a6b49" data-name="&lt;Path&gt;" class="e740bac2-6b69-4371-9aac-273368053364" d="M59.14,69.29l-.31-.38c-.2-.25-.52-.57-.86-1.05a21,21,0,0,1-2.43-4A21.43,21.43,0,0,1,54,50.3a21.43,21.43,0,0,1,7.36-11.43,21,21,0,0,1,4-2.55c.52-.28.95-.42,1.24-.56l.45-.2-.48-.09a11.14,11.14,0,0,0-1.4-.18,15.12,15.12,0,0,0-5.27.59,17.87,17.87,0,0,0-3.5,1.43,18.69,18.69,0,0,0-3.6,2.57A17.19,17.19,0,0,0,48.28,59.1,18.69,18.69,0,0,0,50.37,63a17.87,17.87,0,0,0,2.51,2.83,15.12,15.12,0,0,0,4.47,2.86,11.13,11.13,0,0,0,1.33.46Z"/></g><g id="9c7bf8e7-ed41-4975-a130-f0c4d6f7bfe2" data-name="&lt;Group&gt;"><path id="187cd7cf-9285-4a1f-8fee-8fd8feaaaef5" data-name="&lt;Path&gt;" class="e740bac2-6b69-4371-9aac-273368053364" d="M76.76,67.8l-.33-.09c-.21-.06-.52-.12-.91-.25a17.4,17.4,0,0,1-3-1.19,18.89,18.89,0,0,1-10-13.55,17.4,17.4,0,0,1-.26-3.18c0-.41,0-.72,0-.94v-.34l-.27.21a7.58,7.58,0,0,0-.73.66,10.33,10.33,0,0,0-2.08,3.05,12.21,12.21,0,0,0-1.07,5.59,12.26,12.26,0,0,0,8.22,11.17,12.21,12.21,0,0,0,5.65.64,10.33,10.33,0,0,0,3.53-1.08,7.58,7.58,0,0,0,.84-.51Z"/></g><g id="6ca76133-abde-4e44-934c-76a5675a3f14" data-name="&lt;Group&gt;"><path id="e247885a-4f3e-42bb-af27-f909ef06d6cf" data-name="&lt;Path&gt;" class="e740bac2-6b69-4371-9aac-273368053364" d="M99.74,48.63s.26.62.8,1.73l.46.92c.18.33.39.67.61,1.05a28.09,28.09,0,0,0,1.63,2.49l1,1.39c.37.48.79.94,1.22,1.44a36.15,36.15,0,0,0,2.93,3,35.62,35.62,0,0,0,16.91,8.53,36.15,36.15,0,0,0,4.13.59c.65,0,1.27.12,1.88.13h1.74a28.1,28.1,0,0,0,3-.17c.44,0,.84-.08,1.21-.13l1-.18c1.21-.22,1.87-.38,1.87-.38s-.64-.26-1.78-.66l-.94-.33-1.11-.42c-.79-.31-1.68-.6-2.65-1l-1.51-.6c-.52-.2-1.06-.46-1.61-.69-1.12-.44-2.27-1-3.49-1.52-2.42-1.12-5-2.36-7.73-3.71s-5.24-2.73-7.58-4c-1.15-.67-2.28-1.27-3.3-1.9-.51-.31-1-.59-1.51-.89l-1.38-.86c-.91-.53-1.68-1.07-2.39-1.53l-1-.64-.82-.56C100.33,49,99.74,48.63,99.74,48.63Z"/></g><g id="19b3f23e-aefe-43a8-a44c-6e9b3347e22d" data-name="&lt;Group&gt;"><path id="64ede0e2-780f-4724-a439-6d875faed7be" data-name="&lt;Path&gt;" class="e740bac2-6b69-4371-9aac-273368053364" d="M135.85,38.3s.62.68,1.74,1.77l4.6,4.47,3.06,2.93c1.1,1,2.23,2.13,3.44,3.21,2.39,2.24,5,4.56,7.85,6.85s5.62,4.42,8.29,6.31c1.31,1,2.63,1.85,3.83,2.73L172.15,69l5.31,3.61c1.3.88,2.09,1.34,2.09,1.34s-.07-.89-.33-2.47L179,70.15c-.1-.48-.23-1-.37-1.53A34.51,34.51,0,0,0,177.49,65q-.37-1-.8-2.07c-.29-.72-.65-1.43-1-2.18a40.16,40.16,0,0,0-26.09-21.28c-.81-.2-1.57-.41-2.33-.55s-1.49-.26-2.19-.37a34.51,34.51,0,0,0-3.81-.36c-.56,0-1.08-.05-1.57-.05l-1.34,0C136.74,38.19,135.85,38.3,135.85,38.3Z"/></g><g id="52c0ecda-d29d-416f-a24e-3577d69aa25f" data-name="&lt;Group&gt;"><path id="771b7299-2077-4323-9127-816b5cf93765" data-name="&lt;Path&gt;" class="e740bac2-6b69-4371-9aac-273368053364" d="M153,16.7a57.57,57.57,0,0,0,8.78,21.67,57.57,57.57,0,0,0,17,16A57.57,57.57,0,0,0,170,32.7,57.57,57.57,0,0,0,153,16.7Z"/></g><g id="5d7d8504-a8ca-445f-a838-1696e1c59fdf" data-name="&lt;Group&gt;"><path id="f861563d-eefc-418c-b095-28d23d328d2c" data-name="&lt;Path&gt;" class="e740bac2-6b69-4371-9aac-273368053364" d="M157.49,36.62h.22a1.67,1.67,0,0,1,0,3.35h-.22a1.67,1.67,0,0,1,0-3.35Z"/></g><g id="88dabe27-7409-45eb-bdc8-95c21e710e65" data-name="&lt;Group&gt;"><path id="9ca3f6df-f73f-4782-97ed-df267f7c32d3" data-name="&lt;Path&gt;" class="e740bac2-6b69-4371-9aac-273368053364" d="M152.8,37.29a1.67,1.67,0,0,1,0-3.35,1.67,1.67,0,0,1,0,3.35Z"/></g><g id="c5f18be8-4330-4cfe-aba2-b51cdc70eca3" data-name="&lt;Group&gt;"><path id="88a045fe-743d-42bf-abef-e34c4fe8db56" data-name="&lt;Path&gt;" class="e740bac2-6b69-4371-9aac-273368053364" d="M146.78,35.73a1.67,1.67,0,0,1,0-3.35,1.67,1.67,0,0,1,0,3.35Z"/></g><g id="ae6f9c77-c8e4-4c0d-a6d9-8799d02f6b59" data-name="&lt;Group&gt;"><path id="c53527e2-8d56-4b01-b97b-31b5e30ff00f" data-name="&lt;Path&gt;" class="e740bac2-6b69-4371-9aac-273368053364" d="M141,36.18a1.67,1.67,0,0,1,0-3.35,1.67,1.67,0,0,1,0,3.35Z"/></g><g id="d7daad7c-6dda-4ada-8d1e-edd70574da7e" data-name="&lt;Group&gt;"><path id="a8369f9a-1524-44dc-bf42-6792df54a847" data-name="&lt;Path&gt;" class="e740bac2-6b69-4371-9aac-273368053364" d="M130.26,12.3H130A1.67,1.67,0,0,1,130,9h.22a1.67,1.67,0,1,1,0,3.35Z"/></g><g id="56ecb3b4-96c5-4dcd-bb5e-f35fe1484df8" data-name="&lt;Group&gt;"><path id="d43f7883-09a0-45a1-beed-775df94d5086" data-name="&lt;Path&gt;" class="e740bac2-6b69-4371-9aac-273368053364" d="M125.13,11.41a1.67,1.67,0,0,1,0-3.35,1.67,1.67,0,0,1,0,3.35Z"/></g><g id="8e1bf1f4-1232-46a6-bc01-190fbe2eb4ef" data-name="&lt;Group&gt;"><path id="c925a94b-f54d-4221-9185-c8814afdd0f2" data-name="&lt;Path&gt;" class="e740bac2-6b69-4371-9aac-273368053364" d="M119.77,13a1.67,1.67,0,0,1,0-3.35,1.67,1.67,0,0,1,0,3.35Z"/></g><g id="c8f15e61-e11c-4754-b226-0847c4b0a649" data-name="&lt;Group&gt;"><path id="63ceb07e-8818-4b97-b559-fd004b303c28" data-name="&lt;Path&gt;" class="e740bac2-6b69-4371-9aac-273368053364" d="M115.76,18.55a1.67,1.67,0,0,1,0-3.35,1.67,1.67,0,0,1,0,3.35Z"/></g><g id="0d70346a-81b8-4d9c-8f03-29385026bdec" data-name="&lt;Group&gt;"><path id="fad70afe-5690-4608-9fe8-f33126a66885" data-name="&lt;Path&gt;" class="e740bac2-6b69-4371-9aac-273368053364" d="M43.8,14.82l.49-.25c.33-.15.78-.44,1.41-.69a27,27,0,0,1,5.5-1.81,33.08,33.08,0,0,1,8.68-.68,41.34,41.34,0,0,1,10.64,2,68.14,68.14,0,0,1,18.24,9.77c2.23,1.62,4,3,5.24,4l1.91,1.53s-.58-.65-1.67-1.79-2.69-2.75-4.77-4.61a62.83,62.83,0,0,0-7.71-5.92,46.2,46.2,0,0,0-10.53-5.12A35.43,35.43,0,0,0,59.92,9.49a29.22,29.22,0,0,0-9,1.5,23.36,23.36,0,0,0-5.37,2.58c-.6.35-1,.72-1.3.92Z"/><path id="67801ae7-e238-40e0-a327-ead2896cfb6c" data-name="&lt;Path&gt;" class="e740bac2-6b69-4371-9aac-273368053364" d="M44.56,8.83l.55-.2c.36-.12.89-.32,1.57-.54a38,38,0,0,1,5.92-1.3A44.68,44.68,0,0,1,72,8.78a73.26,73.26,0,0,1,17.59,8.9c2.12,1.42,3.79,2.65,4.95,3.49l1.79,1.33L94.8,20.9c-1-1-2.52-2.46-4.5-4.13a61,61,0,0,0-7.37-5.35A48.37,48.37,0,0,0,72.74,6.63,39.23,39.23,0,0,0,61.57,4.72a34.94,34.94,0,0,0-9.19,1,31.6,31.6,0,0,0-5.84,2.08c-.65.32-1.15.61-1.48.78Z"/><path id="8b3ecd3d-2407-4738-9d82-61da1da6fcc0" data-name="&lt;Path&gt;" class="e740bac2-6b69-4371-9aac-273368053364" d="M50.46,2.3l.48-.08c.32-.06.78-.12,1.38-.18s1.33-.16,2.19-.2l1.36-.08,1.52,0a49.25,49.25,0,0,1,7.38.54,54.25,54.25,0,0,1,8.71,2.07A73.64,73.64,0,0,1,87.94,11c1.75,1,3.11,1.91,4.06,2.52.48.3.84.54,1.08.71l.38.25-.34-.3c-.22-.2-.55-.49-1-.85-.86-.73-2.13-1.77-3.79-3A52.84,52.84,0,0,0,74,2.93a42.86,42.86,0,0,0-9-1.89,40.37,40.37,0,0,0-7.57,0l-1.53.16-1.36.22c-.85.12-1.58.31-2.17.44s-1.05.25-1.36.34Z"/></g><g id="064b4105-9acc-4553-a9bc-1d35c85b003e" data-name="&lt;Group&gt;"><path id="e406b45f-7819-453d-9170-cab494a42f24" data-name="&lt;Path&gt;" class="e740bac2-6b69-4371-9aac-273368053364" d="M141.79,57.41a43.3,43.3,0,0,0,13,10.3,43.3,43.3,0,0,0,16,4.33,41.28,41.28,0,0,0-29.06-14.63Z"/></g><g id="49cc28b5-7afe-4a40-a211-3a3a104f4c79" data-name="&lt;Group&gt;"><path id="d6531d9f-c3af-4fac-a470-0c1dc80f65b5" data-name="&lt;Path&gt;" class="e740bac2-6b69-4371-9aac-273368053364" d="M7.13,32.45a2.44,2.44,0,0,0-1.73,0,5.1,5.1,0,0,0-2.31,2A16.2,16.2,0,0,0,.73,40.12,30.26,30.26,0,0,0,.27,50.91,34.26,34.26,0,0,0,5.32,64.69,36.93,36.93,0,0,0,15.24,75a36.14,36.14,0,0,0,9.51,4.77c1.25.39,2.25.67,3,.81l1.07.23-.9-.63c-.58-.39-1.4-1-2.38-1.79A41.45,41.45,0,0,1,12.85,60.83a50.38,50.38,0,0,1-2.63-11.19,80,80,0,0,1-.53-8.44,44.41,44.41,0,0,0-.31-5,6.31,6.31,0,0,0-.9-2.65A2.74,2.74,0,0,0,7.13,32.45Z"/></g><g id="e6565858-a3fb-48d4-a6f3-3f19098a70d0" data-name="&lt;Group&gt;"><path id="9d0b9cc5-300d-4f3e-b49d-6b9db5ebec64" data-name="&lt;Path&gt;" class="e740bac2-6b69-4371-9aac-273368053364" d="M289.52,51.78a1.12,1.12,0,0,1-.92.27c-.45,0-1.09-.14-2-.27a11.6,11.6,0,0,0-3.47,0A12.48,12.48,0,0,0,278,54a12,12,0,0,0-2.68,2.61,8.48,8.48,0,0,0-1.62,3.66,11.44,11.44,0,0,0,.29,5,15.8,15.8,0,0,0,2.84,5.55,19.84,19.84,0,0,0,5.59,4.92,22.58,22.58,0,0,0,8.16,2.69,21.66,21.66,0,0,0,2.37.19c.81,0,1.63,0,2.47,0a27.39,27.39,0,0,0,5.1-.9,26,26,0,0,0,5.09-2A25.28,25.28,0,0,0,308,74.23c.38-.28.81-.52,1.16-.84l1.11-.93a21.22,21.22,0,0,0,6.23-9.94,25.69,25.69,0,0,0,.4-12.73,26.45,26.45,0,0,0-2.24-6.17,23.42,23.42,0,0,0-3.88-5.24,23.85,23.85,0,0,0-2.56-2.17l-.68-.5a4.94,4.94,0,0,0-.7-.48l-1.47-.87a27.79,27.79,0,0,0-6.47-2.54A39.08,39.08,0,0,0,284.48,31a51.11,51.11,0,0,0-14.17,3.85,86.24,86.24,0,0,0-12.9,7.25c-4.07,2.75-7.93,5.7-11.66,8.63-7.45,5.87-14.46,11.63-21.4,16a76.46,76.46,0,0,1-19.4,9.1l-1.07.32-1.06.26-2,.48-1.94.34-.92.16-.9.1c-1.18.13-2.27.27-3.28.28s-1.93.1-2.75,0-1.55,0-2.18-.08l-1.58-.17-1.3-.14,1.31,0,1.58,0c.63,0,1.35-.06,2.17-.1s1.72-.15,2.7-.27,2.05-.31,3.19-.54l.87-.17.89-.23,1.86-.48,1.94-.62,1-.33,1-.39a75.72,75.72,0,0,0,18.1-10.23c6.4-4.69,12.85-10.78,20-17.19,3.57-3.2,7.33-6.48,11.42-9.62a90.08,90.08,0,0,1,13.42-8.61,57.3,57.3,0,0,1,16-5.28,46.38,46.38,0,0,1,17.47.25,36,36,0,0,1,8.58,3l2,1.1a8.54,8.54,0,0,1,1,.61l1,.65a30.43,30.43,0,0,1,9.44,10.17,35.26,35.26,0,0,1,3.38,8.48,34.74,34.74,0,0,1-.2,17.68,30.72,30.72,0,0,1-3.52,8.07l-1.2,1.84-1.37,1.7a16.44,16.44,0,0,1-1.45,1.59c-.51.5-1,1-1.53,1.49l-1.61,1.35c-.53.45-1.12.81-1.68,1.21a34.6,34.6,0,0,1-3.44,2.08,35.15,35.15,0,0,1-7.14,2.73,36.31,36.31,0,0,1-7.1,1.14c-1.17,0-2.32.07-3.45,0a30.57,30.57,0,0,1-3.34-.34,31.14,31.14,0,0,1-11.75-4.31,28,28,0,0,1-8-7.68,23.53,23.53,0,0,1-3.84-9,8.82,8.82,0,0,1-.18-1.15l-.12-1.14c0-.76,0-1.51,0-2.24s.11-1.45.23-2.15.26-1.35.45-2a15.37,15.37,0,0,1,3.88-6.56,17.19,17.19,0,0,1,4.9-3.48,15,15,0,0,1,8.51-1.44,9.7,9.7,0,0,1,4.79,2,4.59,4.59,0,0,1,1.52,2C289.76,51.31,289.68,51.6,289.52,51.78Z"/></g><g id="7dce26b5-e941-4815-86ff-3ca5e62fb46f" data-name="&lt;Group&gt;"><path id="d1815ad7-886a-4af9-bdba-917be7efbdcd" data-name="&lt;Path&gt;" class="e740bac2-6b69-4371-9aac-273368053364" d="M324.43,18.65c-.26.43-.86.75-2.11.71-.63,0-1.39-.17-2.43-.29-.51-.07-1.08-.17-1.7-.3s-1.34-.17-2.1-.3a54.44,54.44,0,0,0-5.57-.49,48.07,48.07,0,0,0-7.76.43,55.27,55.27,0,0,0-10.14,2.42,59.62,59.62,0,0,0-12.21,5.73A117.28,117.28,0,0,0,267,36.21C262.5,39.9,257.94,44,253.25,48c-2.34,2-4.73,4.07-7.15,6s-4.83,3.86-7.3,5.69a106.45,106.45,0,0,1-15,9.53,77.12,77.12,0,0,1-14.58,5.76c-2.31.57-4.47,1.14-6.53,1.44-1,.16-2,.38-3,.47l-2.73.28-1.26.13-1.2,0-2.19.07a34.62,34.62,0,0,1-3.48,0l-2.93-.12,2.91-.31c.94-.1,2.09-.19,3.41-.46l2.13-.37,1.16-.21,1.21-.29,2.6-.63c.9-.21,1.82-.55,2.78-.83,1.93-.54,3.93-1.37,6-2.18A78,78,0,0,0,221.23,65a111.64,111.64,0,0,0,13.21-10.51c2.17-2,4.38-4.06,6.54-6.16s4.32-4.26,6.48-6.45c4.33-4.37,8.71-8.82,13.31-12.94A97.39,97.39,0,0,1,275.2,18a60,60,0,0,1,14.48-6.47A51.36,51.36,0,0,1,302,9.42a39.64,39.64,0,0,1,9.48.71A30.56,30.56,0,0,1,318,12.25c.85.42,1.6.79,2.25,1.17s1.19.81,1.67,1.17a8.85,8.85,0,0,1,2,1.93C324.7,17.6,324.69,18.23,324.43,18.65Z"/></g><g id="ea9081a4-c9e6-47d9-bd48-8cfc531bc6b8" data-name="&lt;Group&gt;"><path id="abcebaf8-8c07-488d-9ca2-3e18bfd867fb" data-name="&lt;Path&gt;" class="e740bac2-6b69-4371-9aac-273368053364" d="M229.87,24.57a1.24,1.24,0,0,1,1-.66,5.05,5.05,0,0,1,3,.74,13.47,13.47,0,0,1,4.85,4.62,20,20,0,0,1,3.06,11.31,22.63,22.63,0,0,1-1.61,7.53,27.93,27.93,0,0,1-3.94,6.81,34.31,34.31,0,0,1-5.34,5.45,44.56,44.56,0,0,1-5.78,4,79,79,0,0,1-9.75,4.7c-2.48,1-4,1.59-4,1.59l3.48-2.5c2.16-1.57,5.19-3.75,8.31-6.5a40.82,40.82,0,0,0,8.43-9.9A27.43,27.43,0,0,0,234.14,46a21.84,21.84,0,0,0,1-5.58,19.65,19.65,0,0,0-1.63-8.19A28.46,28.46,0,0,0,231.08,28a11.41,11.41,0,0,1-1.24-2.18A1.52,1.52,0,0,1,229.87,24.57Z"/></g><g id="5455af3c-8eb3-42d5-8a39-61ad0672b719" data-name="&lt;Group&gt;"><path id="40c707a5-9c0b-4d18-9ccf-d6c609599858" data-name="&lt;Path&gt;" class="e740bac2-6b69-4371-9aac-273368053364" d="M220.86,11.83c-.31-.13-.58-.44-.59-1.28a4.39,4.39,0,0,1,.05-.74,9.62,9.62,0,0,1,.26-.93l.2-.56c.08-.19.19-.38.29-.59a8.81,8.81,0,0,1,.82-1.34,10.92,10.92,0,0,1,1.24-1.47,14,14,0,0,1,1.74-1.53A17.53,17.53,0,0,1,230.17.79,19,19,0,0,1,238,.16c.38.05.76.14,1.15.21a9,9,0,0,1,1.18.28l1.2.36,1.17.47a20.65,20.65,0,0,1,4.61,2.76,23.8,23.8,0,0,1,6.94,9.23,26,26,0,0,1,1.7,5.76,26.84,26.84,0,0,1,.33,6,32.47,32.47,0,0,1-2.74,11.21,41.5,41.5,0,0,1-5.45,9.08A69.49,69.49,0,0,1,236.48,56.9c-1.58,1.25-2.87,2.22-3.76,2.87l-1.38,1,1.19-1.23c.77-.8,1.88-2,3.24-3.42a75.78,75.78,0,0,0,9.62-12.49,40.59,40.59,0,0,0,3.93-8.78,29.54,29.54,0,0,0,1.39-9.7,21.84,21.84,0,0,0-2.22-9,19.63,19.63,0,0,0-5.27-6.64,15.5,15.5,0,0,0-3.14-1.92l-.78-.34L238.54,7a4.68,4.68,0,0,0-.75-.21c-.25-.05-.49-.13-.74-.17a15.46,15.46,0,0,0-5.41,0,17.16,17.16,0,0,0-4,1.27,15.65,15.65,0,0,0-1.46.78,12.82,12.82,0,0,0-1.18.75c-.37.22-.65.48-.94.69l-.41.3-.34.29c-.22.18-.43.34-.63.47s-.34.27-.49.36A1.45,1.45,0,0,1,220.86,11.83Z"/></g><g id="446770cc-45d8-4750-be1f-827e2ebb38c0" data-name="&lt;Group&gt;"><path id="01a95853-df8b-4cd9-9b56-56500ba5d70b" data-name="&lt;Path&gt;" class="e740bac2-6b69-4371-9aac-273368053364" d="M246.9,80.14c-.39.56-1.21,1-3.16.54s-5.09-1.78-10.87-3.48a71.45,71.45,0,0,0-9.66-2,53.64,53.64,0,0,0-10.1-.36A50.09,50.09,0,0,0,205.18,76c-1,.24-1.77.49-2.32.63l-.85.23.72-.49c.48-.31,1.15-.8,2-1.33a40.21,40.21,0,0,1,7.67-3.49,41.14,41.14,0,0,1,11-2,37.16,37.16,0,0,1,11.23,1.2q1.26.39,2.37.76c.75.23,1.41.56,2.05.82A23.81,23.81,0,0,1,242.32,74a16,16,0,0,1,2.25,1.6A9.49,9.49,0,0,1,246,77C247.45,78.71,247.27,79.6,246.9,80.14Z"/></g><g id="d2725090-ff76-4dcb-9de5-294a08629eb6" data-name="&lt;Group&gt;"><path id="f7aee2bb-4e35-4b80-a92b-15eb87a58adb" data-name="&lt;Path&gt;" class="e740bac2-6b69-4371-9aac-273368053364" d="M300,69.29l.31-.38c.2-.25.52-.57.86-1.05a21,21,0,0,0,2.43-4,21.43,21.43,0,0,0,1.53-13.51,21.43,21.43,0,0,0-7.36-11.43,21,21,0,0,0-4-2.55c-.52-.28-.95-.42-1.24-.56l-.45-.2.48-.09a11.14,11.14,0,0,1,1.4-.18,15.12,15.12,0,0,1,5.27.59,17.87,17.87,0,0,1,3.5,1.43,18.69,18.69,0,0,1,3.6,2.57,17.19,17.19,0,0,1,4.49,19.22A18.69,18.69,0,0,1,308.8,63a17.87,17.87,0,0,1-2.51,2.83,15.12,15.12,0,0,1-4.47,2.86,11.13,11.13,0,0,1-1.33.46Z"/></g><g id="84be54e0-3fff-4c45-a466-952f142037e6" data-name="&lt;Group&gt;"><path id="ea118d93-9f0e-4f6c-a472-7e79ed7db37e" data-name="&lt;Path&gt;" class="e740bac2-6b69-4371-9aac-273368053364" d="M282.41,67.8l.33-.09c.21-.06.52-.12.91-.25a17.4,17.4,0,0,0,3-1.19,18.89,18.89,0,0,0,10-13.55,17.4,17.4,0,0,0,.26-3.18c0-.41,0-.72,0-.94v-.34l.27.21a7.58,7.58,0,0,1,.73.66,10.33,10.33,0,0,1,2.08,3.05,12.21,12.21,0,0,1,1.07,5.59,12.26,12.26,0,0,1-8.22,11.17,12.21,12.21,0,0,1-5.65.64,10.33,10.33,0,0,1-3.53-1.08,7.58,7.58,0,0,1-.84-.51Z"/></g><g id="d8a3b09d-495a-46ce-89a1-69bbb8ffe14f" data-name="&lt;Group&gt;"><path id="d3698305-1756-4b62-826a-8a6eb8cd707e" data-name="&lt;Path&gt;" class="e740bac2-6b69-4371-9aac-273368053364" d="M259.42,48.63s-.26.62-.8,1.73l-.46.92c-.18.33-.39.67-.61,1.05a28.09,28.09,0,0,1-1.63,2.49l-1,1.39c-.37.48-.79.94-1.22,1.44a36.15,36.15,0,0,1-2.93,3,35.62,35.62,0,0,1-16.91,8.53,36.15,36.15,0,0,1-4.13.59c-.65,0-1.27.12-1.88.13h-1.74a28.1,28.1,0,0,1-3-.17c-.44,0-.84-.08-1.21-.13l-1-.18C219.68,69.17,219,69,219,69s.64-.26,1.78-.66l.94-.33,1.11-.42c.79-.31,1.68-.6,2.65-1L227,66c.52-.2,1.06-.46,1.61-.69,1.12-.44,2.27-1,3.49-1.52,2.42-1.12,5-2.36,7.73-3.71s5.24-2.73,7.58-4c1.15-.67,2.28-1.27,3.3-1.9.51-.31,1-.59,1.51-.89l1.38-.86c.91-.53,1.68-1.07,2.39-1.53l1-.64.82-.56C258.83,49,259.42,48.63,259.42,48.63Z"/></g><g id="de0a8242-79c2-4876-abf7-3a93ae8a3e1e" data-name="&lt;Group&gt;"><path id="e4b9adff-26b3-4290-9bdb-0e679fb6ec29" data-name="&lt;Path&gt;" class="e740bac2-6b69-4371-9aac-273368053364" d="M223.31,38.3s-.62.68-1.74,1.77L217,44.55l-3.06,2.93c-1.1,1-2.23,2.13-3.44,3.21-2.39,2.24-5,4.56-7.85,6.85S197,62,194.33,63.85c-1.31,1-2.63,1.85-3.83,2.73L187,69l-5.31,3.61c-1.3.88-2.09,1.34-2.09,1.34s.07-.89.33-2.47l.23-1.31c.1-.48.23-1,.37-1.53A34.51,34.51,0,0,1,181.67,65q.37-1,.8-2.07c.29-.72.65-1.43,1-2.18a40.16,40.16,0,0,1,26.09-21.28c.81-.2,1.57-.41,2.33-.55s1.49-.26,2.19-.37a34.51,34.51,0,0,1,3.81-.36c.56,0,1.08-.05,1.57-.05l1.34,0C222.42,38.19,223.31,38.3,223.31,38.3Z"/></g><g id="787252b2-a715-4812-b280-d60225c21f2a" data-name="&lt;Group&gt;"><path id="fd13fe32-1fd6-45b5-8777-0d0655e13701" data-name="&lt;Path&gt;" class="e740bac2-6b69-4371-9aac-273368053364" d="M206.21,16.7a57.57,57.57,0,0,1-8.78,21.67,57.57,57.57,0,0,1-17,16,57.57,57.57,0,0,1,8.78-21.67A57.57,57.57,0,0,1,206.21,16.7Z"/></g><path id="0a98dcc8-d4ce-408c-b96b-9c2d45f15811" data-name="&lt;Path&gt;" class="e740bac2-6b69-4371-9aac-273368053364" d="M179.58,5.1C184.31,12,183,16.7,183,16.7s1.25-3,6.26-3,7.3,6.51,7.3,6.51c-12.31,3.67-17,15.28-17,15.28s-4.66-11.61-17-15.28c0,0,2.29-6.51,7.3-6.51s6.26,3,6.26,3S174.85,12,179.58,5.1Z"/><g id="0ccf5495-6b9d-4abc-8912-4ecc4f668aa8" data-name="&lt;Group&gt;"><path id="c0a5219e-4295-44dc-96e0-983d24c08149" data-name="&lt;Path&gt;" class="e740bac2-6b69-4371-9aac-273368053364" d="M201.67,36.62h-.22a1.67,1.67,0,0,0,0,3.35h.22a1.67,1.67,0,0,0,0-3.35Z"/></g><g id="a1da908b-891e-4049-b56b-cc5db92c3267" data-name="&lt;Group&gt;"><path id="c0788bf4-8b5d-44d9-86b2-ab19226d4270" data-name="&lt;Path&gt;" class="e740bac2-6b69-4371-9aac-273368053364" d="M206.36,37.29a1.67,1.67,0,0,0,0-3.35,1.67,1.67,0,0,0,0,3.35Z"/></g><g id="d6279926-bef8-4d36-967a-7d2e413f95cf" data-name="&lt;Group&gt;"><path id="ea3a8913-4d7b-49f9-8631-10e3b024d310" data-name="&lt;Path&gt;" class="e740bac2-6b69-4371-9aac-273368053364" d="M212.39,35.73a1.67,1.67,0,0,0,0-3.35,1.67,1.67,0,0,0,0,3.35Z"/></g><g id="cdc50828-f1b6-4709-b031-fa4fdbb20a69" data-name="&lt;Group&gt;"><path id="7ea615f2-0b2f-4e6b-8dca-9e7be793459e" data-name="&lt;Path&gt;" class="e740bac2-6b69-4371-9aac-273368053364" d="M218.19,36.18a1.67,1.67,0,0,0,0-3.35,1.67,1.67,0,0,0,0,3.35Z"/></g><g id="955e2295-c486-4505-9334-0fe954b48dbd" data-name="&lt;Group&gt;"><path id="1b0755de-f94c-4fed-b75c-e11c924c76bb" data-name="&lt;Path&gt;" class="e740bac2-6b69-4371-9aac-273368053364" d="M228.9,12.3h.22a1.67,1.67,0,1,0,0-3.35h-.22a1.67,1.67,0,1,0,0,3.35Z"/></g><g id="cd6e21e1-21cb-4047-ae47-e66185e924ec" data-name="&lt;Group&gt;"><path id="e04d81d7-d976-4245-8b9e-13e842241e9d" data-name="&lt;Path&gt;" class="e740bac2-6b69-4371-9aac-273368053364" d="M234,11.41a1.67,1.67,0,0,0,0-3.35,1.67,1.67,0,0,0,0,3.35Z"/></g><g id="6d65710b-5125-40ef-8755-47c0f6e18ca0" data-name="&lt;Group&gt;"><path id="2a4fdc8d-c908-47f4-be6f-049766f9643d" data-name="&lt;Path&gt;" class="e740bac2-6b69-4371-9aac-273368053364" d="M239.39,13a1.67,1.67,0,0,0,0-3.35,1.67,1.67,0,0,0,0,3.35Z"/></g><g id="b1c9dd6f-7e85-4cf9-ae3b-03f918f80554" data-name="&lt;Group&gt;"><path id="fd8ba859-b49b-4b59-8474-74133f3d0c04" data-name="&lt;Path&gt;" class="e740bac2-6b69-4371-9aac-273368053364" d="M243.4,18.55a1.67,1.67,0,0,0,0-3.35,1.67,1.67,0,0,0,0,3.35Z"/></g><g id="1d97d8b1-82fb-49b5-a52e-5998b6da98a4" data-name="&lt;Group&gt;"><path id="cecc26e6-73c6-47a2-89ef-dba84bb07817" data-name="&lt;Path&gt;" class="e740bac2-6b69-4371-9aac-273368053364" d="M315.36,14.82l-.49-.25c-.33-.15-.78-.44-1.41-.69a27,27,0,0,0-5.5-1.81,33.08,33.08,0,0,0-8.68-.68,41.34,41.34,0,0,0-10.64,2,68.14,68.14,0,0,0-18.24,9.77c-2.23,1.62-4,3-5.24,4l-1.91,1.53s.58-.65,1.67-1.79,2.69-2.75,4.77-4.61a62.83,62.83,0,0,1,7.71-5.92,46.2,46.2,0,0,1,10.53-5.12,35.43,35.43,0,0,1,11.32-1.74,29.22,29.22,0,0,1,9,1.5,23.36,23.36,0,0,1,5.37,2.58c.6.35,1,.72,1.3.92Z"/><path id="adcddd14-1fed-4249-8e36-68dbb01cc7c4" data-name="&lt;Path&gt;" class="e740bac2-6b69-4371-9aac-273368053364" d="M314.61,8.83l-.55-.2c-.36-.12-.89-.32-1.57-.54a38,38,0,0,0-5.92-1.3,44.68,44.68,0,0,0-19.44,2,73.26,73.26,0,0,0-17.59,8.9c-2.12,1.42-3.79,2.65-4.95,3.49L262.8,22.5l1.56-1.6c1-1,2.52-2.46,4.5-4.13a61,61,0,0,1,7.37-5.35,48.37,48.37,0,0,1,10.19-4.79,39.23,39.23,0,0,1,11.17-1.92,34.94,34.94,0,0,1,9.19,1,31.6,31.6,0,0,1,5.84,2.08c.65.32,1.15.61,1.48.78Z"/><path id="79e40369-0523-4dca-9815-c47534d470ae" data-name="&lt;Path&gt;" class="e740bac2-6b69-4371-9aac-273368053364" d="M308.7,2.3l-.48-.08c-.32-.06-.78-.12-1.38-.18s-1.33-.16-2.19-.2l-1.36-.08-1.52,0a49.25,49.25,0,0,0-7.38.54,54.25,54.25,0,0,0-8.71,2.07A73.64,73.64,0,0,0,271.22,11c-1.75,1-3.11,1.91-4.06,2.52-.48.3-.84.54-1.08.71l-.38.25.34-.3c.22-.2.55-.49,1-.85.86-.73,2.13-1.77,3.79-3a52.84,52.84,0,0,1,14.4-7.48,42.86,42.86,0,0,1,9-1.89,40.37,40.37,0,0,1,7.57,0l1.53.16,1.36.22c.85.12,1.58.31,2.17.44s1.05.25,1.36.34Z"/></g><g id="4626a2ca-8e2c-4b4c-9220-931bae7375e3" data-name="&lt;Group&gt;"><path id="c38409fa-c154-4049-9b92-bcaf8fc28517" data-name="&lt;Path&gt;" class="e740bac2-6b69-4371-9aac-273368053364" d="M217.37,57.41a43.3,43.3,0,0,1-13,10.3,43.3,43.3,0,0,1-16,4.33,41.28,41.28,0,0,1,29.06-14.63Z"/></g><g id="353851c0-066d-4f57-9ad9-59b338482e8e" data-name="&lt;Group&gt;"><path id="e900ebef-b49b-4beb-bb75-190c7a856ac1" data-name="&lt;Path&gt;" class="e740bac2-6b69-4371-9aac-273368053364" d="M352,32.45a2.44,2.44,0,0,1,1.73,0,5.1,5.1,0,0,1,2.31,2,16.2,16.2,0,0,1,2.36,5.66,30.26,30.26,0,0,1,.46,10.79,34.26,34.26,0,0,1-5.05,13.78A36.93,36.93,0,0,1,343.92,75a36.14,36.14,0,0,1-9.51,4.77c-1.25.39-2.25.67-3,.81l-1.07.23.9-.63c.58-.39,1.4-1,2.38-1.79a41.45,41.45,0,0,0,12.65-17.58,50.38,50.38,0,0,0,2.63-11.19,80,80,0,0,0,.53-8.44,44.41,44.41,0,0,1,.31-5,6.31,6.31,0,0,1,.9-2.65A2.74,2.74,0,0,1,352,32.45Z"/></g><path class="444778af-62eb-4ef2-9941-27437f25b820" d="M42.84,108.81q-2.07-1.74-6.74-1.74h-4q-11.21,0-11.93,8.29l.1,0c0,.25-.08.5-.1.76l2.71-1.31v-.31a5.09,5.09,0,0,1,1.77-4,6.78,6.78,0,0,1,4.51-1.54l-2.5,12.54a7.79,7.79,0,0,1-1.25,3.33,2.82,2.82,0,0,1-2.3.93h-.31a1.79,1.79,0,0,0-.36,0l-.21,0-2.05,2.07.68,0-.68.69,6.88.31,1.3,0q7.77,0,12.18-3.61a12.22,12.22,0,0,0,4.41-10c0-.14,0-.27,0-.41s0-.2,0-.31Q44.9,110.55,42.84,108.81Zm-3.58,14.28a7.87,7.87,0,0,1-3,2.89,10.37,10.37,0,0,1-4.49.79,24.24,24.24,0,0,1-4.12-.35L26,126.14a9.51,9.51,0,0,0,2.48-2.36,12.3,12.3,0,0,0,1.58-4.42l2.14-10.72H34q7.49,0,7.67,6.61A14.61,14.61,0,0,1,39.26,123.09Z"/><path class="444778af-62eb-4ef2-9941-27437f25b820" d="M61.7,112.24q-1.89,0-4.16,2.22a19.72,19.72,0,0,0-3.93,5.72h0l.53-2.65a11.49,11.49,0,0,0,.25-2.26c0-.13,0-.24,0-.36s0-.24,0-.36q0-2.3-2-2.3-2.38,0-5.6,3.48L46.48,117l.19-.21-.19.92q2.75-3.16,4.23-3.16c.48,0,.75.32.81.92a10.07,10.07,0,0,1-.18,1.35L50,123.62l-1,4.3h.17l-.17.73,3-.17,1-5.1q4.53-8,7.25-8a2.71,2.71,0,0,1,1.4.54l1.86-2.52a3.22,3.22,0,0,0-.39-.19l.39-.53A3.47,3.47,0,0,0,61.7,112.24Z"/><path class="444778af-62eb-4ef2-9941-27437f25b820" d="M75.41,113.08a2.61,2.61,0,0,0-2-.84q-3.42,0-6.44,3.47a11.12,11.12,0,0,0-3,7.41c0,.1,0,.19,0,.28s0,.29,0,.43a5.21,5.21,0,0,0,1.24,3.6,4.11,4.11,0,0,0,3.22,1.39q3.13,0,7.57-3.1l.21-1.08-.16.11.16-.82q-3.72,2.57-6.3,2.57c-1.94,0-2.92-1.29-3-3.86v-.14a11.08,11.08,0,0,0,6.54-1.93,5.56,5.56,0,0,0,2.74-4.6c0-.12,0-.22,0-.33s0-.25,0-.38A3.1,3.1,0,0,0,75.41,113.08Zm-3.59,6.24a9,9,0,0,1-4.77,1.6,10.42,10.42,0,0,1,1.74-4.32q1.56-2.23,3.24-2.23c.94,0,1.45.59,1.53,1.77A4.25,4.25,0,0,1,71.82,119.32Z"/><path class="444778af-62eb-4ef2-9941-27437f25b820" d="M93,126.6a.71.71,0,0,1-.79-.6c0-.38.14-.92.28-1.66l1.36-6.9,1-4.14h-.17l.17-.71q-2.18-.17-4.18-.17a10.28,10.28,0,0,0-8.19,4,12.4,12.4,0,0,0-3.24,8c0,.12,0,.23,0,.35s0,.25,0,.37q0,3.69,2.95,3.69,1.94,0,4.16-2.22a19,19,0,0,0,3.8-5.72h.11l-.55,2.74a14,14,0,0,0-.34,2.38c0,.11,0,.21,0,.32s0,.29,0,.4q0,2.11,2,2.11,2.44,0,5.5-3.28l.25-1.3-.17.19.17-.9Q94.36,126.6,93,126.6Zm-2.1-8.85a28.48,28.48,0,0,1-4,5.76Q84.65,126,83.45,126c-.78,0-1.21-.62-1.27-1.85a16.79,16.79,0,0,1,1.77-6.46q1.52-3.21,4.07-3.21a8.46,8.46,0,0,1,3.35.73Z"/><path class="444778af-62eb-4ef2-9941-27437f25b820" d="M122.44,126.6a.71.71,0,0,1-.79-.61c0-.38.14-.93.28-1.66l1.36-6.82a10.39,10.39,0,0,0,.22-1.93c0-.1,0-.18,0-.27s0-.31,0-.45q0-2.63-2.47-2.63-1.76,0-3.87,2.22a19.9,19.9,0,0,0-3.66,5.71h-.05l.53-2.68a9.73,9.73,0,0,0,.24-1.94c0-.12,0-.23,0-.34s0-.26,0-.38a2.74,2.74,0,0,0-.64-1.85,2,2,0,0,0-1.57-.74q-1.79,0-3.91,2.15a22,22,0,0,0-3.91,5.78h-.05l.54-2.74a14.27,14.27,0,0,0,.32-2.36c0-.11,0-.21,0-.31s0-.29,0-.41q0-2.11-2-2.11-2.45,0-5.49,3.3l-.25,1.28.18-.19-.18.9q2.79-3.07,4.16-3.07a.71.71,0,0,1,.79.59c0,.38-.14.93-.28,1.65l-1.37,6.9-1,4.3h.17l-.17.73,2.93-.17,1-4.94a36.85,36.85,0,0,1,4-6q2-2.46,3.1-2.46c.48,0,.74.31.81.88,0,.25-.08.55-.15.93L109,127.92h.14l-.14.72,2.74-.17,1-5.05q4.61-8.39,7-8.39c.49,0,.76.3.83.85,0,.25-.08.56-.16.93l-1.37,6.81a14.24,14.24,0,0,0-.34,2.37c0,.11,0,.22,0,.32s0,.28,0,.39q0,2.11,2,2.11,2.45,0,5.5-3.28l.25-1.3-.17.19.17-.9Q123.82,126.6,122.44,126.6Z"/><path class="444778af-62eb-4ef2-9941-27437f25b820" d="M160.21,108.81q-2.07-1.74-6.74-1.74h-4q-11.21,0-11.93,8.29l.1,0c0,.25-.08.5-.1.76l2.71-1.31v-.31a5.09,5.09,0,0,1,1.77-4,6.78,6.78,0,0,1,4.51-1.54L144,121.43a7.77,7.77,0,0,1-1.25,3.33,2.82,2.82,0,0,1-2.3.93h-.31a1.79,1.79,0,0,0-.36,0l-.21,0-2.05,2.07.68,0-.68.69,6.88.31,1.3,0q7.77,0,12.18-3.61a12.22,12.22,0,0,0,4.41-10c0-.14,0-.27,0-.41s0-.2,0-.31Q162.28,110.55,160.21,108.81Zm-3.58,14.28a7.86,7.86,0,0,1-3,2.89,10.36,10.36,0,0,1-4.49.79,24.25,24.25,0,0,1-4.12-.35l-1.62-.27a9.5,9.5,0,0,0,2.48-2.36,12.29,12.29,0,0,0,1.58-4.42l2.14-10.72h1.75q7.49,0,7.67,6.61A14.6,14.6,0,0,1,156.64,123.09Z"/><path class="444778af-62eb-4ef2-9941-27437f25b820" d="M179.08,112.24q-1.89,0-4.16,2.22a19.73,19.73,0,0,0-3.93,5.72h0l.53-2.65a11.49,11.49,0,0,0,.25-2.26c0-.13,0-.24,0-.36s0-.24,0-.36q0-2.3-2-2.3-2.38,0-5.6,3.48l-.25,1.24.19-.21-.19.92q2.75-3.16,4.23-3.16c.48,0,.75.32.81.92a10.07,10.07,0,0,1-.18,1.35l-1.36,6.83-1,4.3h.17l-.17.73,3-.17,1-5.1q4.53-8,7.25-8a2.7,2.7,0,0,1,1.4.54l1.86-2.52a3.21,3.21,0,0,0-.39-.19l.39-.53A3.47,3.47,0,0,0,179.08,112.24Z"/><path class="444778af-62eb-4ef2-9941-27437f25b820" d="M192.79,113.08a2.6,2.6,0,0,0-2-.84q-3.42,0-6.44,3.47a11.12,11.12,0,0,0-3,7.41c0,.1,0,.19,0,.28s0,.29,0,.43a5.21,5.21,0,0,0,1.24,3.6,4.11,4.11,0,0,0,3.22,1.39q3.13,0,7.57-3.1l.21-1.08-.16.11.16-.82q-3.72,2.57-6.3,2.57c-1.94,0-2.92-1.29-3-3.86v-.14a11.08,11.08,0,0,0,6.54-1.93,5.56,5.56,0,0,0,2.74-4.6c0-.12,0-.22,0-.33s0-.25,0-.38A3.1,3.1,0,0,0,192.79,113.08Zm-3.59,6.24a9,9,0,0,1-4.77,1.6,10.43,10.43,0,0,1,1.74-4.32q1.56-2.23,3.24-2.23c.94,0,1.45.59,1.53,1.77A4.25,4.25,0,0,1,189.2,119.32Z"/><path class="444778af-62eb-4ef2-9941-27437f25b820" d="M204.47,112.24a6.33,6.33,0,0,0-4.12,1.47,4.3,4.3,0,0,0-1.8,3.38,2.23,2.23,0,0,0,0,.3,3.86,3.86,0,0,0,0,.41q0,1.37,1.86,3.41l1.27,1.4a5.94,5.94,0,0,1,1.54,2.38,1.89,1.89,0,0,1-.75,1.12,3.12,3.12,0,0,1-2,.61,6.2,6.2,0,0,1-3.7-1.33L195,127.28l.52.18L195,128a11,11,0,0,0,3.91.82,7.4,7.4,0,0,0,4.51-1.47,4.16,4.16,0,0,0,2-3.34,2.2,2.2,0,0,0,0-.32,3.42,3.42,0,0,0,0-.4q0-1.36-1.87-3.47l-1.15-1.27a6.15,6.15,0,0,1-1.59-2.62c.16-1.18,1-1.78,2.68-1.78,1.44,0,2.23.5,2.39,1.5l0,.21h.05c0,.06,0,.12,0,.18a1.35,1.35,0,0,1,0,.29l0,.24h.89l.61-3.09-.13,0,.13-.68A9,9,0,0,0,204.47,112.24Z"/><path class="444778af-62eb-4ef2-9941-27437f25b820" d="M217.39,112.24a6.33,6.33,0,0,0-4.12,1.47,4.3,4.3,0,0,0-1.8,3.38,2.23,2.23,0,0,0,0,.3,3.86,3.86,0,0,0,0,.41q0,1.37,1.86,3.41l1.27,1.4a5.94,5.94,0,0,1,1.54,2.38,1.89,1.89,0,0,1-.75,1.12,3.12,3.12,0,0,1-2,.61,6.2,6.2,0,0,1-3.7-1.33l-1.84,1.89.52.18-.52.54a11,11,0,0,0,3.91.82,7.4,7.4,0,0,0,4.51-1.47,4.16,4.16,0,0,0,2-3.34,2.2,2.2,0,0,0,0-.32,3.42,3.42,0,0,0,0-.4q0-1.36-1.87-3.47l-1.15-1.27a6.15,6.15,0,0,1-1.59-2.62c.16-1.18,1-1.78,2.68-1.78,1.44,0,2.23.5,2.39,1.5l0,.21h.05c0,.06,0,.12,0,.18a1.35,1.35,0,0,1,0,.29l0,.24h.89l.61-3.09-.13,0,.13-.68A9,9,0,0,0,217.39,112.24Z"/><path class="444778af-62eb-4ef2-9941-27437f25b820" d="M274.5,113.64a4.12,4.12,0,0,0-3.2-1.4q-3.59,0-6.64,3.42a11,11,0,0,0-3,7.44c0,.1,0,.18,0,.28s0,.29,0,.44a5.31,5.31,0,0,0,1.22,3.57,3.85,3.85,0,0,0,3.05,1.43,9.06,9.06,0,0,0,6.82-3.36,11,11,0,0,0,3-7.54c0-.09,0-.18,0-.27s0-.29,0-.45A5.12,5.12,0,0,0,274.5,113.64Zm-3.38,10.59q-1.57,2.66-3.64,2.66c-1.81,0-2.73-1.42-2.8-4.24a12,12,0,0,1,1.59-5.77q1.6-2.75,3.6-2.75c1.82,0,2.75,1.45,2.81,4.33A11.78,11.78,0,0,1,271.13,124.23Z"/><path class="444778af-62eb-4ef2-9941-27437f25b820" d="M283.7,126.6a.71.71,0,0,1-.79-.62c0-.37.14-.91.28-1.64l1.37-6.9,1.06-4.47-.18.06.18-.78-6.83,2.24-.17.85.15,0-.15.76a9.68,9.68,0,0,1,2.25-.48c.53,0,.81.32.88.92s-.17,1.28-.36,2.29l-1,4.86a13.93,13.93,0,0,0-.32,2.35c0,.11,0,.21,0,.31s0,.29,0,.41q0,2.11,2,2.11,2.43,0,5.49-3.28l.25-1.3-.17.19.17-.9Q285.08,126.6,283.7,126.6Z"/><path class="444778af-62eb-4ef2-9941-27437f25b820" d="M305.85,112.24l-3,.34a3.76,3.76,0,0,1,.47.66l-.47.05a3.4,3.4,0,0,1,.89,1.95c-.18,1.88-1.85,4.74-5.05,8.61l-1.14,1.38v-.77q0-12.23-4.86-12.23-2.18,0-4.72,3.35l-.41,2.07.21-.34-.21,1.05q1.94-3.35,3.69-3.35t2.73,3.19a29,29,0,0,1,1,8.16l-.06,1.73h0l0,.72,1.5-.35,5-5.83a60.87,60.87,0,0,0,4.15-5.18,5,5,0,0,0,1-2.64,2.26,2.26,0,0,0,0-.36,3.21,3.21,0,0,0,0-.36A3.42,3.42,0,0,0,305.85,112.24Z"/><path class="444778af-62eb-4ef2-9941-27437f25b820" d="M338.87,112.77a9,9,0,0,0-2.85-.53,6.33,6.33,0,0,0-4.12,1.47,4.3,4.3,0,0,0-1.8,3.38,2.23,2.23,0,0,0,0,.3,3.86,3.86,0,0,0,0,.41q0,1.37,1.86,3.41l1.27,1.4a5.94,5.94,0,0,1,1.54,2.38,1.89,1.89,0,0,1-.75,1.12,3.12,3.12,0,0,1-2,.61,6.2,6.2,0,0,1-3.7-1.33l-1.84,1.89.52.18-.52.54a11,11,0,0,0,3.91.82,7.4,7.4,0,0,0,4.51-1.47,4.16,4.16,0,0,0,2-3.34,2.2,2.2,0,0,0,0-.32,3.42,3.42,0,0,0,0-.4q0-1.36-1.87-3.47l-1.15-1.27a6.15,6.15,0,0,1-1.59-2.62c.16-1.18,1-1.78,2.68-1.78,1.44,0,2.23.5,2.39,1.5l0,.21h.05c0,.06,0,.12,0,.18a1.35,1.35,0,0,1,0,.29l0,.24h.89l.61-3.09-.13,0Z"/><path class="444778af-62eb-4ef2-9941-27437f25b820" d="M264.69,109.54l1-1.89-.32-.11.32-.6a5.48,5.48,0,0,0-2-.39,6.44,6.44,0,0,0-5,2.28,13.36,13.36,0,0,0-2.88,6.46l-1.61,8.08a56,56,0,0,0-2.73-5.27l-1.77-3.16a62.79,62.79,0,0,1-3.79-7.87H244.6a10.62,10.62,0,0,0-7,2.26,8.2,8.2,0,0,0-3,6l.09,0c0,.25-.07.5-.09.76l2.71-1.33a5.75,5.75,0,0,1,1.54-4.09,5,5,0,0,1,3.83-1.64,6.76,6.76,0,0,1,.87.09L241,121.62a7.55,7.55,0,0,1-1.73,3.71,3.87,3.87,0,0,1-2.93,1.39,4.39,4.39,0,0,1-3.91-2.32l-2,2,.4.3-.4.41a6.77,6.77,0,0,0,4.36,1.58,7.42,7.42,0,0,0,5.81-2.74,16.8,16.8,0,0,0,3.4-7.84l1.06-5.38q.89,1.91,2.26,4.35l3.42,6.07a40.21,40.21,0,0,1,2.93,5.9l1.79-.61.66-4.14,2.1-10.52q1-5.25,4.05-5.25A3.92,3.92,0,0,1,264.69,109.54Z"/><polygon class="444778af-62eb-4ef2-9941-27437f25b820" points="286.41 108.63 287.61 106.06 287.13 106.37 287.61 105.34 283.67 107.91 282.73 109.81 283.21 109.57 282.73 110.53 286.41 108.63"/><path class="444778af-62eb-4ef2-9941-27437f25b820" d="M326.92,124.24l-.17.19.17-.9q-2.77,3.07-4.16,3.07a.71.71,0,0,1-.79-.6c0-.38.14-.92.28-1.66l1.36-6.9,1-4.14h-.17l.17-.71q-2.18-.17-4.18-.17a10.28,10.28,0,0,0-8.19,4,12.4,12.4,0,0,0-3.24,8c0,.12,0,.23,0,.35s0,.25,0,.37q0,3.69,2.95,3.69,1.94,0,4.16-2.22a19,19,0,0,0,3.8-5.72H320l-.55,2.74a14.07,14.07,0,0,0-.34,2.38c0,.11,0,.21,0,.32s0,.28,0,.4q0,2.11,2,2.11,2.44,0,5.5-3.28Zm-6.27-6.49a28.48,28.48,0,0,1-4,5.76q-2.26,2.52-3.46,2.52c-.78,0-1.21-.62-1.27-1.85a16.79,16.79,0,0,1,1.77-6.46q1.52-3.21,4.07-3.21a8.46,8.46,0,0,1,3.35.73Z"/><path class="e740bac2-6b69-4371-9aac-273368053364" d="M151.62,154.37q0,.33-.7.33-2.33,0-4.71-2.54a20.63,20.63,0,0,1-3.88-6.29q-.6.07-1.81.11l-.73,6a1.9,1.9,0,0,0,0,.31.68.68,0,0,0,.31.64,3.93,3.93,0,0,0,1.23.33q.73.13.67.56t-.24.49a2,2,0,0,1-.6,0,43.26,43.26,0,0,0-5.35.11.79.79,0,0,1-.48-.06q-.12-.09-.11-.44t.67-.43a2.14,2.14,0,0,0,1.13-.39,1.88,1.88,0,0,0,.4-1.13l1.67-13.67c0-.1,0-.2,0-.29q0-1.1-1.27-1.38-.76-.17-.71-.5a.64.64,0,0,1,.23-.49,1.17,1.17,0,0,1,.68,0,11.85,11.85,0,0,0,1.7.09l1.92,0q1.53,0,2.83,0a6.49,6.49,0,0,1,4,1.16A3.77,3.77,0,0,1,150,140q0,3.77-4,5.07-.74.24-1.2.34a24.33,24.33,0,0,0,3,5.69q1.8,2.44,3.4,2.75A.42.42,0,0,1,151.62,154.37Zm-4.3-14.26a3.31,3.31,0,0,0-.9-2.61,4.78,4.78,0,0,0-3.2-.84,1.92,1.92,0,0,0-1.38.36,2.35,2.35,0,0,0-.36,1.2l-.86,6.62a12.19,12.19,0,0,0,4.32-.73A3.94,3.94,0,0,0,147.33,140.11Z"/><path class="e740bac2-6b69-4371-9aac-273368053364" d="M162.38,145.16a3.05,3.05,0,0,1-1.63,2.58,20.81,20.81,0,0,1-5.35,2.07,4,4,0,0,0,.77,2.48,2,2,0,0,0,1.58.76,4.57,4.57,0,0,0,2.58-.91q.48-.33.76-.2a.59.59,0,0,1,.3.5.54.54,0,0,1-.21.41,6.84,6.84,0,0,1-4.18,1.66q-3.77,0-3.77-4.3a7.57,7.57,0,0,1,1.87-5.28,5.51,5.51,0,0,1,4.24-2Q162.38,143,162.38,145.16Zm-2.28.53a1.55,1.55,0,0,0-.42-1.12,1.45,1.45,0,0,0-1.09-.44,2.55,2.55,0,0,0-2.07,1.26,6.5,6.5,0,0,0-1.08,3.51,15.58,15.58,0,0,0,3.69-1.55A2,2,0,0,0,160.1,145.69Z"/><path class="e740bac2-6b69-4371-9aac-273368053364" d="M175.88,152.14q-1.68,2.31-3.12,2.31-1.28,0-1.28-1.34a16.07,16.07,0,0,1,.31-2.68c0-.09,0-.15-.07-.16s-.14,0-.19.13q-2.48,4.2-4.94,4.2t-2.48-2.77a8.74,8.74,0,0,1,2.65-6.19q2.44-2.51,4.85-2.51a4.81,4.81,0,0,1,1.57.29q.21.07.5-.26.47-.53.78-.53a.74.74,0,0,1,.36.11.32.32,0,0,1,.19.31,5,5,0,0,1-.24.86,23.24,23.24,0,0,0-1.34,7.62q0,1.36.44,1.36t1.51-1.3h.07a.42.42,0,0,1,.29.18.52.52,0,0,1,.16.32A.11.11,0,0,1,175.88,152.14ZM172,146.06a1.38,1.38,0,0,0-1.58-1.54q-1.36,0-2.75,1.88a7.08,7.08,0,0,0-1.48,4.31q0,2,1.48,2t3-2.71A8.27,8.27,0,0,0,172,146.06Z"/><path class="e740bac2-6b69-4371-9aac-273368053364" d="M183.06,135.18q-1.54,9-2.57,14.37-.56,2.88-.56,3,0,.39.53.39t1.51-1.28a.17.17,0,0,1,.1,0,.41.41,0,0,1,.29.17.51.51,0,0,1,.15.33.11.11,0,0,1,0,.1q-1.88,2.28-3.27,2.28t-1.4-1a31.36,31.36,0,0,1,.61-3.9q1.07-5.55,2.24-12.86.16-1-.23-1a12.56,12.56,0,0,0-2,.41c-.22.06-.33-.12-.33-.54q0-.17.09-.21A13.8,13.8,0,0,1,182,134q1,0,1,1A1.15,1.15,0,0,1,183.06,135.18Z"/><path class="e740bac2-6b69-4371-9aac-273368053364" d="M190.17,152.2q-1.84,2.28-3.21,2.28t-1.41-1.11a30.15,30.15,0,0,1,.88-3.82q1.07-4.11,1.07-4.49t-.51-.41q-.43,0-1.5,1.31a.1.1,0,0,1-.09,0,.44.44,0,0,1-.31-.19.54.54,0,0,1-.16-.34.14.14,0,0,1,0-.1q1.87-2.31,3.22-2.31t1.4,1.17a22.69,22.69,0,0,1-.86,3.81,39.34,39.34,0,0,0-1.07,4.47q0,.41.49.41t1.53-1.28a.08.08,0,0,1,.07,0,.44.44,0,0,1,.29.19.53.53,0,0,1,.16.33A.14.14,0,0,1,190.17,152.2Zm.53-14.37a1.7,1.7,0,0,1-.56,1.22,1.68,1.68,0,0,1-1.19.56,1.59,1.59,0,0,1-1.12-.4,1.35,1.35,0,0,1-.44-1A1.6,1.6,0,0,1,188,137a1.72,1.72,0,0,1,1.18-.54Q190.69,136.46,190.69,137.83Z"/><path class="e740bac2-6b69-4371-9aac-273368053364" d="M202.47,143.91l-7.19,7.95a1.39,1.39,0,0,0-.27.33s.07,0,.16,0q.64-.06,1.08-.06t1.38.14a13.8,13.8,0,0,0,1.41.14,2.44,2.44,0,0,0,2-1.14.38.38,0,0,1,.54-.11q.37.1.19.43a6.61,6.61,0,0,0-.5,1.14,2.18,2.18,0,0,1-2.17,1.73,16.2,16.2,0,0,1-2.28-.28,16.13,16.13,0,0,0-2.41-.28,3.92,3.92,0,0,0-2,.56.1.1,0,0,1-.07,0,.42.42,0,0,1-.3-.19.54.54,0,0,1-.16-.33.14.14,0,0,1,0-.1q4.75-5.32,7.15-7.92.27-.29.27-.34s-.06,0-.14,0-.59,0-1.14,0a11,11,0,0,1-1.27-.14,10.91,10.91,0,0,0-1.28-.14,2,2,0,0,0-1.08.23,3.12,3.12,0,0,0-.79.91.36.36,0,0,1-.56.11q-.3-.1-.14-.43a10,10,0,0,0,.47-1.14,4,4,0,0,1,.63-1.37,1.93,1.93,0,0,1,1.36-.36,14.93,14.93,0,0,1,2.23.28,15,15,0,0,0,2.36.28,3.32,3.32,0,0,0,1.9-.56l.07,0a.53.53,0,0,1,.35.2.56.56,0,0,1,.19.36A.12.12,0,0,1,202.47,143.91Z"/><path class="e740bac2-6b69-4371-9aac-273368053364" d="M215.41,152.14q-1.68,2.31-3.12,2.31-1.28,0-1.28-1.34a16.11,16.11,0,0,1,.31-2.68c0-.09,0-.15-.07-.16s-.14,0-.19.13q-2.48,4.2-4.94,4.2t-2.48-2.77a8.74,8.74,0,0,1,2.65-6.19q2.44-2.51,4.85-2.51a4.81,4.81,0,0,1,1.57.29q.21.07.5-.26.47-.53.78-.53a.74.74,0,0,1,.36.11.32.32,0,0,1,.19.31,4.93,4.93,0,0,1-.24.86,23.25,23.25,0,0,0-1.34,7.62q0,1.36.44,1.36t1.51-1.3H215a.42.42,0,0,1,.29.18.52.52,0,0,1,.16.32A.11.11,0,0,1,215.41,152.14Zm-3.85-6.08a1.38,1.38,0,0,0-1.58-1.54q-1.36,0-2.75,1.88a7.08,7.08,0,0,0-1.48,4.31q0,2,1.48,2t3-2.71A8.26,8.26,0,0,0,211.56,146.06Z"/><path class="e740bac2-6b69-4371-9aac-273368053364" d="M228.78,152.2q-1.7,2.28-3.1,2.28t-1.46-1.17a32.33,32.33,0,0,1,.7-3.77,28.51,28.51,0,0,0,.61-3.27q0-1.47-1.34-1.47-1,0-2.27,1.93a14,14,0,0,0-1.86,4.85l-.41,2.11q-.11.63-1.23.7a1,1,0,0,1-.6-.09.36.36,0,0,1-.13-.39q.36-2,.7-3.94a25.14,25.14,0,0,0,.39-4q0-1.37-.44-1.37t-1.51,1.31l-.09,0a.42.42,0,0,1-.3-.19.55.55,0,0,1-.16-.34.2.2,0,0,1,0-.09q1.74-2.31,3.12-2.31t1.31,1.38a12,12,0,0,1-.23,2c0,.08,0,.12.1.14a.15.15,0,0,0,.19-.11q2.15-3.57,4.45-3.57t2.43,2.54a32.39,32.39,0,0,1-.8,4.07,21.16,21.16,0,0,0-.56,3q0,.41.5.41t1.5-1.28l.06,0a.42.42,0,0,1,.29.18.52.52,0,0,1,.16.32A.14.14,0,0,1,228.78,152.2Z"/><path class="e740bac2-6b69-4371-9aac-273368053364" d="M242.15,152.27q-1.74,2.3-3.12,2.3t-1.28-1.37a13.11,13.11,0,0,1,.2-2c0-.12,0-.19-.06-.2s-.13,0-.2.17a10.4,10.4,0,0,1-1.83,2.31,3.84,3.84,0,0,1-2.51,1.26,2.53,2.53,0,0,1-2.1-1,4.25,4.25,0,0,1-.76-2.7,8.35,8.35,0,0,1,2-5.66q2-2.36,4.09-2.36a7.68,7.68,0,0,1,2.21.33s.11-.22.19-.7l.9-6q.16-1-.26-1a11.77,11.77,0,0,0-2.31.41q-.17,0-.3-.24t0-.37a14.63,14.63,0,0,1,4.05-1.54q1,0,1,1a1.78,1.78,0,0,1,0,.21q-.71,4.24-2.11,13a25.19,25.19,0,0,0-.34,3.48q0,1.37.44,1.37t1.51-1.31l.07,0a.42.42,0,0,1,.29.19.55.55,0,0,1,.16.34A.28.28,0,0,1,242.15,152.27ZM238.3,146q0-1.48-2.31-1.48a2.63,2.63,0,0,0-2.25,1.56,8.64,8.64,0,0,0-1,4.44q0,2.31,1.58,2.31,1.34,0,2.7-2.54A9.22,9.22,0,0,0,238.3,146Z"/><path class="e740bac2-6b69-4371-9aac-273368053364" d="M253.92,147.48a7.51,7.51,0,0,1-1.77,5.08,5.21,5.21,0,0,1-4,2q-4.12,0-4.12-4.67a7.1,7.1,0,0,1,1.86-5,5.34,5.34,0,0,1,4-1.86,3.81,3.81,0,0,1,3,1.21A4.88,4.88,0,0,1,253.92,147.48Zm-2.3.78q0-4-2.31-4a2.48,2.48,0,0,0-2.18,1.36,7,7,0,0,0-.83,3.68q0,4,2.43,4a2.37,2.37,0,0,0,2.11-1.36A7.25,7.25,0,0,0,251.62,148.26Z"/><path class="e740bac2-6b69-4371-9aac-273368053364" d="M276.4,139.47a.66.66,0,0,1-.56.61q-.54,0-.64-.36a4.34,4.34,0,0,0-1.36-2.52,4.64,4.64,0,0,0-2.85-.72,3.82,3.82,0,0,0-2.31.68,2.41,2.41,0,0,0-1,2.05,3.25,3.25,0,0,0,.62,2,10.82,10.82,0,0,0,2.48,2.11,19,19,0,0,1,3.84,3.2,4.39,4.39,0,0,1,1,2.83,4.81,4.81,0,0,1-1.93,4,7.19,7.19,0,0,1-4.54,1.38q-4.94,0-5.44-1.61a12.8,12.8,0,0,1-.41-2.4.78.78,0,0,1,.47-.9,1,1,0,0,1,.49-.11c.1,0,.21.17.31.4a5.17,5.17,0,0,0,7.61,2.54,2.79,2.79,0,0,0,1.16-2.4,3.15,3.15,0,0,0-.66-2,14.54,14.54,0,0,0-2.94-2.5,19.14,19.14,0,0,1-3.42-2.83,4.1,4.1,0,0,1-1-2.67,4.49,4.49,0,0,1,1.77-3.71,7.09,7.09,0,0,1,4.54-1.4,11,11,0,0,1,3.6.46,4.53,4.53,0,0,1,.7.33.82.82,0,0,1,.44.59A12.21,12.21,0,0,1,276.4,139.47Z"/><path class="e740bac2-6b69-4371-9aac-273368053364" d="M289,147.48a7.51,7.51,0,0,1-1.77,5.08,5.21,5.21,0,0,1-4,2q-4.12,0-4.12-4.67a7.1,7.1,0,0,1,1.86-5,5.34,5.34,0,0,1,4-1.86,3.81,3.81,0,0,1,3,1.21A4.88,4.88,0,0,1,289,147.48Zm-2.3.78q0-4-2.31-4a2.48,2.48,0,0,0-2.18,1.36,7,7,0,0,0-.83,3.68q0,4,2.43,4A2.37,2.37,0,0,0,286,151.9,7.25,7.25,0,0,0,286.74,148.26Z"/><path class="e740bac2-6b69-4371-9aac-273368053364" d="M303,152.2q-1.7,2.28-3.1,2.28t-1.46-1.17a32.33,32.33,0,0,1,.7-3.77,28.51,28.51,0,0,0,.61-3.27q0-1.47-1.34-1.47-1,0-2.27,1.93a14,14,0,0,0-1.86,4.85l-.41,2.11q-.11.63-1.23.7a1,1,0,0,1-.6-.09.36.36,0,0,1-.13-.39q.36-2,.7-3.94a25.14,25.14,0,0,0,.39-4q0-1.37-.44-1.37t-1.51,1.31l-.09,0a.42.42,0,0,1-.3-.19.55.55,0,0,1-.16-.34.2.2,0,0,1,0-.09q1.74-2.31,3.12-2.31t1.31,1.38a12,12,0,0,1-.23,2c0,.08,0,.12.1.14a.15.15,0,0,0,.19-.11q2.15-3.57,4.45-3.57t2.43,2.54a32.39,32.39,0,0,1-.8,4.07,21.16,21.16,0,0,0-.56,3q0,.41.5.41t1.5-1.28l.06,0a.42.42,0,0,1,.29.18.52.52,0,0,1,.16.32A.14.14,0,0,1,303,152.2Z"/><path class="e740bac2-6b69-4371-9aac-273368053364" d="M316.44,152.2q-1.73,2.28-3.12,2.28t-1.44-1.17a36.53,36.53,0,0,1,.77-3.77,28.1,28.1,0,0,0,.64-3.27,1.29,1.29,0,0,0-1.44-1.47q-1.11,0-2.33,1.93a12.94,12.94,0,0,0-1.76,4.85l-.36,2.11q-.1.61-1.34.7a1.08,1.08,0,0,1-.61-.09.34.34,0,0,1-.15-.39q1.34-9.53,2.13-17.24.1-1-.29-1a8.58,8.58,0,0,0-2,.39q-.13,0-.24-.16a.8.8,0,0,1-.11-.4c0-.09,0-.15.07-.17a12.58,12.58,0,0,1,3.77-1.4q1.23,0,1.23,1a1.1,1.1,0,0,1,0,.24q-.67,4.12-1.9,11.3a.12.12,0,0,0,.1.14.17.17,0,0,0,.2-.11,10.43,10.43,0,0,1,1.94-2.31,4.26,4.26,0,0,1,2.7-1.26,2.56,2.56,0,0,1,1.8.63,2.47,2.47,0,0,1,.74,1.91,36.31,36.31,0,0,1-.84,4.07q-.64,2.71-.64,3,0,.41.47.41t1.54-1.28l.07,0a.42.42,0,0,1,.29.16.48.48,0,0,1,.15.32A.15.15,0,0,1,316.44,152.2Z"/><path class="e740bac2-6b69-4371-9aac-273368053364" d="M328.29,147.48a7.51,7.51,0,0,1-1.77,5.08,5.21,5.21,0,0,1-4,2q-4.12,0-4.12-4.67a7.1,7.1,0,0,1,1.86-5,5.34,5.34,0,0,1,4-1.86,3.81,3.81,0,0,1,3,1.21A4.88,4.88,0,0,1,328.29,147.48Zm-2.3.78q0-4-2.31-4a2.48,2.48,0,0,0-2.18,1.36,7,7,0,0,0-.83,3.68q0,4,2.43,4a2.37,2.37,0,0,0,2.11-1.36A7.25,7.25,0,0,0,326,148.26Z"/><path class="e740bac2-6b69-4371-9aac-273368053364" d="M339,144.22a7.9,7.9,0,0,1-.29,1.37.45.45,0,0,1-.44.33,1.22,1.22,0,0,1-1-.67,2.4,2.4,0,0,0-2.13-1.2,1.89,1.89,0,0,0-1.27.41,1.18,1.18,0,0,0-.43.9,1.65,1.65,0,0,0,.53,1.2,10.64,10.64,0,0,0,1.08.83,17,17,0,0,1,2.44,1.93,2.46,2.46,0,0,1,.66,1.7,3.1,3.1,0,0,1-1.27,2.57,5.28,5.28,0,0,1-3.32,1q-3.38,0-3.38-1.63t.61-1.67a1.31,1.31,0,0,1,1.11.78,2.53,2.53,0,0,0,2.33,1.41q1.81,0,1.81-1.44a1.79,1.79,0,0,0-.34-1.12,6.55,6.55,0,0,0-1.44-1.19,11.48,11.48,0,0,1-2.2-1.78,2.34,2.34,0,0,1-.57-1.55,3.07,3.07,0,0,1,1.21-2.46,4.57,4.57,0,0,1,3-1Q339.24,142.94,339,144.22Z"/></g></g></svg>